<svg xmlns="http://www.w3.org/2000/svg" xmlns:xlink="http://www.w3.org/1999/xlink" width="232" zoomAndPan="magnify" viewBox="0 0 174 181.92" height="232" preserveAspectRatio="xMidYMid meet" version="1.0"><defs><clipPath id="fc92450fe2"><path d="M 44 15 L 173.960938 15 L 173.960938 173.921875 L 44 173.921875 Z M 44 15 " clip-rule="nonzero"/></clipPath><clipPath id="cedd5f4f24"><path d="M 0.0390625 0 L 123 0 L 123 80 L 0.0390625 80 Z M 0.0390625 0 " clip-rule="nonzero"/></clipPath></defs><path fill="#17ca64" d="M 62.710938 143.351562 L 72.902344 143.351562 L 72.902344 153.542969 L 62.710938 153.542969 Z M 62.710938 143.351562 " fill-opacity="1" fill-rule="nonzero"/><g clip-path="url(#fc92450fe2)"><path fill="#17ca64" d="M 147.636719 50.953125 C 142.472656 50.953125 138.292969 46.777344 138.292969 41.613281 L 138.292969 15.285156 L 127.421875 15.285156 L 127.421875 68.789062 C 127.421875 77.6875 120.1875 84.921875 111.289062 84.921875 L 44.878906 84.921875 L 44.878906 171.375 C 44.878906 172.769531 46.03125 173.921875 47.425781 173.921875 L 171.414062 173.921875 C 172.808594 173.921875 173.960938 172.769531 173.960938 171.375 L 173.960938 50.953125 Z M 66.652344 113.628906 C 67.398438 111.828125 68.792969 110.433594 70.59375 109.6875 L 97.769531 98.375 C 100.042969 97.425781 102.558594 97.425781 104.832031 98.375 C 107.109375 99.328125 108.875 101.09375 109.828125 103.367188 L 110.609375 105.203125 L 122.429688 100.277344 L 119.644531 93.621094 C 119.269531 92.769531 119.441406 91.785156 120.019531 91.039062 C 120.597656 90.289062 121.511719 89.949219 122.429688 90.121094 L 147.769531 94.433594 C 149.808594 94.773438 151.472656 96.132812 152.289062 98.035156 C 153.070312 99.9375 152.832031 102.078125 151.679688 103.742188 L 136.902344 124.871094 C 136.359375 125.617188 135.472656 126.0625 134.523438 125.957031 C 133.605469 125.855469 132.789062 125.277344 132.449219 124.394531 L 129.496094 117.296875 L 109.183594 125.6875 C 104.496094 127.65625 99.09375 125.414062 97.121094 120.726562 L 96.339844 118.894531 L 77.660156 126.671875 C 76.742188 127.046875 75.789062 127.25 74.839844 127.25 C 73.886719 127.25 72.96875 127.078125 72.054688 126.707031 C 70.253906 125.957031 68.859375 124.566406 68.113281 122.765625 L 66.617188 119.199219 C 65.90625 117.398438 65.90625 115.429688 66.652344 113.628906 Z M 89.886719 142.5 C 89.886719 143.894531 88.734375 145.050781 87.339844 145.050781 L 85.640625 145.050781 C 84.25 145.050781 83.09375 143.894531 83.09375 142.5 C 83.09375 141.109375 84.25 139.953125 85.640625 139.953125 L 87.339844 139.953125 C 88.734375 139.953125 89.886719 141.109375 89.886719 142.5 Z M 78 156.089844 C 78 157.480469 76.84375 158.636719 75.449219 158.636719 L 60.164062 158.636719 C 58.769531 158.636719 57.617188 157.480469 57.617188 156.089844 L 57.617188 140.804688 C 57.617188 139.410156 58.769531 138.253906 60.164062 138.253906 L 75.449219 138.253906 C 76.84375 138.253906 78 139.410156 78 140.804688 Z M 158.675781 156.9375 L 85.640625 156.9375 C 84.25 156.9375 83.09375 155.785156 83.09375 154.390625 C 83.09375 153 84.25 151.84375 85.640625 151.84375 L 158.675781 151.84375 C 160.066406 151.84375 161.222656 153 161.222656 154.390625 C 161.222656 155.785156 160.066406 156.9375 158.675781 156.9375 Z M 158.675781 145.050781 L 95.832031 145.050781 C 94.4375 145.050781 93.285156 143.894531 93.285156 142.5 C 93.285156 141.109375 94.4375 139.953125 95.832031 139.953125 L 158.675781 139.953125 C 160.066406 139.953125 161.222656 141.109375 161.222656 142.5 C 161.222656 143.894531 160.066406 145.050781 158.675781 145.050781 Z M 158.675781 145.050781 " fill-opacity="1" fill-rule="nonzero"/></g><path fill="#17ca64" d="M 147.636719 45.859375 L 172.46875 45.859375 L 143.390625 16.78125 L 143.390625 41.613281 C 143.390625 43.957031 145.292969 45.859375 147.636719 45.859375 Z M 147.636719 45.859375 " fill-opacity="1" fill-rule="nonzero"/><path fill="#17ca64" d="M 72.867188 120.796875 C 73.105469 121.339844 73.515625 121.746094 74.058594 121.984375 C 74.601562 122.222656 75.210938 122.222656 75.722656 121.984375 L 96.75 113.21875 C 98.039062 112.675781 99.535156 113.289062 100.078125 114.578125 L 101.8125 118.757812 C 102.695312 120.863281 105.105469 121.847656 107.210938 120.964844 L 129.902344 111.523438 C 131.195312 110.976562 132.6875 111.589844 133.230469 112.878906 L 135.371094 118.042969 L 147.464844 100.71875 C 147.636719 100.480469 147.667969 100.175781 147.566406 99.871094 C 147.464844 99.597656 147.195312 99.394531 146.921875 99.359375 L 126.132812 95.828125 L 128.101562 100.582031 C 128.648438 101.875 128.035156 103.367188 126.746094 103.914062 L 110.234375 110.808594 C 108.945312 111.351562 107.449219 110.742188 106.90625 109.449219 L 105.171875 105.269531 C 104.765625 104.253906 103.949219 103.472656 102.929688 103.03125 C 102.421875 102.824219 101.878906 102.722656 101.367188 102.722656 C 100.824219 102.722656 100.28125 102.824219 99.773438 103.03125 L 72.597656 114.339844 C 71.476562 114.816406 70.933594 116.109375 71.40625 117.230469 Z M 72.867188 120.796875 " fill-opacity="1" fill-rule="nonzero"/><path fill="#17ca64" d="M 77.046875 38.214844 C 77.046875 36.824219 75.890625 35.667969 74.5 35.667969 L 72.800781 35.667969 C 71.40625 35.667969 70.253906 36.824219 70.253906 38.214844 L 70.253906 54.351562 L 77.046875 54.351562 Z M 77.046875 38.214844 " fill-opacity="1" fill-rule="nonzero"/><path fill="#17ca64" d="M 52.113281 17.832031 C 52.113281 16.441406 50.957031 15.285156 49.566406 15.285156 L 47.867188 15.285156 C 46.472656 15.285156 45.320312 16.441406 45.320312 17.832031 L 45.320312 54.351562 L 52.113281 54.351562 Z M 52.113281 17.832031 " fill-opacity="1" fill-rule="nonzero"/><path fill="#17ca64" d="M 101.945312 17.832031 C 101.945312 16.441406 100.792969 15.285156 99.398438 15.285156 L 97.699219 15.285156 C 96.308594 15.285156 95.152344 16.441406 95.152344 17.832031 L 95.152344 54.351562 L 101.945312 54.351562 Z M 101.945312 17.832031 " fill-opacity="1" fill-rule="nonzero"/><path fill="#17ca64" d="M 27.214844 33.121094 C 27.214844 31.726562 26.058594 30.574219 24.667969 30.574219 L 22.96875 30.574219 C 21.574219 30.574219 20.417969 31.726562 20.417969 33.121094 L 20.417969 54.351562 L 27.214844 54.351562 Z M 27.214844 33.121094 " fill-opacity="1" fill-rule="nonzero"/><g clip-path="url(#cedd5f4f24)"><path fill="#17ca64" d="M 122.328125 68.789062 L 122.328125 11.039062 C 122.328125 4.960938 117.367188 0 111.289062 0 L 11.078125 0 C 4.996094 0 0.0390625 4.960938 0.0390625 11.039062 L 0.0390625 68.789062 C 0.0390625 74.867188 4.996094 79.828125 11.078125 79.828125 L 111.289062 79.828125 C 117.367188 79.828125 122.328125 74.867188 122.328125 68.789062 Z M 15.324219 69.636719 C 11.113281 69.636719 7.679688 66.207031 7.679688 61.996094 L 7.679688 56.898438 C 7.679688 55.507812 8.835938 54.351562 10.230469 54.351562 L 15.324219 54.351562 L 15.324219 33.121094 C 15.324219 28.90625 18.753906 25.476562 22.96875 25.476562 L 24.667969 25.476562 C 28.878906 25.476562 32.308594 28.90625 32.308594 33.121094 L 32.308594 54.351562 L 40.222656 54.351562 L 40.222656 17.832031 C 40.222656 13.621094 43.65625 10.191406 47.867188 10.191406 L 49.566406 10.191406 C 53.777344 10.191406 57.207031 13.621094 57.207031 17.832031 L 57.207031 54.351562 L 65.125 54.351562 L 65.125 38.214844 C 65.125 34.003906 68.554688 30.574219 72.765625 30.574219 L 74.464844 30.574219 C 78.675781 30.574219 82.109375 34.003906 82.109375 38.214844 L 82.109375 54.351562 L 90.058594 54.351562 L 90.058594 17.832031 C 90.058594 13.621094 93.488281 10.191406 97.699219 10.191406 L 99.398438 10.191406 C 103.609375 10.191406 107.042969 13.621094 107.042969 17.832031 L 107.042969 54.351562 L 112.136719 54.351562 C 113.53125 54.351562 114.683594 55.507812 114.683594 56.898438 L 114.683594 61.996094 C 114.683594 66.207031 111.253906 69.636719 107.042969 69.636719 Z M 15.324219 69.636719 " fill-opacity="1" fill-rule="nonzero"/></g><path fill="#17ca64" d="M 12.777344 61.996094 C 12.777344 63.386719 13.933594 64.542969 15.324219 64.542969 L 107.042969 64.542969 C 108.433594 64.542969 109.589844 63.386719 109.589844 61.996094 L 109.589844 59.445312 L 12.777344 59.445312 Z M 12.777344 61.996094 " fill-opacity="1" fill-rule="nonzero"/></svg>