<svg xmlns="http://www.w3.org/2000/svg" xmlns:xlink="http://www.w3.org/1999/xlink" width="290" zoomAndPan="magnify" viewBox="0 0 217.5 173.999997" height="232" preserveAspectRatio="xMidYMid meet" version="1.0"><defs><clipPath id="1a3d76ba20"><path d="M 1 48.210938 L 217 48.210938 L 217 126 L 1 126 Z M 1 48.210938 " clip-rule="nonzero"/></clipPath></defs><g clip-path="url(#1a3d76ba20)"><path fill="#ffffff" d="M 3.578125 116.464844 C 0.273438 114.214844 0.972656 111.550781 1.863281 109.007812 C 4.296875 101.964844 7.890625 95.625 13.371094 90.4375 C 30.839844 73.929688 51.527344 63.207031 74.59375 57.265625 C 98.242188 51.164062 121.582031 52.503906 144.15625 62.246094 C 154.773438 66.832031 165.148438 72.003906 176.007812 77.089844 C 175.613281 75.902344 175.253906 74.390625 174.636719 72.964844 C 170.507812 63.261719 170.871094 60.976562 178.25 53.3125 C 179.894531 51.59375 181.847656 50.1875 184.140625 48.210938 C 185.375 50.203125 186.296875 51.613281 187.136719 53.074219 C 196.195312 68.757812 204.980469 84.613281 214.484375 100.039062 C 216.78125 103.785156 216.574219 106.671875 215.070312 109.847656 C 212.019531 116.238281 206.660156 120.808594 201.078125 124.742188 C 199.125 126.117188 195.476562 125.671875 192.71875 125.277344 C 172.53125 122.304688 152.253906 121.222656 131.925781 122.855469 C 125.589844 123.371094 119.339844 124.847656 112.492188 125.964844 C 111.738281 123.9375 112.988281 121.6875 114.1875 119.777344 C 119.820312 110.828125 126.671875 103.371094 137.902344 101.792969 C 143.210938 101.054688 148.503906 100.261719 153.8125 99.578125 C 156.175781 99.265625 158.574219 99.199219 161.503906 98.976562 C 150.660156 87.15625 103.019531 75.835938 78.859375 78.960938 C 49.472656 82.757812 24.539062 95.8125 3.578125 116.464844 Z M 3.578125 116.464844 " fill-opacity="1" fill-rule="nonzero"/></g></svg>