<svg xmlns="http://www.w3.org/2000/svg" xmlns:xlink="http://www.w3.org/1999/xlink" width="290" zoomAndPan="magnify" viewBox="0 0 217.92 181.92" height="232" preserveAspectRatio="xMidYMid meet" version="1.0"><defs><clipPath id="e3a3d272ec"><path d="M 23.703125 1.957031 L 193.878906 1.957031 L 193.878906 172 L 23.703125 172 Z M 23.703125 1.957031 " clip-rule="nonzero"/></clipPath></defs><g clip-path="url(#e3a3d272ec)"><path fill="#14c962" d="M 108.710938 1.957031 C 61.761719 1.957031 23.703125 40.015625 23.703125 86.960938 C 23.703125 133.910156 61.761719 171.96875 108.710938 171.96875 C 155.65625 171.96875 193.714844 133.910156 193.714844 86.960938 C 193.714844 40.015625 155.65625 1.957031 108.710938 1.957031 Z M 70.5625 55.570312 C 70.5625 52.644531 72.933594 50.273438 75.859375 50.273438 L 76.273438 50.273438 C 78.679688 34.507812 92.285156 22.382812 108.710938 22.382812 C 125.132812 22.382812 138.742188 34.507812 141.144531 50.273438 L 141.8125 50.273438 C 144.738281 50.273438 147.109375 52.644531 147.109375 55.570312 L 147.109375 59.824219 C 147.109375 62.75 144.738281 65.121094 141.8125 65.121094 L 140.0625 65.121094 L 140.0625 67.0625 C 140.0625 72.714844 136.492188 80.433594 132.871094 84.171875 C 132.898438 84.402344 132.929688 84.632812 132.929688 84.867188 C 132.929688 87.242188 130.988281 89.210938 128.582031 89.210938 C 127.828125 89.210938 127.132812 89.007812 126.523438 88.660156 C 125.164062 87.964844 124.234375 86.515625 124.234375 84.894531 L 124.234375 84.867188 C 124.234375 82.460938 126.175781 80.519531 128.582031 80.519531 C 129.101562 80.519531 129.597656 80.605469 130.058594 80.808594 C 132.753906 77.882812 135.714844 71.351562 135.714844 67.0625 L 135.765625 55.234375 C 135.765625 39.703125 122.609375 27.183594 106.855469 28.238281 C 92.492188 29.203125 81.652344 41.792969 81.652344 56.191406 L 81.652344 61.386719 C 81.652344 63.449219 79.980469 65.121094 77.917969 65.121094 L 75.859375 65.121094 C 72.933594 65.121094 70.5625 62.75 70.5625 59.824219 Z M 108.710938 87.898438 C 96.503906 87.6875 87.519531 72.5625 87.53125 61.457031 C 87.53125 59.441406 87.53125 57.425781 87.53125 55.40625 C 87.464844 44.210938 97.007812 34.527344 108.710938 34.226562 C 120.414062 34.527344 129.953125 44.210938 129.890625 55.40625 C 129.890625 57.425781 129.890625 59.441406 129.890625 61.457031 C 129.902344 72.5625 120.917969 87.6875 108.710938 87.898438 Z M 152.585938 132.894531 C 152.585938 136.933594 149.308594 140.207031 145.273438 140.207031 L 72.148438 140.207031 C 68.109375 140.207031 64.835938 136.933594 64.835938 132.894531 L 64.835938 127.09375 C 64.835938 109.855469 78.367188 95.8125 95.382812 94.90625 L 108.710938 112.472656 L 122.039062 94.90625 C 139.054688 95.8125 152.585938 109.855469 152.585938 127.09375 Z M 152.585938 132.894531 " fill-opacity="1" fill-rule="nonzero"/></g></svg>