<svg xmlns="http://www.w3.org/2000/svg" xmlns:xlink="http://www.w3.org/1999/xlink" width="232" zoomAndPan="magnify" viewBox="0 0 174 181.92" height="232" preserveAspectRatio="xMidYMid meet" version="1.0"><defs><clipPath id="4fe014516a"><path d="M 8.734375 8.695312 L 165.414062 8.695312 L 165.414062 165.378906 L 8.734375 165.378906 Z M 8.734375 8.695312 " clip-rule="nonzero"/></clipPath></defs><g clip-path="url(#4fe014516a)"><path fill="#03b751" d="M 43.945312 8.695312 L 129.960938 8.695312 C 139.679688 8.695312 148.484375 12.640625 154.902344 19.058594 C 161.226562 25.386719 165.261719 34.28125 165.261719 43.910156 L 165.261719 129.921875 C 165.261719 139.640625 161.226562 148.445312 154.902344 154.863281 C 148.484375 161.191406 139.679688 165.226562 129.960938 165.226562 L 43.945312 165.226562 C 34.316406 165.226562 25.421875 161.191406 19.097656 154.863281 C 12.675781 148.445312 8.734375 139.640625 8.734375 129.921875 L 8.734375 43.910156 C 8.734375 34.28125 12.675781 25.386719 19.097656 19.058594 C 25.421875 12.640625 34.316406 8.695312 43.945312 8.695312 Z M 129.960938 22.632812 L 43.945312 22.632812 C 38.078125 22.632812 32.757812 25.019531 28.90625 28.871094 C 25.058594 32.722656 22.671875 38.039062 22.671875 43.910156 L 22.671875 129.921875 C 22.671875 135.789062 25.058594 141.109375 28.90625 144.960938 C 32.757812 148.902344 38.078125 151.285156 43.945312 151.285156 L 129.960938 151.285156 C 135.828125 151.285156 141.148438 148.902344 144.996094 144.960938 C 148.941406 141.109375 151.324219 135.789062 151.324219 129.921875 L 151.324219 43.910156 C 151.324219 38.039062 148.941406 32.722656 144.996094 28.871094 C 141.148438 25.019531 135.828125 22.632812 129.960938 22.632812 Z M 129.960938 22.632812 " fill-opacity="1" fill-rule="nonzero"/></g><path fill="#03b751" d="M 130.875 36.023438 C 132.800781 36.023438 134.636719 36.753906 135.828125 38.039062 C 137.113281 39.324219 137.9375 41.066406 137.9375 42.992188 C 137.9375 44.917969 137.113281 46.75 135.828125 47.941406 C 134.636719 49.226562 132.800781 50.050781 130.875 50.050781 C 128.949219 50.050781 127.207031 49.226562 125.925781 47.941406 C 124.640625 46.75 123.90625 44.917969 123.90625 42.992188 C 123.90625 41.066406 124.640625 39.324219 125.925781 38.039062 C 127.207031 36.753906 128.949219 36.023438 130.875 36.023438 Z M 130.875 36.023438 " fill-opacity="1" fill-rule="nonzero"/><path fill="#03b751" d="M 86.953125 48.953125 C 97.5 48.953125 106.941406 53.261719 113.820312 60.046875 C 120.699219 66.925781 125.007812 76.460938 125.007812 86.914062 C 125.007812 97.460938 120.699219 106.90625 113.820312 113.78125 C 106.941406 120.660156 97.5 124.96875 86.953125 124.96875 C 76.5 124.96875 66.960938 120.660156 60.085938 113.78125 C 53.300781 106.90625 48.988281 97.460938 48.988281 86.914062 C 48.988281 76.460938 53.300781 66.925781 60.085938 60.046875 C 66.960938 53.261719 76.5 48.953125 86.953125 48.953125 Z M 103.917969 70.042969 C 99.605469 65.734375 93.554688 62.980469 86.953125 62.980469 C 80.351562 62.980469 74.390625 65.734375 70.082031 70.042969 C 65.769531 74.351562 63.019531 80.3125 63.019531 86.914062 C 63.019531 93.515625 65.769531 99.570312 70.082031 103.878906 C 74.390625 108.1875 80.351562 110.847656 86.953125 110.847656 C 93.554688 110.847656 99.605469 108.1875 103.917969 103.878906 C 108.226562 99.570312 110.886719 93.515625 110.886719 86.914062 C 110.886719 80.3125 108.226562 74.351562 103.917969 70.042969 Z M 103.917969 70.042969 " fill-opacity="1" fill-rule="nonzero"/></svg>