<svg xmlns="http://www.w3.org/2000/svg" xmlns:xlink="http://www.w3.org/1999/xlink" width="232" zoomAndPan="magnify" viewBox="0 0 174 181.92" height="232" preserveAspectRatio="xMidYMid meet" version="1.0"><defs><clipPath id="73c993e7bd"><path d="M 3 0 L 171.25 0 L 171.25 173.921875 L 3 173.921875 Z M 3 0 " clip-rule="nonzero"/></clipPath></defs><g clip-path="url(#73c993e7bd)"><path fill="#00a651" d="M 119.121094 28.570312 C 102.480469 28.570312 88.992188 42.058594 88.992188 58.699219 C 88.992188 75.339844 102.480469 88.828125 119.121094 88.828125 C 135.761719 88.828125 149.25 75.339844 149.25 58.699219 C 149.25 42.058594 135.761719 28.570312 119.121094 28.570312 Z M 136.144531 52.847656 C 130.203125 58.84375 124.300781 64.878906 118.332031 70.847656 C 116.589844 72.589844 113.757812 72.589844 112.015625 70.847656 L 102.113281 60.945312 C 100.367188 59.199219 100.367188 56.371094 102.113281 54.625 C 103.855469 52.878906 106.6875 52.878906 108.433594 54.625 L 115.164062 61.355469 L 129.816406 46.5625 C 131.546875 44.808594 134.378906 44.804688 136.125 46.542969 C 137.871094 48.277344 137.875 51.097656 136.144531 52.847656 Z M 119.121094 0.0390625 L 66.824219 22.453125 L 66.824219 64.742188 C 66.824219 95.78125 89.046875 119.742188 119.121094 124.984375 C 149.195312 119.742188 171.417969 95.78125 171.417969 64.742188 L 171.417969 22.453125 Z M 160.5 64.742188 C 160.5 89.785156 143.035156 108.902344 119.121094 113.867188 C 95.207031 108.902344 77.742188 89.785156 77.742188 64.742188 L 77.742188 29.652344 L 119.121094 11.917969 L 160.5 29.652344 Z M 68.027344 137.167969 C 66.640625 136.371094 66.160156 134.597656 66.957031 133.210938 C 67.757812 131.820312 69.527344 131.34375 70.917969 132.140625 C 73.15625 133.433594 74.96875 134.515625 76.742188 135.574219 C 81.070312 138.15625 85.160156 140.597656 89.828125 142.878906 C 92.886719 143.917969 95.566406 143.371094 97.253906 140.449219 C 98.902344 137.597656 97.71875 134.132812 95.101562 132.335938 C 86.429688 128.226562 78.445312 122.660156 72.164062 118.285156 C 63.082031 111.953125 60.71875 110.394531 49.242188 113.484375 L 28.578125 119.054688 L 36.414062 149.332031 L 37.988281 148.914062 C 38.707031 148.722656 39.5 148.804688 40.195312 149.207031 L 77.222656 170.585938 C 81.832031 173.246094 86.765625 173.914062 91.882812 172.386719 L 155.953125 153.257812 C 158.019531 152.640625 159.566406 150.363281 159.96875 147.847656 C 160.296875 145.789062 159.785156 143.65625 158.195312 142.234375 C 155.691406 139.988281 150.5625 139.074219 141.632812 141.503906 L 106.597656 151.035156 C 103.820312 151.789062 101.097656 152.015625 98.394531 151.753906 C 90.621094 151.011719 80.054688 144.3125 73.765625 140.558594 C 71.816406 139.394531 69.820312 138.203125 68.027344 137.167969 Z M 33.785156 162.417969 L 21.15625 113.621094 C 20.546875 111.261719 18.117188 109.832031 15.757812 110.441406 L 6.363281 112.871094 C 4.003906 113.480469 2.574219 115.910156 3.183594 118.269531 L 15.8125 167.070312 C 16.421875 169.429688 18.851562 170.859375 21.210938 170.25 L 30.605469 167.816406 C 32.964844 167.207031 34.394531 164.777344 33.785156 162.417969 Z M 16.347656 120.867188 C 16.152344 122.523438 14.65625 123.707031 13.003906 123.511719 C 11.347656 123.320312 10.164062 121.820312 10.359375 120.167969 C 10.550781 118.511719 12.050781 117.328125 13.703125 117.523438 C 15.359375 117.71875 16.542969 119.214844 16.347656 120.867188 Z M 16.347656 120.867188 " fill-opacity="1" fill-rule="evenodd"/></g></svg>