<svg xmlns="http://www.w3.org/2000/svg" xmlns:xlink="http://www.w3.org/1999/xlink" width="290" zoomAndPan="magnify" viewBox="0 0 217.92 181.92" height="232" preserveAspectRatio="xMidYMid meet" version="1.0"><defs><clipPath id="ef3fdebc33"><path d="M 102 102 L 208.273438 102 L 208.273438 168.390625 L 102 168.390625 Z M 102 102 " clip-rule="nonzero"/></clipPath></defs><path fill="#14c962" d="M 30.894531 47.992188 C 30.558594 49.832031 30.414062 51.777344 30.414062 53.722656 C 30.414062 72.070312 44.679688 87.007812 62.296875 87.007812 C 79.871094 87.007812 94.179688 72.070312 94.179688 53.722656 C 94.179688 51.777344 94.035156 49.855469 93.699219 47.992188 C 84.285156 48.722656 73.511719 49.101562 62.296875 49.101562 C 51.019531 49.101562 40.308594 48.722656 30.894531 47.992188 Z M 30.894531 47.992188 " fill-opacity="1" fill-rule="nonzero"/><path fill="#14c962" d="M 26.667969 40.375 C 36.960938 41.339844 49.285156 41.839844 62.296875 41.839844 C 75.269531 41.839844 87.570312 41.339844 97.863281 40.375 C 100.539062 40.125 102.484375 37.761719 102.234375 35.082031 C 101.984375 32.40625 99.683594 30.417969 96.960938 30.691406 C 94.765625 30.898438 92.445312 31.066406 90.078125 31.234375 L 85.183594 11.757812 C 84.261719 8.054688 80.625 5.710938 76.859375 6.402344 L 68.90625 7.867188 C 64.492188 8.683594 59.972656 8.683594 55.558594 7.867188 L 47.609375 6.402344 C 43.867188 5.710938 40.226562 8.054688 39.285156 11.757812 L 34.386719 31.234375 C 32.023438 31.066406 29.703125 30.898438 27.503906 30.691406 C 24.785156 30.398438 22.464844 32.40625 22.234375 35.082031 C 22.046875 37.761719 23.992188 40.125 26.667969 40.375 Z M 26.667969 40.375 " fill-opacity="1" fill-rule="nonzero"/><path fill="#14c962" d="M 86.816406 85.1875 C 85.457031 84.75 84.011719 85.585938 83.511719 86.925781 L 69.285156 127.636719 L 66.042969 103.871094 L 68.175781 103.871094 C 69.492188 103.871094 70.558594 102.804688 70.558594 101.484375 L 70.558594 94.207031 C 70.558594 92.886719 69.492188 91.820312 68.175781 91.820312 L 56.292969 91.820312 C 54.972656 91.820312 53.90625 92.886719 53.90625 94.207031 L 53.90625 101.484375 C 53.90625 102.804688 54.972656 103.871094 56.292969 103.871094 L 58.46875 103.871094 L 55.183594 127.636719 L 40.957031 86.925781 C 40.519531 85.566406 39.011719 84.75 37.652344 85.1875 C 23.738281 89.539062 13.070312 101.632812 11.230469 116.820312 L 9.386719 138.597656 C 8.867188 144.894531 13.84375 150.335938 20.203125 150.398438 L 94.535156 150.441406 L 95.9375 133.851562 L 95.9375 133.558594 C 97.253906 122.679688 102.378906 112.886719 110.101562 105.648438 C 105.707031 95.859375 97.152344 88.429688 86.816406 85.1875 Z M 86.816406 85.1875 " fill-opacity="1" fill-rule="nonzero"/><g clip-path="url(#ef3fdebc33)"><path fill="#14c962" d="M 206.1875 134.5625 C 204.371094 119.371094 193.699219 107.300781 179.746094 102.949219 C 178.363281 102.53125 176.898438 103.328125 176.441406 104.6875 L 162.214844 145.378906 L 158.949219 121.652344 L 161.125 121.652344 C 162.445312 121.652344 163.488281 120.585938 163.488281 119.269531 L 163.488281 111.945312 C 163.488281 110.628906 162.421875 109.582031 161.125 109.582031 L 149.203125 109.582031 C 147.882812 109.582031 146.835938 110.648438 146.835938 111.945312 L 146.835938 119.269531 C 146.835938 120.585938 147.902344 121.652344 149.203125 121.652344 L 151.378906 121.652344 L 148.113281 145.378906 L 133.886719 104.6875 C 133.40625 103.328125 131.941406 102.53125 130.582031 102.949219 C 116.628906 107.300781 105.980469 119.371094 104.136719 134.5625 L 102.277344 156.359375 C 101.730469 162.679688 106.730469 168.117188 113.070312 168.117188 L 197.195312 168.203125 C 203.554688 168.203125 208.554688 162.761719 208.007812 156.421875 Z M 206.1875 134.5625 " fill-opacity="1" fill-rule="nonzero"/></g><path fill="#14c962" d="M 123.804688 65.773438 C 123.46875 67.617188 123.324219 69.5625 123.324219 71.507812 C 123.324219 89.855469 137.589844 104.792969 155.207031 104.792969 C 172.777344 104.792969 187.089844 89.855469 187.089844 71.507812 C 187.089844 69.5625 186.941406 67.636719 186.609375 65.773438 C 177.191406 66.507812 166.417969 66.882812 155.207031 66.882812 C 143.929688 66.882812 133.21875 66.484375 123.804688 65.773438 Z M 123.804688 65.773438 " fill-opacity="1" fill-rule="nonzero"/><path fill="#14c962" d="M 119.578125 58.136719 C 129.871094 59.101562 142.191406 59.601562 155.207031 59.601562 C 168.175781 59.601562 180.476562 59.101562 190.769531 58.136719 C 193.449219 57.886719 195.394531 55.523438 195.144531 52.84375 C 194.890625 50.167969 192.589844 48.179688 189.871094 48.453125 C 187.675781 48.660156 185.351562 48.828125 182.988281 48.996094 L 178.09375 29.519531 C 177.171875 25.816406 173.53125 23.472656 169.765625 24.164062 L 161.816406 25.628906 C 157.402344 26.441406 152.882812 26.441406 148.46875 25.628906 L 140.519531 24.164062 C 136.773438 23.472656 133.132812 25.816406 132.191406 29.519531 L 127.296875 48.996094 C 124.933594 48.828125 122.609375 48.660156 120.414062 48.453125 C 117.695312 48.160156 115.371094 50.167969 115.140625 52.84375 C 114.953125 55.523438 116.921875 57.886719 119.578125 58.136719 Z M 119.578125 58.136719 " fill-opacity="1" fill-rule="nonzero"/></svg>