<svg xmlns="http://www.w3.org/2000/svg" xmlns:xlink="http://www.w3.org/1999/xlink" width="290" zoomAndPan="magnify" viewBox="0 0 217.92 181.92" height="232" preserveAspectRatio="xMidYMid meet" version="1.0"><defs><clipPath id="912e8d6455"><path d="M 37.511719 0 L 179.949219 0 L 179.949219 173.921875 L 37.511719 173.921875 Z M 37.511719 0 " clip-rule="nonzero"/></clipPath></defs><path fill="#00ec6a" d="M 109.523438 163.164062 L 92.761719 152.050781 C 64 132.472656 46.351562 100.015625 46.351562 65.617188 L 46.351562 43.394531 C 65.941406 40.570312 84.46875 32.28125 100.171875 19.226562 L 108.464844 11.816406 L 116.757812 19.226562 C 131.578125 32.28125 150.105469 40.570312 169.691406 43.394531 L 170.574219 43.394531 L 170.574219 65.617188 C 170.574219 100.015625 153.8125 132.472656 124.167969 152.050781 Z M 109.523438 163.164062 " fill-opacity="1" fill-rule="nonzero"/><g clip-path="url(#912e8d6455)"><path fill="#14c962" d="M 87.996094 159.28125 C 56.410156 137.9375 37.707031 102.835938 37.707031 65.617188 L 37.707031 35.632812 L 45.117188 34.574219 C 62.941406 32.105469 79.878906 24.34375 94.523438 12.523438 L 108.640625 0 L 122.933594 12.699219 C 136.34375 24.34375 152.753906 31.925781 170.574219 34.574219 L 179.75 34.574219 L 179.75 65.617188 C 179.75 103.542969 161.046875 138.46875 129.636719 159.105469 L 109.875 173.921875 Z M 87.996094 159.28125 " fill-opacity="1" fill-rule="nonzero"/></g><path fill="#00ec6a" d="M 109.523438 163.164062 L 92.761719 152.050781 C 64 132.472656 46.351562 100.015625 46.351562 65.617188 L 46.351562 43.394531 C 65.941406 40.570312 84.46875 32.28125 100.171875 19.226562 L 108.464844 11.816406 L 116.757812 19.226562 C 131.578125 32.28125 150.105469 40.570312 169.691406 43.394531 L 170.574219 43.394531 L 170.574219 65.617188 C 170.574219 100.015625 153.8125 132.472656 124.167969 152.050781 Z M 109.523438 163.164062 " fill-opacity="1" fill-rule="nonzero"/><path fill="#ffffff" d="M 104.933594 110.246094 C 104.933594 110.246094 104.054688 110.246094 104.933594 110.246094 C 102.113281 110.246094 100.347656 109.363281 98.40625 107.421875 L 77.054688 86.960938 C 74.234375 84.140625 74.234375 78.671875 77.054688 75.847656 C 79.878906 73.027344 85.347656 73.027344 88.171875 75.847656 L 103.875 89.785156 L 130.875 63.855469 C 133.695312 61.03125 139.167969 61.03125 141.988281 63.855469 C 144.8125 66.675781 144.8125 72.144531 141.988281 74.96875 L 109.523438 108.304688 C 108.640625 109.363281 106.699219 110.246094 104.933594 110.246094 Z M 104.933594 110.246094 " fill-opacity="1" fill-rule="nonzero"/></svg>