<svg xmlns="http://www.w3.org/2000/svg" xmlns:xlink="http://www.w3.org/1999/xlink" width="232" zoomAndPan="magnify" viewBox="0 0 174 173.999997" height="232" preserveAspectRatio="xMidYMid meet" version="1.0"><defs><clipPath id="b194b59911"><path d="M 15.769531 0 L 158.269531 0 L 158.269531 174 L 15.769531 174 Z M 15.769531 0 " clip-rule="nonzero"/></clipPath></defs><path fill="#00ec6a" d="M 87.789062 163.234375 L 71.023438 152.117188 C 42.261719 132.53125 24.613281 100.058594 24.613281 65.648438 L 24.613281 43.410156 C 44.203125 40.589844 62.730469 32.292969 78.4375 19.234375 L 86.730469 11.824219 L 95.023438 19.234375 C 109.847656 32.292969 128.378906 40.589844 147.964844 43.410156 L 148.847656 43.410156 L 148.847656 65.648438 C 148.847656 100.058594 132.082031 132.53125 102.4375 152.117188 Z M 87.789062 163.234375 " fill-opacity="1" fill-rule="nonzero"/><g clip-path="url(#b194b59911)"><path fill="#14c962" d="M 66.261719 159.351562 C 34.671875 138 15.964844 102.882812 15.964844 65.648438 L 15.964844 35.648438 L 23.378906 34.589844 C 41.203125 32.117188 58.140625 24.351562 72.789062 12.53125 L 86.90625 0 L 101.203125 12.707031 C 114.613281 24.351562 131.023438 31.941406 148.847656 34.589844 L 158.023438 34.589844 L 158.023438 65.648438 C 158.023438 103.589844 139.320312 138.53125 107.90625 159.175781 L 88.140625 174 Z M 66.261719 159.351562 " fill-opacity="1" fill-rule="nonzero"/></g><path fill="#00ec6a" d="M 87.789062 163.234375 L 71.023438 152.117188 C 42.261719 132.53125 24.613281 100.058594 24.613281 65.648438 L 24.613281 43.410156 C 44.203125 40.589844 62.730469 32.292969 78.4375 19.234375 L 86.730469 11.824219 L 95.023438 19.234375 C 109.847656 32.292969 128.378906 40.589844 147.964844 43.410156 L 148.847656 43.410156 L 148.847656 65.648438 C 148.847656 100.058594 132.082031 132.53125 102.4375 152.117188 Z M 87.789062 163.234375 " fill-opacity="1" fill-rule="nonzero"/><path fill="#000000" d="M 83.203125 110.292969 C 83.203125 110.292969 82.320312 110.292969 83.203125 110.292969 C 80.378906 110.292969 78.613281 109.410156 76.671875 107.46875 L 55.320312 87 C 52.496094 84.175781 52.496094 78.707031 55.320312 75.882812 C 58.140625 73.058594 63.613281 73.058594 66.4375 75.882812 L 82.140625 89.824219 L 109.140625 63.882812 C 111.964844 61.058594 117.4375 61.058594 120.261719 63.882812 C 123.082031 66.707031 123.082031 72.175781 120.261719 75 L 87.789062 108.351562 C 86.90625 109.410156 84.964844 110.292969 83.203125 110.292969 Z M 83.203125 110.292969 " fill-opacity="1" fill-rule="nonzero"/></svg>