<svg xmlns="http://www.w3.org/2000/svg" xmlns:xlink="http://www.w3.org/1999/xlink" width="163" zoomAndPan="magnify" viewBox="0 0 122.25 174" height="232" preserveAspectRatio="xMidYMid meet" version="1.0"><defs><clipPath id="47735d8754"><path d="M 0 0.53125 L 121.503906 0.53125 L 121.503906 173.46875 L 0 173.46875 Z M 0 0.53125 " clip-rule="nonzero"/></clipPath></defs><g clip-path="url(#47735d8754)"><path fill="#000000" d="M 121.5 77.78125 L 121.5 84.042969 C 121.5 115.453125 97.5 141.367188 66.847656 144.410156 L 66.847656 161.152344 L 91.613281 161.152344 C 95.003906 161.152344 97.777344 163.921875 97.777344 167.3125 C 97.777344 170.703125 95.003906 173.46875 91.613281 173.46875 L 29.894531 173.46875 C 26.5 173.46875 23.726562 170.703125 23.726562 167.3125 C 23.726562 163.921875 26.5 161.152344 29.894531 161.152344 L 54.484375 161.152344 L 54.484375 144.375 C 23.9375 141.261719 0.00390625 115.386719 0.00390625 84.042969 L 0.00390625 77.78125 C 0.00390625 74.390625 2.773438 71.621094 6.167969 71.621094 C 9.5625 71.621094 12.332031 74.390625 12.332031 77.78125 L 12.332031 84.042969 C 12.332031 110.714844 34.050781 132.40625 60.753906 132.40625 C 87.457031 132.40625 109.171875 110.714844 109.171875 84.042969 L 109.171875 77.78125 C 109.171875 74.390625 111.941406 71.621094 115.335938 71.621094 C 118.730469 71.621094 121.5 74.355469 121.5 77.78125 Z M 60.753906 120.089844 C 80.078125 120.089844 95.769531 104.417969 95.769531 85.113281 L 95.769531 35.503906 C 95.769531 16.203125 80.078125 0.53125 60.753906 0.53125 C 41.425781 0.53125 25.738281 16.203125 25.738281 35.503906 L 25.738281 85.113281 C 25.738281 104.417969 41.425781 120.089844 60.753906 120.089844 Z M 60.753906 120.089844 " fill-opacity="1" fill-rule="nonzero"/></g></svg>