<svg xmlns="http://www.w3.org/2000/svg" xmlns:xlink="http://www.w3.org/1999/xlink" width="290" zoomAndPan="magnify" viewBox="0 0 217.92 181.92" height="232" preserveAspectRatio="xMidYMid meet" version="1.0"><defs><clipPath id="6dab109e00"><path d="M 38 1.722656 L 179 1.722656 L 179 171.898438 L 38 171.898438 Z M 38 1.722656 " clip-rule="nonzero"/></clipPath></defs><g clip-path="url(#6dab109e00)"><path fill="#14c962" d="M 169.179688 154.058594 C 167.210938 152.984375 163.933594 151.199219 163.558594 150.28125 C 169.789062 128.960938 171.398438 79.128906 157.222656 66.753906 C 150.851562 61.1875 142.402344 56.46875 134.949219 52.300781 C 132.59375 50.988281 130.328125 49.71875 128.292969 48.515625 C 129.851562 46.902344 130.234375 44.386719 129.0625 42.34375 C 128.042969 40.570312 126.621094 39.003906 124.824219 37.660156 C 131.761719 34.183594 143.328125 31.230469 150.722656 31.230469 C 150.734375 31.230469 150.75 31.230469 150.765625 31.230469 L 153.257812 31.230469 L 152.546875 28.84375 C 149.566406 18.796875 143.644531 13.378906 134.441406 12.273438 C 131.183594 11.886719 128.160156 13.125 125.492188 14.214844 C 121.980469 15.65625 121.042969 15.789062 120.488281 14.921875 C 116.511719 8.730469 111.582031 2.351562 105.207031 2.011719 C 100.09375 1.738281 94.769531 5.269531 88.445312 13.125 C 86.933594 15 85.601562 15.980469 84.488281 16.035156 C 82.949219 16.117188 81.238281 14.375 79.433594 12.535156 C 76.539062 9.59375 72.574219 5.5625 66.851562 7.898438 C 57.25 11.8125 56 20.347656 54.992188 27.207031 C 54.933594 27.628906 54.871094 28.046875 54.808594 28.457031 L 54.492188 30.550781 L 56.609375 30.59375 C 65.484375 30.769531 79.4375 34.265625 86.808594 37.953125 C 85.332031 39.105469 84.160156 40.414062 83.304688 41.871094 C 82.609375 43.0625 82.414062 44.453125 82.761719 45.792969 C 83.082031 47.023438 83.832031 48.066406 84.875 48.769531 C 82.253906 50.667969 78.988281 52.757812 75.335938 55.09375 C 71.515625 57.539062 67.1875 60.3125 62.550781 63.519531 C 52.230469 70.667969 46.214844 84.613281 44.683594 104.964844 C 43.160156 125.1875 46.683594 144.910156 47.800781 150.472656 C 48.101562 151.976562 45.261719 154.941406 43.1875 157.101562 C 41.621094 158.738281 40.140625 160.277344 39.199219 161.789062 C 37.324219 164.800781 38.4375 166.6875 39.269531 167.546875 C 42.65625 171.050781 46.832031 172.179688 51.167969 172.179688 C 55.574219 172.179688 60.140625 171.011719 64.207031 169.96875 C 67.785156 169.054688 71.167969 168.1875 73.429688 168.40625 C 84.269531 169.445312 97.273438 169.246094 106.109375 169.003906 C 117.351562 168.699219 134.230469 166.855469 142.234375 165.769531 C 144.308594 165.488281 148.476562 166.5625 152.890625 167.699219 C 157.585938 168.910156 162.902344 170.277344 167.394531 170.449219 C 173.140625 170.667969 176.789062 168.824219 178.234375 164.972656 C 180.089844 160.003906 174.039062 156.710938 169.179688 154.058594 Z M 169.179688 154.058594 " fill-opacity="1" fill-rule="evenodd"/><path fill="#000000" d="M 169.179688 154.058594 C 167.210938 152.984375 163.933594 151.199219 163.558594 150.28125 C 169.789062 128.960938 171.398438 79.128906 157.222656 66.753906 C 150.851562 61.1875 142.402344 56.46875 134.949219 52.300781 C 132.59375 50.988281 130.328125 49.71875 128.292969 48.515625 C 129.851562 46.902344 130.234375 44.386719 129.0625 42.347656 C 128.042969 40.570312 126.621094 39.003906 124.824219 37.660156 C 131.761719 34.183594 143.328125 31.230469 150.722656 31.230469 C 150.734375 31.230469 150.75 31.230469 150.765625 31.230469 L 153.257812 31.230469 L 152.546875 28.84375 C 149.566406 18.796875 143.644531 13.378906 134.441406 12.273438 C 131.183594 11.886719 128.160156 13.125 125.492188 14.214844 C 121.980469 15.65625 121.046875 15.789062 120.488281 14.921875 C 116.511719 8.730469 111.582031 2.351562 105.207031 2.011719 C 100.09375 1.738281 94.769531 5.269531 88.445312 13.125 C 86.933594 15 85.601562 15.980469 84.488281 16.035156 C 82.949219 16.117188 81.238281 14.375 79.433594 12.535156 C 76.539062 9.59375 72.574219 5.5625 66.851562 7.898438 C 57.25 11.8125 56 20.347656 54.992188 27.207031 C 54.933594 27.628906 54.871094 28.046875 54.808594 28.457031 L 54.492188 30.550781 L 56.609375 30.59375 C 65.484375 30.769531 79.4375 34.265625 86.808594 37.953125 C 85.332031 39.105469 84.160156 40.414062 83.304688 41.871094 C 82.609375 43.0625 82.414062 44.453125 82.761719 45.792969 C 83.082031 47.023438 83.832031 48.066406 84.875 48.769531 C 82.253906 50.667969 78.988281 52.757812 75.335938 55.09375 C 71.515625 57.539062 67.1875 60.3125 62.550781 63.519531 C 52.230469 70.667969 46.214844 84.613281 44.683594 104.964844 C 43.160156 125.1875 46.683594 144.910156 47.800781 150.472656 C 48.101562 151.976562 45.261719 154.941406 43.1875 157.101562 C 41.621094 158.738281 40.140625 160.277344 39.199219 161.789062 C 37.324219 164.800781 38.4375 166.6875 39.269531 167.546875 C 42.65625 171.050781 46.832031 172.179688 51.167969 172.179688 C 55.574219 172.179688 60.140625 171.011719 64.207031 169.96875 C 67.785156 169.054688 71.167969 168.1875 73.429688 168.40625 C 84.269531 169.445312 97.273438 169.246094 106.109375 169.003906 C 117.351562 168.699219 134.230469 166.855469 142.234375 165.769531 C 144.308594 165.488281 148.476562 166.5625 152.890625 167.699219 C 157.585938 168.910156 162.902344 170.277344 167.394531 170.449219 C 173.140625 170.667969 176.789062 168.824219 178.234375 164.972656 C 180.089844 160.003906 174.039062 156.710938 169.179688 154.058594 Z M 58.78125 26.976562 C 59.714844 20.6875 60.917969 14.332031 68.253906 11.339844 C 71.441406 10.039062 73.605469 11.910156 76.785156 15.144531 C 79.089844 17.484375 81.460938 19.90625 84.671875 19.746094 C 86.917969 19.632812 89.101562 18.230469 91.335938 15.457031 C 96.769531 8.707031 101.246094 5.515625 105.007812 5.722656 C 108.699219 5.917969 112.507812 9.378906 117.367188 16.933594 C 119.722656 20.59375 123.703125 18.964844 126.902344 17.652344 C 129.257812 16.683594 131.699219 15.683594 134 15.960938 C 138.859375 16.542969 144.746094 18.433594 148.214844 27.601562 C 139.515625 28.191406 127.609375 31.609375 121.105469 35.453125 C 119.929688 34.902344 118.667969 34.425781 117.335938 34.023438 C 117.335938 34.023438 117.339844 34.023438 117.339844 34.023438 C 118.402344 31.460938 123.601562 23.761719 126.039062 22.492188 C 122.707031 22.835938 116.097656 29.378906 115.234375 32.859375 C 115.152344 33.0625 115.089844 33.25 115.027344 33.421875 C 112.355469 32.832031 109.441406 32.515625 106.363281 32.5 C 104.078125 32.492188 99.070312 32.6875 94.042969 34.296875 C 93.085938 30.746094 86.132812 23.800781 82.179688 22.894531 C 85.011719 24.53125 90.355469 32.6875 91.335938 35.3125 C 91.042969 35.445312 90.746094 35.578125 90.453125 35.714844 C 83.148438 31.328125 68.296875 27.632812 58.78125 26.976562 Z M 86.507812 43.75 C 87.476562 42.09375 89.074219 40.660156 91.246094 39.484375 C 95.058594 37.414062 100.699219 36.183594 106.347656 36.21875 C 111.824219 36.242188 116.664062 37.28125 120.34375 39.21875 C 122.855469 40.542969 124.707031 42.214844 125.84375 44.195312 C 126.246094 44.890625 126.003906 45.785156 125.308594 46.1875 L 125.304688 46.1875 C 125.085938 46.3125 124.835938 46.378906 124.582031 46.378906 C 124.542969 46.378906 124.5 46.375 124.441406 46.371094 C 123.96875 46.328125 123.550781 46.058594 123.324219 45.667969 C 123.246094 45.527344 123.164062 45.394531 123.078125 45.269531 C 122.378906 44.207031 121.351562 43.246094 120.027344 42.417969 C 116.753906 40.355469 111.765625 39.160156 106.328125 39.136719 L 106.292969 39.136719 C 106.25 39.136719 106.207031 39.132812 106.164062 39.132812 C 99.949219 39.132812 94.128906 40.652344 90.976562 43.09375 C 90.128906 43.746094 89.472656 44.464844 89.023438 45.230469 C 88.828125 45.566406 88.507812 45.804688 88.132812 45.90625 C 87.757812 46.003906 87.367188 45.949219 87.027344 45.75 C 86.691406 45.554688 86.453125 45.238281 86.355469 44.859375 C 86.257812 44.480469 86.308594 44.089844 86.507812 43.75 Z M 174.753906 163.664062 C 172.757812 168.980469 162.253906 166.273438 153.8125 164.101562 C 148.828125 162.816406 144.523438 161.707031 141.726562 162.085938 C 133.804688 163.167969 117.101562 164.988281 106.007812 165.289062 C 97.265625 165.527344 84.417969 165.730469 73.78125 164.707031 C 70.871094 164.425781 67.1875 165.371094 63.28125 166.371094 C 55.773438 168.292969 47.265625 170.472656 41.933594 164.964844 C 41.890625 164.921875 41.878906 164.894531 41.878906 164.894531 C 41.875 164.886719 41.816406 164.453125 42.699219 163.234375 C 43.480469 162.160156 44.636719 160.949219 45.863281 159.671875 C 47.628906 157.828125 49.425781 155.953125 50.511719 154.042969 C 50.511719 154.042969 57.492188 143.222656 57.15625 134.859375 C 57.15625 134.859375 54.140625 142.03125 50.972656 147.316406 C 46.449219 122.722656 44.613281 80.453125 64.664062 66.574219 C 69.246094 63.402344 73.542969 60.648438 77.339844 58.222656 C 85.164062 53.214844 90.867188 49.566406 93.46875 45.867188 C 94.734375 44.960938 96.574219 44.214844 98.738281 43.691406 C 98.160156 48.113281 96.265625 53.984375 87.222656 57.671875 C 93.011719 57.523438 101.53125 50.910156 102.734375 43.019531 C 103.851562 42.90625 105 42.847656 106.164062 42.847656 L 106.203125 42.847656 C 106.246094 42.847656 106.28125 42.84375 106.324219 42.847656 C 106.855469 42.851562 107.386719 42.867188 107.910156 42.894531 C 107.648438 47.980469 112.808594 53.601562 115.996094 54.109375 C 113.066406 50.808594 110.84375 47.847656 111.484375 43.292969 C 114.105469 43.742188 116.410156 44.523438 118.058594 45.5625 C 118.9375 46.113281 119.585938 46.707031 119.988281 47.320312 L 120.019531 47.367188 C 120.046875 47.402344 120.066406 47.441406 120.097656 47.5 C 120.855469 48.8125 122.148438 49.722656 123.609375 50 C 126.316406 51.730469 129.628906 53.582031 133.140625 55.542969 C 140.4375 59.621094 148.707031 64.238281 154.785156 69.550781 C 160.222656 74.296875 163.699219 87.382812 164.320312 105.445312 C 164.828125 120.222656 163.28125 136.84375 160.449219 147.621094 C 157.359375 144.855469 152.734375 140.347656 150.1875 136.097656 C 150.1875 136.097656 155.0625 150.113281 162.949219 154.6875 C 162.949219 154.6875 162.949219 154.6875 162.949219 154.691406 C 164.242188 155.59375 165.808594 156.449219 167.410156 157.320312 C 170.8125 159.175781 175.480469 161.71875 174.753906 163.664062 Z M 174.753906 163.664062 " fill-opacity="1" fill-rule="evenodd"/></g><path fill="#000000" d="M 109.335938 102.84375 C 102.335938 102.007812 95.753906 101.007812 95.753906 95.511719 C 95.753906 89.679688 102.085938 87.679688 109 87.679688 C 114.75 87.679688 120.914062 90.425781 123.078125 94.011719 L 132.074219 89.84375 C 128.328125 82.183594 121.828125 79.515625 114.746094 78.433594 L 114.746094 71.183594 L 104.167969 71.183594 L 104.167969 78.433594 C 94.503906 79.601562 84.84375 84.597656 84.84375 95.511719 C 84.84375 109.339844 96.503906 111.421875 108.417969 112.753906 C 116.164062 113.671875 123.078125 115.671875 123.078125 121.167969 C 123.078125 127.667969 116.164062 130.246094 108.667969 130.246094 C 101.753906 130.246094 94.335938 126.832031 92.085938 121.5 L 82.257812 125.667969 C 86.175781 134.828125 94.839844 139.078125 104.167969 139.914062 L 104.167969 147.828125 L 114.746094 147.828125 L 114.746094 139.496094 C 125.078125 138.746094 134.492188 132.414062 134.492188 121.167969 C 134.492188 106.507812 121.5 104.339844 109.335938 102.84375 Z M 109.335938 102.84375 " fill-opacity="1" fill-rule="evenodd"/></svg>