<svg xmlns="http://www.w3.org/2000/svg" xmlns:xlink="http://www.w3.org/1999/xlink" width="167" zoomAndPan="magnify" viewBox="0 0 125.25 104.999996" height="140" preserveAspectRatio="xMidYMid meet" version="1.0"><defs><g/><clipPath id="53b4d596c7"><path d="M 0 0.3125 L 124.503906 0.3125 L 124.503906 104.6875 L 0 104.6875 Z M 0 0.3125 " clip-rule="nonzero"/></clipPath></defs><g clip-path="url(#53b4d596c7)"><path fill="#ffffff" d="M 0 0.3125 L 124.503906 0.3125 L 124.503906 104.6875 L 0 104.6875 Z M 0 0.3125 " fill-opacity="1" fill-rule="nonzero"/><path fill="#000000" d="M 0 0.3125 L 124.503906 0.3125 L 124.503906 104.6875 L 0 104.6875 Z M 0 0.3125 " fill-opacity="1" fill-rule="nonzero"/></g><g fill="#00ff0a" fill-opacity="1"><g transform="translate(4.972926, 13.314996)"><g><path d="M 2.296875 -1.1875 C 2.296875 -1.3125 2.25 -1.421875 2.15625 -1.515625 C 2.0625 -1.617188 1.945312 -1.671875 1.8125 -1.671875 L 1.25 -1.671875 L 1.25 -0.6875 L 1.8125 -0.6875 C 1.945312 -0.6875 2.0625 -0.734375 2.15625 -0.828125 C 2.25 -0.929688 2.296875 -1.050781 2.296875 -1.1875 Z M 2.03125 -2.875 C 2.03125 -3 1.984375 -3.109375 1.890625 -3.203125 C 1.796875 -3.296875 1.6875 -3.34375 1.5625 -3.34375 L 1.25 -3.34375 L 1.25 -2.40625 L 1.5625 -2.40625 C 1.6875 -2.40625 1.796875 -2.445312 1.890625 -2.53125 C 1.984375 -2.625 2.03125 -2.738281 2.03125 -2.875 Z M 3.21875 -1.15625 C 3.21875 -0.8125 3.109375 -0.53125 2.890625 -0.3125 C 2.679688 -0.101562 2.378906 0 1.984375 0 L 0.359375 0 L 0.359375 -4.03125 L 1.75 -4.03125 C 1.976562 -4.03125 2.175781 -3.984375 2.34375 -3.890625 C 2.507812 -3.804688 2.640625 -3.6875 2.734375 -3.53125 C 2.828125 -3.382812 2.875 -3.21875 2.875 -3.03125 C 2.875 -2.820312 2.832031 -2.644531 2.75 -2.5 C 2.664062 -2.351562 2.546875 -2.242188 2.390625 -2.171875 C 2.617188 -2.117188 2.8125 -2.003906 2.96875 -1.828125 C 3.132812 -1.648438 3.21875 -1.425781 3.21875 -1.15625 Z M 3.21875 -1.15625 "/></g></g></g><g fill="#00ff0a" fill-opacity="1"><g transform="translate(8.247712, 13.314996)"><g><path d="M 2.078125 -3.234375 L 2.078125 0 L 1.1875 0 L 1.1875 -3.234375 L 0.03125 -3.234375 L 0.03125 -4.03125 L 3.21875 -4.03125 L 3.21875 -3.234375 Z M 2.078125 -3.234375 "/></g></g></g><g fill="#00ff0a" fill-opacity="1"><g transform="translate(11.504669, 13.314996)"><g><path d="M 3.265625 -1.375 L 4.265625 -1.375 C 4.171875 -1.09375 4.023438 -0.84375 3.828125 -0.625 C 3.640625 -0.414062 3.410156 -0.25 3.140625 -0.125 C 2.878906 0 2.59375 0.0625 2.28125 0.0625 C 2 0.0625 1.734375 0.0078125 1.484375 -0.09375 C 1.234375 -0.207031 1.007812 -0.359375 0.8125 -0.546875 C 0.625 -0.742188 0.472656 -0.96875 0.359375 -1.21875 C 0.253906 -1.46875 0.203125 -1.734375 0.203125 -2.015625 C 0.203125 -2.304688 0.253906 -2.578125 0.359375 -2.828125 C 0.472656 -3.078125 0.625 -3.296875 0.8125 -3.484375 C 1.007812 -3.679688 1.234375 -3.832031 1.484375 -3.9375 C 1.734375 -4.039062 2 -4.09375 2.28125 -4.09375 C 2.59375 -4.09375 2.878906 -4.03125 3.140625 -3.90625 C 3.398438 -3.789062 3.628906 -3.625 3.828125 -3.40625 C 4.023438 -3.195312 4.164062 -2.953125 4.25 -2.671875 L 3.265625 -2.671875 C 3.179688 -2.859375 3.046875 -3.003906 2.859375 -3.109375 C 2.679688 -3.210938 2.488281 -3.265625 2.28125 -3.265625 C 2.0625 -3.265625 1.863281 -3.207031 1.6875 -3.09375 C 1.507812 -2.976562 1.367188 -2.828125 1.265625 -2.640625 C 1.160156 -2.453125 1.109375 -2.242188 1.109375 -2.015625 C 1.109375 -1.785156 1.160156 -1.578125 1.265625 -1.390625 C 1.367188 -1.203125 1.507812 -1.050781 1.6875 -0.9375 C 1.863281 -0.820312 2.0625 -0.765625 2.28125 -0.765625 C 2.488281 -0.765625 2.679688 -0.820312 2.859375 -0.9375 C 3.046875 -1.050781 3.179688 -1.195312 3.265625 -1.375 Z M 3.265625 -1.375 "/></g></g></g><g fill="#00ff0a" fill-opacity="1"><g transform="translate(15.920579, 13.314996)"><g><path d="M 0.03125 1.234375 L 2.296875 -4.453125 L 3.125 -4.453125 L 0.84375 1.234375 Z M 0.03125 1.234375 "/></g></g></g><g fill="#00ff0a" fill-opacity="1"><g transform="translate(18.999234, 13.314996)"><g><path d="M 2.71875 -4.03125 L 3.609375 -4.03125 L 3.609375 -1.578125 C 3.609375 -1.035156 3.457031 -0.625 3.15625 -0.34375 C 2.863281 -0.0703125 2.457031 0.0625 1.9375 0.0625 C 1.40625 0.0625 0.992188 -0.0703125 0.703125 -0.34375 C 0.410156 -0.625 0.265625 -1.035156 0.265625 -1.578125 L 0.265625 -4.03125 L 1.15625 -4.03125 L 1.15625 -1.703125 C 1.15625 -1.421875 1.207031 -1.203125 1.3125 -1.046875 C 1.425781 -0.898438 1.632812 -0.828125 1.9375 -0.828125 C 2.238281 -0.828125 2.441406 -0.898438 2.546875 -1.046875 C 2.660156 -1.203125 2.71875 -1.421875 2.71875 -1.703125 Z M 2.71875 -4.03125 "/></g></g></g><g fill="#00ff0a" fill-opacity="1"><g transform="translate(22.874298, 13.314996)"><g><path d="M 1.921875 -0.625 C 2.015625 -0.625 2.117188 -0.640625 2.234375 -0.671875 C 2.347656 -0.703125 2.441406 -0.75 2.515625 -0.8125 C 2.597656 -0.882812 2.640625 -0.984375 2.640625 -1.109375 C 2.640625 -1.210938 2.597656 -1.296875 2.515625 -1.359375 C 2.429688 -1.429688 2.316406 -1.488281 2.171875 -1.53125 C 2.035156 -1.582031 1.882812 -1.625 1.71875 -1.65625 C 1.5625 -1.695312 1.398438 -1.742188 1.234375 -1.796875 C 1.066406 -1.847656 0.910156 -1.914062 0.765625 -2 C 0.628906 -2.09375 0.519531 -2.207031 0.4375 -2.34375 C 0.351562 -2.476562 0.3125 -2.65625 0.3125 -2.875 C 0.3125 -3.082031 0.351562 -3.257812 0.4375 -3.40625 C 0.519531 -3.5625 0.632812 -3.691406 0.78125 -3.796875 C 0.925781 -3.898438 1.085938 -3.972656 1.265625 -4.015625 C 1.453125 -4.066406 1.632812 -4.09375 1.8125 -4.09375 C 2.09375 -4.09375 2.351562 -4.046875 2.59375 -3.953125 C 2.832031 -3.867188 3.03125 -3.734375 3.1875 -3.546875 C 3.34375 -3.359375 3.421875 -3.113281 3.421875 -2.8125 L 2.5625 -2.8125 C 2.539062 -3.019531 2.46875 -3.160156 2.34375 -3.234375 C 2.21875 -3.316406 2.046875 -3.359375 1.828125 -3.359375 C 1.742188 -3.359375 1.65625 -3.34375 1.5625 -3.3125 C 1.46875 -3.289062 1.390625 -3.25 1.328125 -3.1875 C 1.265625 -3.125 1.234375 -3.039062 1.234375 -2.9375 C 1.234375 -2.84375 1.273438 -2.765625 1.359375 -2.703125 C 1.441406 -2.640625 1.550781 -2.585938 1.6875 -2.546875 C 1.832031 -2.515625 1.988281 -2.476562 2.15625 -2.4375 C 2.320312 -2.40625 2.484375 -2.363281 2.640625 -2.3125 C 2.804688 -2.257812 2.957031 -2.1875 3.09375 -2.09375 C 3.238281 -2.007812 3.351562 -1.894531 3.4375 -1.75 C 3.519531 -1.601562 3.5625 -1.421875 3.5625 -1.203125 C 3.5625 -0.960938 3.515625 -0.757812 3.421875 -0.59375 C 3.328125 -0.425781 3.195312 -0.289062 3.03125 -0.1875 C 2.875 -0.09375 2.695312 -0.0234375 2.5 0.015625 C 2.300781 0.0664062 2.097656 0.09375 1.890625 0.09375 C 1.585938 0.09375 1.304688 0.046875 1.046875 -0.046875 C 0.796875 -0.148438 0.585938 -0.304688 0.421875 -0.515625 C 0.265625 -0.734375 0.179688 -1.003906 0.171875 -1.328125 L 1.078125 -1.328125 C 1.085938 -1.085938 1.175781 -0.910156 1.34375 -0.796875 C 1.507812 -0.679688 1.703125 -0.625 1.921875 -0.625 Z M 1.921875 -0.625 "/></g></g></g><g fill="#00ff0a" fill-opacity="1"><g transform="translate(26.618608, 13.314996)"><g><path d="M 1.234375 -0.8125 L 1.5 -0.8125 C 1.726562 -0.8125 1.925781 -0.863281 2.09375 -0.96875 C 2.269531 -1.082031 2.40625 -1.226562 2.5 -1.40625 C 2.601562 -1.59375 2.65625 -1.796875 2.65625 -2.015625 C 2.65625 -2.242188 2.601562 -2.445312 2.5 -2.625 C 2.40625 -2.800781 2.269531 -2.941406 2.09375 -3.046875 C 1.925781 -3.160156 1.726562 -3.21875 1.5 -3.21875 L 1.234375 -3.21875 Z M 0.359375 -4.03125 L 1.5625 -4.03125 C 1.84375 -4.03125 2.101562 -3.976562 2.34375 -3.875 C 2.59375 -3.78125 2.804688 -3.640625 2.984375 -3.453125 C 3.171875 -3.273438 3.3125 -3.0625 3.40625 -2.8125 C 3.507812 -2.570312 3.5625 -2.304688 3.5625 -2.015625 C 3.5625 -1.734375 3.507812 -1.46875 3.40625 -1.21875 C 3.3125 -0.976562 3.171875 -0.765625 2.984375 -0.578125 C 2.804688 -0.398438 2.59375 -0.257812 2.34375 -0.15625 C 2.101562 -0.0507812 1.84375 0 1.5625 0 L 0.359375 0 Z M 0.359375 -4.03125 "/></g></g></g><g fill="#00ff0a" fill-opacity="1"><g transform="translate(30.392636, 13.314996)"><g><path d="M 2.078125 -3.234375 L 2.078125 0 L 1.1875 0 L 1.1875 -3.234375 L 0.03125 -3.234375 L 0.03125 -4.03125 L 3.21875 -4.03125 L 3.21875 -3.234375 Z M 2.078125 -3.234375 "/></g></g></g><g fill="#00ff0a" fill-opacity="1"><g transform="translate(4.972926, 21.512695)"><g><path d="M 1.25 -1.4375 L 1.25 0 L 0.359375 0 L 0.359375 -4.03125 L 1.875 -4.03125 C 2.09375 -4.03125 2.296875 -3.976562 2.484375 -3.875 C 2.671875 -3.769531 2.820312 -3.617188 2.9375 -3.421875 C 3.050781 -3.222656 3.109375 -3 3.109375 -2.75 C 3.109375 -2.46875 3.050781 -2.226562 2.9375 -2.03125 C 2.820312 -1.84375 2.671875 -1.695312 2.484375 -1.59375 C 2.296875 -1.488281 2.09375 -1.4375 1.875 -1.4375 Z M 1.71875 -3.34375 L 1.25 -3.34375 L 1.25 -2.140625 L 1.71875 -2.140625 C 1.851562 -2.140625 1.972656 -2.191406 2.078125 -2.296875 C 2.191406 -2.398438 2.25 -2.550781 2.25 -2.75 C 2.25 -2.925781 2.191406 -3.066406 2.078125 -3.171875 C 1.972656 -3.285156 1.851562 -3.34375 1.71875 -3.34375 Z M 1.71875 -3.34375 "/></g></g></g><g fill="#00ff0a" fill-opacity="1"><g transform="translate(8.170448, 21.512695)"><g><path d="M 1.703125 -0.625 C 1.859375 -0.625 1.976562 -0.65625 2.0625 -0.71875 C 2.15625 -0.78125 2.21875 -0.863281 2.25 -0.96875 C 2.289062 -1.082031 2.3125 -1.191406 2.3125 -1.296875 C 2.3125 -1.410156 2.289062 -1.519531 2.25 -1.625 C 2.21875 -1.726562 2.15625 -1.8125 2.0625 -1.875 C 1.976562 -1.945312 1.859375 -1.984375 1.703125 -1.984375 C 1.546875 -1.984375 1.421875 -1.945312 1.328125 -1.875 C 1.242188 -1.8125 1.179688 -1.726562 1.140625 -1.625 C 1.109375 -1.519531 1.09375 -1.410156 1.09375 -1.296875 C 1.09375 -1.191406 1.109375 -1.082031 1.140625 -0.96875 C 1.179688 -0.863281 1.242188 -0.78125 1.328125 -0.71875 C 1.421875 -0.65625 1.546875 -0.625 1.703125 -0.625 Z M 1.703125 -2.671875 C 1.972656 -2.671875 2.222656 -2.613281 2.453125 -2.5 C 2.679688 -2.382812 2.859375 -2.222656 2.984375 -2.015625 C 3.117188 -1.816406 3.1875 -1.582031 3.1875 -1.3125 C 3.1875 -1.03125 3.117188 -0.785156 2.984375 -0.578125 C 2.859375 -0.378906 2.679688 -0.222656 2.453125 -0.109375 C 2.234375 -0.00390625 1.984375 0.046875 1.703125 0.046875 C 1.421875 0.046875 1.164062 -0.00390625 0.9375 -0.109375 C 0.71875 -0.222656 0.539062 -0.378906 0.40625 -0.578125 C 0.269531 -0.785156 0.203125 -1.03125 0.203125 -1.3125 C 0.203125 -1.582031 0.269531 -1.816406 0.40625 -2.015625 C 0.539062 -2.222656 0.722656 -2.382812 0.953125 -2.5 C 1.179688 -2.613281 1.429688 -2.671875 1.703125 -2.671875 Z M 1.703125 -2.671875 "/></g></g></g><g fill="#00ff0a" fill-opacity="1"><g transform="translate(11.575988, 21.512695)"><g><path d="M 2.78125 -1.828125 L 1.90625 -1.828125 C 1.882812 -1.941406 1.828125 -2.019531 1.734375 -2.0625 C 1.648438 -2.101562 1.566406 -2.125 1.484375 -2.125 C 1.398438 -2.125 1.316406 -2.101562 1.234375 -2.0625 C 1.160156 -2.019531 1.125 -1.957031 1.125 -1.875 C 1.125 -1.820312 1.164062 -1.78125 1.25 -1.75 C 1.332031 -1.71875 1.4375 -1.691406 1.5625 -1.671875 C 1.6875 -1.660156 1.820312 -1.640625 1.96875 -1.609375 C 2.113281 -1.578125 2.25 -1.53125 2.375 -1.46875 C 2.507812 -1.414062 2.617188 -1.332031 2.703125 -1.21875 C 2.785156 -1.113281 2.828125 -0.96875 2.828125 -0.78125 C 2.828125 -0.570312 2.769531 -0.40625 2.65625 -0.28125 C 2.550781 -0.164062 2.398438 -0.078125 2.203125 -0.015625 C 2.003906 0.0351562 1.78125 0.0625 1.53125 0.0625 C 1.269531 0.0625 1.035156 0.0234375 0.828125 -0.046875 C 0.617188 -0.117188 0.453125 -0.226562 0.328125 -0.375 C 0.203125 -0.53125 0.132812 -0.726562 0.125 -0.96875 L 1 -0.96875 C 1 -0.84375 1.03125 -0.75 1.09375 -0.6875 C 1.15625 -0.632812 1.226562 -0.597656 1.3125 -0.578125 C 1.40625 -0.566406 1.484375 -0.5625 1.546875 -0.5625 C 1.648438 -0.5625 1.738281 -0.578125 1.8125 -0.609375 C 1.882812 -0.648438 1.921875 -0.707031 1.921875 -0.78125 C 1.921875 -0.875 1.878906 -0.941406 1.796875 -0.984375 C 1.722656 -1.035156 1.617188 -1.070312 1.484375 -1.09375 C 1.359375 -1.113281 1.222656 -1.132812 1.078125 -1.15625 C 0.929688 -1.1875 0.789062 -1.222656 0.65625 -1.265625 C 0.53125 -1.316406 0.425781 -1.382812 0.34375 -1.46875 C 0.269531 -1.5625 0.234375 -1.6875 0.234375 -1.84375 C 0.234375 -2.113281 0.335938 -2.316406 0.546875 -2.453125 C 0.753906 -2.597656 1.078125 -2.671875 1.515625 -2.671875 C 1.859375 -2.671875 2.144531 -2.601562 2.375 -2.46875 C 2.601562 -2.34375 2.738281 -2.128906 2.78125 -1.828125 Z M 2.78125 -1.828125 "/></g></g></g><g fill="#00ff0a" fill-opacity="1"><g transform="translate(14.57738, 21.512695)"><g><path d="M 0.3125 -3.515625 C 0.3125 -3.660156 0.359375 -3.78125 0.453125 -3.875 C 0.554688 -3.976562 0.679688 -4.03125 0.828125 -4.03125 C 0.972656 -4.03125 1.097656 -3.976562 1.203125 -3.875 C 1.304688 -3.78125 1.359375 -3.660156 1.359375 -3.515625 C 1.359375 -3.367188 1.304688 -3.242188 1.203125 -3.140625 C 1.097656 -3.046875 0.972656 -3 0.828125 -3 C 0.679688 -3 0.554688 -3.046875 0.453125 -3.140625 C 0.359375 -3.242188 0.3125 -3.367188 0.3125 -3.515625 Z M 1.28125 0 L 0.390625 0 L 0.390625 -2.625 L 1.28125 -2.625 Z M 1.28125 0 "/></g></g></g><g fill="#00ff0a" fill-opacity="1"><g transform="translate(16.241519, 21.512695)"><g><path d="M 1.484375 -1.9375 L 1.484375 0 L 0.59375 0 L 0.59375 -1.9375 L 0.125 -1.9375 L 0.125 -2.625 L 0.59375 -2.625 L 0.59375 -3.609375 L 1.484375 -3.609375 L 1.484375 -2.625 L 1.953125 -2.625 L 1.953125 -1.9375 Z M 1.484375 -1.9375 "/></g></g></g><g fill="#00ff0a" fill-opacity="1"><g transform="translate(18.315749, 21.512695)"><g><path d="M 0.3125 -3.515625 C 0.3125 -3.660156 0.359375 -3.78125 0.453125 -3.875 C 0.554688 -3.976562 0.679688 -4.03125 0.828125 -4.03125 C 0.972656 -4.03125 1.097656 -3.976562 1.203125 -3.875 C 1.304688 -3.78125 1.359375 -3.660156 1.359375 -3.515625 C 1.359375 -3.367188 1.304688 -3.242188 1.203125 -3.140625 C 1.097656 -3.046875 0.972656 -3 0.828125 -3 C 0.679688 -3 0.554688 -3.046875 0.453125 -3.140625 C 0.359375 -3.242188 0.3125 -3.367188 0.3125 -3.515625 Z M 1.28125 0 L 0.390625 0 L 0.390625 -2.625 L 1.28125 -2.625 Z M 1.28125 0 "/></g></g></g><g fill="#00ff0a" fill-opacity="1"><g transform="translate(19.979888, 21.512695)"><g><path d="M 1.703125 -0.625 C 1.859375 -0.625 1.976562 -0.65625 2.0625 -0.71875 C 2.15625 -0.78125 2.21875 -0.863281 2.25 -0.96875 C 2.289062 -1.082031 2.3125 -1.191406 2.3125 -1.296875 C 2.3125 -1.410156 2.289062 -1.519531 2.25 -1.625 C 2.21875 -1.726562 2.15625 -1.8125 2.0625 -1.875 C 1.976562 -1.945312 1.859375 -1.984375 1.703125 -1.984375 C 1.546875 -1.984375 1.421875 -1.945312 1.328125 -1.875 C 1.242188 -1.8125 1.179688 -1.726562 1.140625 -1.625 C 1.109375 -1.519531 1.09375 -1.410156 1.09375 -1.296875 C 1.09375 -1.191406 1.109375 -1.082031 1.140625 -0.96875 C 1.179688 -0.863281 1.242188 -0.78125 1.328125 -0.71875 C 1.421875 -0.65625 1.546875 -0.625 1.703125 -0.625 Z M 1.703125 -2.671875 C 1.972656 -2.671875 2.222656 -2.613281 2.453125 -2.5 C 2.679688 -2.382812 2.859375 -2.222656 2.984375 -2.015625 C 3.117188 -1.816406 3.1875 -1.582031 3.1875 -1.3125 C 3.1875 -1.03125 3.117188 -0.785156 2.984375 -0.578125 C 2.859375 -0.378906 2.679688 -0.222656 2.453125 -0.109375 C 2.234375 -0.00390625 1.984375 0.046875 1.703125 0.046875 C 1.421875 0.046875 1.164062 -0.00390625 0.9375 -0.109375 C 0.71875 -0.222656 0.539062 -0.378906 0.40625 -0.578125 C 0.269531 -0.785156 0.203125 -1.03125 0.203125 -1.3125 C 0.203125 -1.582031 0.269531 -1.816406 0.40625 -2.015625 C 0.539062 -2.222656 0.722656 -2.382812 0.953125 -2.5 C 1.179688 -2.613281 1.429688 -2.671875 1.703125 -2.671875 Z M 1.703125 -2.671875 "/></g></g></g><g fill="#00ff0a" fill-opacity="1"><g transform="translate(23.385428, 21.512695)"><g><path d="M 3.03125 -1.484375 L 3.03125 0 L 2.140625 0 L 2.140625 -1.484375 C 2.140625 -1.640625 2.109375 -1.753906 2.046875 -1.828125 C 1.984375 -1.910156 1.882812 -1.953125 1.75 -1.953125 C 1.601562 -1.953125 1.484375 -1.890625 1.390625 -1.765625 C 1.296875 -1.640625 1.25 -1.488281 1.25 -1.3125 L 1.25 0 L 0.359375 0 L 0.359375 -2.625 L 1.25 -2.625 L 1.25 -2.296875 C 1.34375 -2.410156 1.457031 -2.5 1.59375 -2.5625 C 1.726562 -2.632812 1.878906 -2.671875 2.046875 -2.671875 C 2.398438 -2.671875 2.648438 -2.5625 2.796875 -2.34375 C 2.953125 -2.125 3.03125 -1.835938 3.03125 -1.484375 Z M 3.03125 -1.484375 "/></g></g></g><g fill="#00ff0a" fill-opacity="1"><g transform="translate(4.972926, 29.710394)"><g><path d="M 2.703125 -0.8125 L 2.703125 0 L 0.359375 0 L 0.359375 -4.03125 L 2.703125 -4.03125 L 2.703125 -3.234375 L 1.25 -3.234375 L 1.25 -2.421875 L 2.640625 -2.421875 L 2.640625 -1.625 L 1.25 -1.625 L 1.25 -0.8125 Z M 2.703125 -0.8125 "/></g></g></g><g fill="#00ff0a" fill-opacity="1"><g transform="translate(8.027807, 29.710394)"><g><path d="M 3.03125 -1.484375 L 3.03125 0 L 2.140625 0 L 2.140625 -1.484375 C 2.140625 -1.640625 2.109375 -1.753906 2.046875 -1.828125 C 1.984375 -1.910156 1.882812 -1.953125 1.75 -1.953125 C 1.601562 -1.953125 1.484375 -1.890625 1.390625 -1.765625 C 1.296875 -1.640625 1.25 -1.488281 1.25 -1.3125 L 1.25 0 L 0.359375 0 L 0.359375 -2.625 L 1.25 -2.625 L 1.25 -2.296875 C 1.34375 -2.410156 1.457031 -2.5 1.59375 -2.5625 C 1.726562 -2.632812 1.878906 -2.671875 2.046875 -2.671875 C 2.398438 -2.671875 2.648438 -2.5625 2.796875 -2.34375 C 2.953125 -2.125 3.03125 -1.835938 3.03125 -1.484375 Z M 3.03125 -1.484375 "/></g></g></g><g fill="#00ff0a" fill-opacity="1"><g transform="translate(11.332309, 29.710394)"><g><path d="M 1.484375 -1.9375 L 1.484375 0 L 0.59375 0 L 0.59375 -1.9375 L 0.125 -1.9375 L 0.125 -2.625 L 0.59375 -2.625 L 0.59375 -3.609375 L 1.484375 -3.609375 L 1.484375 -2.625 L 1.953125 -2.625 L 1.953125 -1.9375 Z M 1.484375 -1.9375 "/></g></g></g><g fill="#00ff0a" fill-opacity="1"><g transform="translate(13.406538, 29.710394)"><g><path d="M 1.828125 -1.953125 C 1.722656 -1.953125 1.625 -1.921875 1.53125 -1.859375 C 1.445312 -1.796875 1.378906 -1.710938 1.328125 -1.609375 C 1.273438 -1.515625 1.25 -1.414062 1.25 -1.3125 L 1.25 0 L 0.359375 0 L 0.359375 -2.625 L 1.25 -2.625 L 1.25 -2.296875 C 1.3125 -2.398438 1.398438 -2.488281 1.515625 -2.5625 C 1.628906 -2.632812 1.769531 -2.671875 1.9375 -2.671875 C 1.976562 -2.671875 2.023438 -2.664062 2.078125 -2.65625 C 2.128906 -2.644531 2.171875 -2.632812 2.203125 -2.625 L 2.203125 -1.8125 L 2.1875 -1.8125 C 2.144531 -1.863281 2.09375 -1.898438 2.03125 -1.921875 C 1.96875 -1.941406 1.898438 -1.953125 1.828125 -1.953125 Z M 1.828125 -1.953125 "/></g></g></g><g fill="#00ff0a" fill-opacity="1"><g transform="translate(15.670955, 29.710394)"><g><path d="M 1.421875 1.484375 L 0.5 1.484375 L 1.09375 0 L 0.9375 0 L -0.0625 -2.625 L 0.84375 -2.625 L 1.453125 -0.75 L 2.078125 -2.625 L 2.984375 -2.625 L 1.984375 0 Z M 1.421875 1.484375 "/></g></g></g><g fill="#00ff0a" fill-opacity="1"><g transform="translate(18.601027, 29.710394)"><g/></g></g><g fill="#00ff0a" fill-opacity="1"><g transform="translate(20.086865, 29.710394)"><g><path d="M 1.25 -1.4375 L 1.25 0 L 0.359375 0 L 0.359375 -4.03125 L 1.875 -4.03125 C 2.09375 -4.03125 2.296875 -3.976562 2.484375 -3.875 C 2.671875 -3.769531 2.820312 -3.617188 2.9375 -3.421875 C 3.050781 -3.222656 3.109375 -3 3.109375 -2.75 C 3.109375 -2.46875 3.050781 -2.226562 2.9375 -2.03125 C 2.820312 -1.84375 2.671875 -1.695312 2.484375 -1.59375 C 2.296875 -1.488281 2.09375 -1.4375 1.875 -1.4375 Z M 1.71875 -3.34375 L 1.25 -3.34375 L 1.25 -2.140625 L 1.71875 -2.140625 C 1.851562 -2.140625 1.972656 -2.191406 2.078125 -2.296875 C 2.191406 -2.398438 2.25 -2.550781 2.25 -2.75 C 2.25 -2.925781 2.191406 -3.066406 2.078125 -3.171875 C 1.972656 -3.285156 1.851562 -3.34375 1.71875 -3.34375 Z M 1.71875 -3.34375 "/></g></g></g><g fill="#00ff0a" fill-opacity="1"><g transform="translate(23.284387, 29.710394)"><g><path d="M 1.828125 -1.953125 C 1.722656 -1.953125 1.625 -1.921875 1.53125 -1.859375 C 1.445312 -1.796875 1.378906 -1.710938 1.328125 -1.609375 C 1.273438 -1.515625 1.25 -1.414062 1.25 -1.3125 L 1.25 0 L 0.359375 0 L 0.359375 -2.625 L 1.25 -2.625 L 1.25 -2.296875 C 1.3125 -2.398438 1.398438 -2.488281 1.515625 -2.5625 C 1.628906 -2.632812 1.769531 -2.671875 1.9375 -2.671875 C 1.976562 -2.671875 2.023438 -2.664062 2.078125 -2.65625 C 2.128906 -2.644531 2.171875 -2.632812 2.203125 -2.625 L 2.203125 -1.8125 L 2.1875 -1.8125 C 2.144531 -1.863281 2.09375 -1.898438 2.03125 -1.921875 C 1.96875 -1.941406 1.898438 -1.953125 1.828125 -1.953125 Z M 1.828125 -1.953125 "/></g></g></g><g fill="#00ff0a" fill-opacity="1"><g transform="translate(25.548804, 29.710394)"><g><path d="M 0.3125 -3.515625 C 0.3125 -3.660156 0.359375 -3.78125 0.453125 -3.875 C 0.554688 -3.976562 0.679688 -4.03125 0.828125 -4.03125 C 0.972656 -4.03125 1.097656 -3.976562 1.203125 -3.875 C 1.304688 -3.78125 1.359375 -3.660156 1.359375 -3.515625 C 1.359375 -3.367188 1.304688 -3.242188 1.203125 -3.140625 C 1.097656 -3.046875 0.972656 -3 0.828125 -3 C 0.679688 -3 0.554688 -3.046875 0.453125 -3.140625 C 0.359375 -3.242188 0.3125 -3.367188 0.3125 -3.515625 Z M 1.28125 0 L 0.390625 0 L 0.390625 -2.625 L 1.28125 -2.625 Z M 1.28125 0 "/></g></g></g><g fill="#00ff0a" fill-opacity="1"><g transform="translate(27.212943, 29.710394)"><g><path d="M 1.6875 -1.984375 C 1.550781 -1.984375 1.445312 -1.945312 1.375 -1.875 C 1.300781 -1.800781 1.242188 -1.710938 1.203125 -1.609375 C 1.171875 -1.503906 1.15625 -1.398438 1.15625 -1.296875 C 1.15625 -1.203125 1.171875 -1.097656 1.203125 -0.984375 C 1.234375 -0.878906 1.285156 -0.789062 1.359375 -0.71875 C 1.441406 -0.65625 1.550781 -0.625 1.6875 -0.625 C 1.832031 -0.625 1.953125 -0.648438 2.046875 -0.703125 C 2.140625 -0.765625 2.191406 -0.851562 2.203125 -0.96875 L 3.078125 -0.96875 C 3.046875 -0.78125 2.96875 -0.609375 2.84375 -0.453125 C 2.726562 -0.296875 2.566406 -0.171875 2.359375 -0.078125 C 2.160156 0.015625 1.925781 0.0625 1.65625 0.0625 C 1.363281 0.0625 1.109375 0 0.890625 -0.125 C 0.671875 -0.25 0.5 -0.414062 0.375 -0.625 C 0.257812 -0.832031 0.203125 -1.0625 0.203125 -1.3125 C 0.203125 -1.5625 0.257812 -1.785156 0.375 -1.984375 C 0.5 -2.191406 0.671875 -2.359375 0.890625 -2.484375 C 1.117188 -2.609375 1.375 -2.671875 1.65625 -2.671875 C 1.945312 -2.671875 2.195312 -2.617188 2.40625 -2.515625 C 2.613281 -2.421875 2.773438 -2.289062 2.890625 -2.125 C 3.015625 -1.957031 3.082031 -1.769531 3.09375 -1.5625 L 2.203125 -1.5625 C 2.203125 -1.6875 2.15625 -1.785156 2.0625 -1.859375 C 1.96875 -1.941406 1.84375 -1.984375 1.6875 -1.984375 Z M 1.6875 -1.984375 "/></g></g></g><g fill="#00ff0a" fill-opacity="1"><g transform="translate(30.493674, 29.710394)"><g><path d="M 1.15625 -1.625 L 2.328125 -1.625 C 2.328125 -1.625 2.320312 -1.644531 2.3125 -1.6875 C 2.300781 -1.738281 2.273438 -1.796875 2.234375 -1.859375 C 2.203125 -1.921875 2.144531 -1.976562 2.0625 -2.03125 C 1.988281 -2.082031 1.882812 -2.109375 1.75 -2.109375 C 1.613281 -2.109375 1.503906 -2.082031 1.421875 -2.03125 C 1.347656 -1.976562 1.289062 -1.921875 1.25 -1.859375 C 1.207031 -1.796875 1.179688 -1.738281 1.171875 -1.6875 C 1.160156 -1.644531 1.15625 -1.625 1.15625 -1.625 Z M 3.1875 -1.359375 C 3.1875 -1.335938 3.1875 -1.3125 3.1875 -1.28125 C 3.1875 -1.25 3.1875 -1.222656 3.1875 -1.203125 L 1.15625 -1.203125 C 1.15625 -1.097656 1.175781 -1 1.21875 -0.90625 C 1.257812 -0.8125 1.320312 -0.734375 1.40625 -0.671875 C 1.5 -0.609375 1.601562 -0.578125 1.71875 -0.578125 C 1.875 -0.578125 2 -0.617188 2.09375 -0.703125 C 2.1875 -0.785156 2.234375 -0.875 2.234375 -0.96875 L 3.140625 -0.96875 C 3.066406 -0.625 2.898438 -0.363281 2.640625 -0.1875 C 2.378906 -0.0195312 2.078125 0.0625 1.734375 0.0625 C 1.429688 0.0625 1.164062 0.00390625 0.9375 -0.109375 C 0.707031 -0.222656 0.523438 -0.378906 0.390625 -0.578125 C 0.265625 -0.785156 0.203125 -1.03125 0.203125 -1.3125 C 0.203125 -1.582031 0.269531 -1.816406 0.40625 -2.015625 C 0.539062 -2.222656 0.722656 -2.382812 0.953125 -2.5 C 1.179688 -2.613281 1.441406 -2.671875 1.734375 -2.671875 C 1.992188 -2.671875 2.234375 -2.617188 2.453125 -2.515625 C 2.679688 -2.421875 2.859375 -2.273438 2.984375 -2.078125 C 3.117188 -1.878906 3.1875 -1.640625 3.1875 -1.359375 Z M 3.1875 -1.359375 "/></g></g></g><g fill="#00ff0a" fill-opacity="1"><g transform="translate(4.972926, 37.908093)"><g><path d="M 0.359375 0 L 0.359375 -4.03125 L 1.25 -4.03125 L 1.25 -0.8125 L 2.703125 -0.8125 L 2.703125 0 Z M 0.359375 0 "/></g></g></g><g fill="#00ff0a" fill-opacity="1"><g transform="translate(7.880547, 37.908093)"><g><path d="M 1.15625 -1.625 L 2.328125 -1.625 C 2.328125 -1.625 2.320312 -1.644531 2.3125 -1.6875 C 2.300781 -1.738281 2.273438 -1.796875 2.234375 -1.859375 C 2.203125 -1.921875 2.144531 -1.976562 2.0625 -2.03125 C 1.988281 -2.082031 1.882812 -2.109375 1.75 -2.109375 C 1.613281 -2.109375 1.503906 -2.082031 1.421875 -2.03125 C 1.347656 -1.976562 1.289062 -1.921875 1.25 -1.859375 C 1.207031 -1.796875 1.179688 -1.738281 1.171875 -1.6875 C 1.160156 -1.644531 1.15625 -1.625 1.15625 -1.625 Z M 3.1875 -1.359375 C 3.1875 -1.335938 3.1875 -1.3125 3.1875 -1.28125 C 3.1875 -1.25 3.1875 -1.222656 3.1875 -1.203125 L 1.15625 -1.203125 C 1.15625 -1.097656 1.175781 -1 1.21875 -0.90625 C 1.257812 -0.8125 1.320312 -0.734375 1.40625 -0.671875 C 1.5 -0.609375 1.601562 -0.578125 1.71875 -0.578125 C 1.875 -0.578125 2 -0.617188 2.09375 -0.703125 C 2.1875 -0.785156 2.234375 -0.875 2.234375 -0.96875 L 3.140625 -0.96875 C 3.066406 -0.625 2.898438 -0.363281 2.640625 -0.1875 C 2.378906 -0.0195312 2.078125 0.0625 1.734375 0.0625 C 1.429688 0.0625 1.164062 0.00390625 0.9375 -0.109375 C 0.707031 -0.222656 0.523438 -0.378906 0.390625 -0.578125 C 0.265625 -0.785156 0.203125 -1.03125 0.203125 -1.3125 C 0.203125 -1.582031 0.269531 -1.816406 0.40625 -2.015625 C 0.539062 -2.222656 0.722656 -2.382812 0.953125 -2.5 C 1.179688 -2.613281 1.441406 -2.671875 1.734375 -2.671875 C 1.992188 -2.671875 2.234375 -2.617188 2.453125 -2.515625 C 2.679688 -2.421875 2.859375 -2.273438 2.984375 -2.078125 C 3.117188 -1.878906 3.1875 -1.640625 3.1875 -1.359375 Z M 3.1875 -1.359375 "/></g></g></g><g fill="#00ff0a" fill-opacity="1"><g transform="translate(11.280143, 37.908093)"><g><path d="M 2.984375 -2.625 L 1.984375 0 L 0.9375 0 L -0.0625 -2.625 L 0.84375 -2.625 L 1.453125 -0.75 L 2.078125 -2.625 Z M 2.984375 -2.625 "/></g></g></g><g fill="#00ff0a" fill-opacity="1"><g transform="translate(14.210214, 37.908093)"><g><path d="M 1.15625 -1.625 L 2.328125 -1.625 C 2.328125 -1.625 2.320312 -1.644531 2.3125 -1.6875 C 2.300781 -1.738281 2.273438 -1.796875 2.234375 -1.859375 C 2.203125 -1.921875 2.144531 -1.976562 2.0625 -2.03125 C 1.988281 -2.082031 1.882812 -2.109375 1.75 -2.109375 C 1.613281 -2.109375 1.503906 -2.082031 1.421875 -2.03125 C 1.347656 -1.976562 1.289062 -1.921875 1.25 -1.859375 C 1.207031 -1.796875 1.179688 -1.738281 1.171875 -1.6875 C 1.160156 -1.644531 1.15625 -1.625 1.15625 -1.625 Z M 3.1875 -1.359375 C 3.1875 -1.335938 3.1875 -1.3125 3.1875 -1.28125 C 3.1875 -1.25 3.1875 -1.222656 3.1875 -1.203125 L 1.15625 -1.203125 C 1.15625 -1.097656 1.175781 -1 1.21875 -0.90625 C 1.257812 -0.8125 1.320312 -0.734375 1.40625 -0.671875 C 1.5 -0.609375 1.601562 -0.578125 1.71875 -0.578125 C 1.875 -0.578125 2 -0.617188 2.09375 -0.703125 C 2.1875 -0.785156 2.234375 -0.875 2.234375 -0.96875 L 3.140625 -0.96875 C 3.066406 -0.625 2.898438 -0.363281 2.640625 -0.1875 C 2.378906 -0.0195312 2.078125 0.0625 1.734375 0.0625 C 1.429688 0.0625 1.164062 0.00390625 0.9375 -0.109375 C 0.707031 -0.222656 0.523438 -0.378906 0.390625 -0.578125 C 0.265625 -0.785156 0.203125 -1.03125 0.203125 -1.3125 C 0.203125 -1.582031 0.269531 -1.816406 0.40625 -2.015625 C 0.539062 -2.222656 0.722656 -2.382812 0.953125 -2.5 C 1.179688 -2.613281 1.441406 -2.671875 1.734375 -2.671875 C 1.992188 -2.671875 2.234375 -2.617188 2.453125 -2.515625 C 2.679688 -2.421875 2.859375 -2.273438 2.984375 -2.078125 C 3.117188 -1.878906 3.1875 -1.640625 3.1875 -1.359375 Z M 3.1875 -1.359375 "/></g></g></g><g fill="#00ff0a" fill-opacity="1"><g transform="translate(17.60981, 37.908093)"><g><path d="M 1.828125 -1.953125 C 1.722656 -1.953125 1.625 -1.921875 1.53125 -1.859375 C 1.445312 -1.796875 1.378906 -1.710938 1.328125 -1.609375 C 1.273438 -1.515625 1.25 -1.414062 1.25 -1.3125 L 1.25 0 L 0.359375 0 L 0.359375 -2.625 L 1.25 -2.625 L 1.25 -2.296875 C 1.3125 -2.398438 1.398438 -2.488281 1.515625 -2.5625 C 1.628906 -2.632812 1.769531 -2.671875 1.9375 -2.671875 C 1.976562 -2.671875 2.023438 -2.664062 2.078125 -2.65625 C 2.128906 -2.644531 2.171875 -2.632812 2.203125 -2.625 L 2.203125 -1.8125 L 2.1875 -1.8125 C 2.144531 -1.863281 2.09375 -1.898438 2.03125 -1.921875 C 1.96875 -1.941406 1.898438 -1.953125 1.828125 -1.953125 Z M 1.828125 -1.953125 "/></g></g></g><g fill="#00ff0a" fill-opacity="1"><g transform="translate(19.874227, 37.908093)"><g><path d="M 2.40625 -1.3125 C 2.40625 -1.425781 2.375 -1.53125 2.3125 -1.625 C 2.257812 -1.726562 2.1875 -1.804688 2.09375 -1.859375 C 2 -1.921875 1.894531 -1.953125 1.78125 -1.953125 C 1.664062 -1.953125 1.5625 -1.921875 1.46875 -1.859375 C 1.375 -1.804688 1.296875 -1.726562 1.234375 -1.625 C 1.179688 -1.53125 1.15625 -1.425781 1.15625 -1.3125 C 1.15625 -1.195312 1.179688 -1.085938 1.234375 -0.984375 C 1.296875 -0.890625 1.375 -0.8125 1.46875 -0.75 C 1.5625 -0.6875 1.664062 -0.65625 1.78125 -0.65625 C 1.894531 -0.65625 2 -0.6875 2.09375 -0.75 C 2.1875 -0.8125 2.257812 -0.890625 2.3125 -0.984375 C 2.375 -1.085938 2.40625 -1.195312 2.40625 -1.3125 Z M 3.296875 -2.609375 L 3.296875 0 L 2.40625 0 L 2.40625 -0.3125 C 2.320312 -0.175781 2.191406 -0.078125 2.015625 -0.015625 C 1.835938 0.0351562 1.671875 0.0625 1.515625 0.0625 C 1.265625 0.0625 1.039062 0 0.84375 -0.125 C 0.644531 -0.257812 0.488281 -0.425781 0.375 -0.625 C 0.257812 -0.832031 0.203125 -1.0625 0.203125 -1.3125 C 0.203125 -1.550781 0.257812 -1.773438 0.375 -1.984375 C 0.488281 -2.191406 0.644531 -2.359375 0.84375 -2.484375 C 1.039062 -2.609375 1.265625 -2.671875 1.515625 -2.671875 C 1.671875 -2.671875 1.828125 -2.644531 1.984375 -2.59375 C 2.148438 -2.539062 2.289062 -2.441406 2.40625 -2.296875 L 2.40625 -2.609375 Z M 3.296875 -2.609375 "/></g></g></g><g fill="#00ff0a" fill-opacity="1"><g transform="translate(23.529388, 37.908093)"><g><path d="M 1.78125 -0.65625 C 1.894531 -0.65625 2 -0.6875 2.09375 -0.75 C 2.1875 -0.8125 2.257812 -0.890625 2.3125 -0.984375 C 2.375 -1.085938 2.40625 -1.195312 2.40625 -1.3125 C 2.40625 -1.425781 2.375 -1.53125 2.3125 -1.625 C 2.257812 -1.726562 2.1875 -1.8125 2.09375 -1.875 C 2 -1.9375 1.894531 -1.96875 1.78125 -1.96875 C 1.664062 -1.96875 1.5625 -1.9375 1.46875 -1.875 C 1.375 -1.8125 1.296875 -1.726562 1.234375 -1.625 C 1.179688 -1.53125 1.15625 -1.425781 1.15625 -1.3125 C 1.15625 -1.195312 1.179688 -1.085938 1.234375 -0.984375 C 1.296875 -0.890625 1.375 -0.8125 1.46875 -0.75 C 1.5625 -0.6875 1.664062 -0.65625 1.78125 -0.65625 Z M 2.40625 -2.296875 L 2.40625 -2.625 L 3.296875 -2.625 L 3.296875 0 C 3.296875 0.28125 3.226562 0.53125 3.09375 0.75 C 2.957031 0.976562 2.773438 1.15625 2.546875 1.28125 C 2.316406 1.414062 2.0625 1.484375 1.78125 1.484375 C 1.601562 1.484375 1.425781 1.457031 1.25 1.40625 C 1.070312 1.363281 0.910156 1.296875 0.765625 1.203125 C 0.617188 1.109375 0.5 0.988281 0.40625 0.84375 C 0.3125 0.695312 0.257812 0.523438 0.25 0.328125 L 1.140625 0.328125 C 1.171875 0.484375 1.238281 0.601562 1.34375 0.6875 C 1.457031 0.78125 1.585938 0.828125 1.734375 0.828125 C 1.867188 0.828125 1.984375 0.789062 2.078125 0.71875 C 2.179688 0.65625 2.257812 0.566406 2.3125 0.453125 C 2.375 0.335938 2.40625 0.21875 2.40625 0.09375 L 2.40625 -0.328125 C 2.320312 -0.191406 2.191406 -0.09375 2.015625 -0.03125 C 1.835938 0.03125 1.671875 0.0625 1.515625 0.0625 C 1.265625 0.0625 1.039062 0 0.84375 -0.125 C 0.644531 -0.257812 0.488281 -0.429688 0.375 -0.640625 C 0.257812 -0.847656 0.203125 -1.070312 0.203125 -1.3125 C 0.203125 -1.550781 0.257812 -1.773438 0.375 -1.984375 C 0.488281 -2.191406 0.644531 -2.359375 0.84375 -2.484375 C 1.039062 -2.609375 1.265625 -2.671875 1.515625 -2.671875 C 1.671875 -2.671875 1.828125 -2.644531 1.984375 -2.59375 C 2.140625 -2.550781 2.28125 -2.453125 2.40625 -2.296875 Z M 2.40625 -2.296875 "/></g></g></g><g fill="#00ff0a" fill-opacity="1"><g transform="translate(27.184549, 37.908093)"><g><path d="M 1.15625 -1.625 L 2.328125 -1.625 C 2.328125 -1.625 2.320312 -1.644531 2.3125 -1.6875 C 2.300781 -1.738281 2.273438 -1.796875 2.234375 -1.859375 C 2.203125 -1.921875 2.144531 -1.976562 2.0625 -2.03125 C 1.988281 -2.082031 1.882812 -2.109375 1.75 -2.109375 C 1.613281 -2.109375 1.503906 -2.082031 1.421875 -2.03125 C 1.347656 -1.976562 1.289062 -1.921875 1.25 -1.859375 C 1.207031 -1.796875 1.179688 -1.738281 1.171875 -1.6875 C 1.160156 -1.644531 1.15625 -1.625 1.15625 -1.625 Z M 3.1875 -1.359375 C 3.1875 -1.335938 3.1875 -1.3125 3.1875 -1.28125 C 3.1875 -1.25 3.1875 -1.222656 3.1875 -1.203125 L 1.15625 -1.203125 C 1.15625 -1.097656 1.175781 -1 1.21875 -0.90625 C 1.257812 -0.8125 1.320312 -0.734375 1.40625 -0.671875 C 1.5 -0.609375 1.601562 -0.578125 1.71875 -0.578125 C 1.875 -0.578125 2 -0.617188 2.09375 -0.703125 C 2.1875 -0.785156 2.234375 -0.875 2.234375 -0.96875 L 3.140625 -0.96875 C 3.066406 -0.625 2.898438 -0.363281 2.640625 -0.1875 C 2.378906 -0.0195312 2.078125 0.0625 1.734375 0.0625 C 1.429688 0.0625 1.164062 0.00390625 0.9375 -0.109375 C 0.707031 -0.222656 0.523438 -0.378906 0.390625 -0.578125 C 0.265625 -0.785156 0.203125 -1.03125 0.203125 -1.3125 C 0.203125 -1.582031 0.269531 -1.816406 0.40625 -2.015625 C 0.539062 -2.222656 0.722656 -2.382812 0.953125 -2.5 C 1.179688 -2.613281 1.441406 -2.671875 1.734375 -2.671875 C 1.992188 -2.671875 2.234375 -2.617188 2.453125 -2.515625 C 2.679688 -2.421875 2.859375 -2.273438 2.984375 -2.078125 C 3.117188 -1.878906 3.1875 -1.640625 3.1875 -1.359375 Z M 3.1875 -1.359375 "/></g></g></g><g fill="#00ff0a" fill-opacity="1"><g transform="translate(4.972926, 54.30349)"><g><path d="M 2.078125 -3.234375 L 2.078125 0 L 1.1875 0 L 1.1875 -3.234375 L 0.03125 -3.234375 L 0.03125 -4.03125 L 3.21875 -4.03125 L 3.21875 -3.234375 Z M 2.078125 -3.234375 "/></g></g></g><g fill="#00ff0a" fill-opacity="1"><g transform="translate(8.229882, 54.30349)"><g><path d="M 2.40625 -1.3125 C 2.40625 -1.425781 2.375 -1.53125 2.3125 -1.625 C 2.257812 -1.726562 2.1875 -1.804688 2.09375 -1.859375 C 2 -1.921875 1.894531 -1.953125 1.78125 -1.953125 C 1.664062 -1.953125 1.5625 -1.921875 1.46875 -1.859375 C 1.375 -1.804688 1.296875 -1.726562 1.234375 -1.625 C 1.179688 -1.53125 1.15625 -1.425781 1.15625 -1.3125 C 1.15625 -1.195312 1.179688 -1.085938 1.234375 -0.984375 C 1.296875 -0.890625 1.375 -0.8125 1.46875 -0.75 C 1.5625 -0.6875 1.664062 -0.65625 1.78125 -0.65625 C 1.894531 -0.65625 2 -0.6875 2.09375 -0.75 C 2.1875 -0.8125 2.257812 -0.890625 2.3125 -0.984375 C 2.375 -1.085938 2.40625 -1.195312 2.40625 -1.3125 Z M 3.296875 -2.609375 L 3.296875 0 L 2.40625 0 L 2.40625 -0.3125 C 2.320312 -0.175781 2.191406 -0.078125 2.015625 -0.015625 C 1.835938 0.0351562 1.671875 0.0625 1.515625 0.0625 C 1.265625 0.0625 1.039062 0 0.84375 -0.125 C 0.644531 -0.257812 0.488281 -0.425781 0.375 -0.625 C 0.257812 -0.832031 0.203125 -1.0625 0.203125 -1.3125 C 0.203125 -1.550781 0.257812 -1.773438 0.375 -1.984375 C 0.488281 -2.191406 0.644531 -2.359375 0.84375 -2.484375 C 1.039062 -2.609375 1.265625 -2.671875 1.515625 -2.671875 C 1.671875 -2.671875 1.828125 -2.644531 1.984375 -2.59375 C 2.148438 -2.539062 2.289062 -2.441406 2.40625 -2.296875 L 2.40625 -2.609375 Z M 3.296875 -2.609375 "/></g></g></g><g fill="#00ff0a" fill-opacity="1"><g transform="translate(11.885043, 54.30349)"><g><path d="M 1.25 -1.15625 L 1.25 0 L 0.359375 0 L 0.359375 -4.453125 L 1.25 -4.453125 L 1.25 -1.578125 L 2.078125 -2.625 L 3.1875 -2.625 L 2.0625 -1.375 L 3.3125 0 L 2.171875 0 Z M 1.25 -1.15625 "/></g></g></g><g fill="#00ff0a" fill-opacity="1"><g transform="translate(15.017188, 54.30349)"><g><path d="M 1.15625 -1.625 L 2.328125 -1.625 C 2.328125 -1.625 2.320312 -1.644531 2.3125 -1.6875 C 2.300781 -1.738281 2.273438 -1.796875 2.234375 -1.859375 C 2.203125 -1.921875 2.144531 -1.976562 2.0625 -2.03125 C 1.988281 -2.082031 1.882812 -2.109375 1.75 -2.109375 C 1.613281 -2.109375 1.503906 -2.082031 1.421875 -2.03125 C 1.347656 -1.976562 1.289062 -1.921875 1.25 -1.859375 C 1.207031 -1.796875 1.179688 -1.738281 1.171875 -1.6875 C 1.160156 -1.644531 1.15625 -1.625 1.15625 -1.625 Z M 3.1875 -1.359375 C 3.1875 -1.335938 3.1875 -1.3125 3.1875 -1.28125 C 3.1875 -1.25 3.1875 -1.222656 3.1875 -1.203125 L 1.15625 -1.203125 C 1.15625 -1.097656 1.175781 -1 1.21875 -0.90625 C 1.257812 -0.8125 1.320312 -0.734375 1.40625 -0.671875 C 1.5 -0.609375 1.601562 -0.578125 1.71875 -0.578125 C 1.875 -0.578125 2 -0.617188 2.09375 -0.703125 C 2.1875 -0.785156 2.234375 -0.875 2.234375 -0.96875 L 3.140625 -0.96875 C 3.066406 -0.625 2.898438 -0.363281 2.640625 -0.1875 C 2.378906 -0.0195312 2.078125 0.0625 1.734375 0.0625 C 1.429688 0.0625 1.164062 0.00390625 0.9375 -0.109375 C 0.707031 -0.222656 0.523438 -0.378906 0.390625 -0.578125 C 0.265625 -0.785156 0.203125 -1.03125 0.203125 -1.3125 C 0.203125 -1.582031 0.269531 -1.816406 0.40625 -2.015625 C 0.539062 -2.222656 0.722656 -2.382812 0.953125 -2.5 C 1.179688 -2.613281 1.441406 -2.671875 1.734375 -2.671875 C 1.992188 -2.671875 2.234375 -2.617188 2.453125 -2.515625 C 2.679688 -2.421875 2.859375 -2.273438 2.984375 -2.078125 C 3.117188 -1.878906 3.1875 -1.640625 3.1875 -1.359375 Z M 3.1875 -1.359375 "/></g></g></g><g fill="#00ff0a" fill-opacity="1"><g transform="translate(18.416784, 54.30349)"><g/></g></g><g fill="#00ff0a" fill-opacity="1"><g transform="translate(19.902622, 54.30349)"><g><path d="M 1.25 -1.4375 L 1.25 0 L 0.359375 0 L 0.359375 -4.03125 L 1.875 -4.03125 C 2.09375 -4.03125 2.296875 -3.976562 2.484375 -3.875 C 2.671875 -3.769531 2.820312 -3.617188 2.9375 -3.421875 C 3.050781 -3.222656 3.109375 -3 3.109375 -2.75 C 3.109375 -2.46875 3.050781 -2.226562 2.9375 -2.03125 C 2.820312 -1.84375 2.671875 -1.695312 2.484375 -1.59375 C 2.296875 -1.488281 2.09375 -1.4375 1.875 -1.4375 Z M 1.71875 -3.34375 L 1.25 -3.34375 L 1.25 -2.140625 L 1.71875 -2.140625 C 1.851562 -2.140625 1.972656 -2.191406 2.078125 -2.296875 C 2.191406 -2.398438 2.25 -2.550781 2.25 -2.75 C 2.25 -2.925781 2.191406 -3.066406 2.078125 -3.171875 C 1.972656 -3.285156 1.851562 -3.34375 1.71875 -3.34375 Z M 1.71875 -3.34375 "/></g></g></g><g fill="#00ff0a" fill-opacity="1"><g transform="translate(23.100145, 54.30349)"><g><path d="M 1.828125 -1.953125 C 1.722656 -1.953125 1.625 -1.921875 1.53125 -1.859375 C 1.445312 -1.796875 1.378906 -1.710938 1.328125 -1.609375 C 1.273438 -1.515625 1.25 -1.414062 1.25 -1.3125 L 1.25 0 L 0.359375 0 L 0.359375 -2.625 L 1.25 -2.625 L 1.25 -2.296875 C 1.3125 -2.398438 1.398438 -2.488281 1.515625 -2.5625 C 1.628906 -2.632812 1.769531 -2.671875 1.9375 -2.671875 C 1.976562 -2.671875 2.023438 -2.664062 2.078125 -2.65625 C 2.128906 -2.644531 2.171875 -2.632812 2.203125 -2.625 L 2.203125 -1.8125 L 2.1875 -1.8125 C 2.144531 -1.863281 2.09375 -1.898438 2.03125 -1.921875 C 1.96875 -1.941406 1.898438 -1.953125 1.828125 -1.953125 Z M 1.828125 -1.953125 "/></g></g></g><g fill="#00ff0a" fill-opacity="1"><g transform="translate(25.364561, 54.30349)"><g><path d="M 1.703125 -0.625 C 1.859375 -0.625 1.976562 -0.65625 2.0625 -0.71875 C 2.15625 -0.78125 2.21875 -0.863281 2.25 -0.96875 C 2.289062 -1.082031 2.3125 -1.191406 2.3125 -1.296875 C 2.3125 -1.410156 2.289062 -1.519531 2.25 -1.625 C 2.21875 -1.726562 2.15625 -1.8125 2.0625 -1.875 C 1.976562 -1.945312 1.859375 -1.984375 1.703125 -1.984375 C 1.546875 -1.984375 1.421875 -1.945312 1.328125 -1.875 C 1.242188 -1.8125 1.179688 -1.726562 1.140625 -1.625 C 1.109375 -1.519531 1.09375 -1.410156 1.09375 -1.296875 C 1.09375 -1.191406 1.109375 -1.082031 1.140625 -0.96875 C 1.179688 -0.863281 1.242188 -0.78125 1.328125 -0.71875 C 1.421875 -0.65625 1.546875 -0.625 1.703125 -0.625 Z M 1.703125 -2.671875 C 1.972656 -2.671875 2.222656 -2.613281 2.453125 -2.5 C 2.679688 -2.382812 2.859375 -2.222656 2.984375 -2.015625 C 3.117188 -1.816406 3.1875 -1.582031 3.1875 -1.3125 C 3.1875 -1.03125 3.117188 -0.785156 2.984375 -0.578125 C 2.859375 -0.378906 2.679688 -0.222656 2.453125 -0.109375 C 2.234375 -0.00390625 1.984375 0.046875 1.703125 0.046875 C 1.421875 0.046875 1.164062 -0.00390625 0.9375 -0.109375 C 0.71875 -0.222656 0.539062 -0.378906 0.40625 -0.578125 C 0.269531 -0.785156 0.203125 -1.03125 0.203125 -1.3125 C 0.203125 -1.582031 0.269531 -1.816406 0.40625 -2.015625 C 0.539062 -2.222656 0.722656 -2.382812 0.953125 -2.5 C 1.179688 -2.613281 1.429688 -2.671875 1.703125 -2.671875 Z M 1.703125 -2.671875 "/></g></g></g><g fill="#00ff0a" fill-opacity="1"><g transform="translate(28.770101, 54.30349)"><g><path d="M 1.390625 -4.453125 L 2.046875 -4.453125 L 2.046875 -3.765625 L 1.671875 -3.765625 C 1.578125 -3.765625 1.515625 -3.734375 1.484375 -3.671875 C 1.453125 -3.617188 1.4375 -3.53125 1.4375 -3.40625 L 1.4375 -2.625 L 2.046875 -2.625 L 2.046875 -1.9375 L 1.4375 -1.9375 L 1.4375 0 L 0.546875 0 L 0.546875 -1.9375 L 0.171875 -1.9375 L 0.171875 -2.625 L 0.546875 -2.625 L 0.546875 -3.515625 C 0.546875 -3.835938 0.628906 -4.070312 0.796875 -4.21875 C 0.960938 -4.375 1.160156 -4.453125 1.390625 -4.453125 Z M 1.390625 -4.453125 "/></g></g></g><g fill="#00ff0a" fill-opacity="1"><g transform="translate(30.927538, 54.30349)"><g><path d="M 0.3125 -3.515625 C 0.3125 -3.660156 0.359375 -3.78125 0.453125 -3.875 C 0.554688 -3.976562 0.679688 -4.03125 0.828125 -4.03125 C 0.972656 -4.03125 1.097656 -3.976562 1.203125 -3.875 C 1.304688 -3.78125 1.359375 -3.660156 1.359375 -3.515625 C 1.359375 -3.367188 1.304688 -3.242188 1.203125 -3.140625 C 1.097656 -3.046875 0.972656 -3 0.828125 -3 C 0.679688 -3 0.554688 -3.046875 0.453125 -3.140625 C 0.359375 -3.242188 0.3125 -3.367188 0.3125 -3.515625 Z M 1.28125 0 L 0.390625 0 L 0.390625 -2.625 L 1.28125 -2.625 Z M 1.28125 0 "/></g></g></g><g fill="#00ff0a" fill-opacity="1"><g transform="translate(32.591678, 54.30349)"><g><path d="M 1.484375 -1.9375 L 1.484375 0 L 0.59375 0 L 0.59375 -1.9375 L 0.125 -1.9375 L 0.125 -2.625 L 0.59375 -2.625 L 0.59375 -3.609375 L 1.484375 -3.609375 L 1.484375 -2.625 L 1.953125 -2.625 L 1.953125 -1.9375 Z M 1.484375 -1.9375 "/></g></g></g><g fill="#00ff0a" fill-opacity="1"><g transform="translate(4.972926, 62.501189)"><g><path d="M 1.921875 -0.625 C 2.015625 -0.625 2.117188 -0.640625 2.234375 -0.671875 C 2.347656 -0.703125 2.441406 -0.75 2.515625 -0.8125 C 2.597656 -0.882812 2.640625 -0.984375 2.640625 -1.109375 C 2.640625 -1.210938 2.597656 -1.296875 2.515625 -1.359375 C 2.429688 -1.429688 2.316406 -1.488281 2.171875 -1.53125 C 2.035156 -1.582031 1.882812 -1.625 1.71875 -1.65625 C 1.5625 -1.695312 1.398438 -1.742188 1.234375 -1.796875 C 1.066406 -1.847656 0.910156 -1.914062 0.765625 -2 C 0.628906 -2.09375 0.519531 -2.207031 0.4375 -2.34375 C 0.351562 -2.476562 0.3125 -2.65625 0.3125 -2.875 C 0.3125 -3.082031 0.351562 -3.257812 0.4375 -3.40625 C 0.519531 -3.5625 0.632812 -3.691406 0.78125 -3.796875 C 0.925781 -3.898438 1.085938 -3.972656 1.265625 -4.015625 C 1.453125 -4.066406 1.632812 -4.09375 1.8125 -4.09375 C 2.09375 -4.09375 2.351562 -4.046875 2.59375 -3.953125 C 2.832031 -3.867188 3.03125 -3.734375 3.1875 -3.546875 C 3.34375 -3.359375 3.421875 -3.113281 3.421875 -2.8125 L 2.5625 -2.8125 C 2.539062 -3.019531 2.46875 -3.160156 2.34375 -3.234375 C 2.21875 -3.316406 2.046875 -3.359375 1.828125 -3.359375 C 1.742188 -3.359375 1.65625 -3.34375 1.5625 -3.3125 C 1.46875 -3.289062 1.390625 -3.25 1.328125 -3.1875 C 1.265625 -3.125 1.234375 -3.039062 1.234375 -2.9375 C 1.234375 -2.84375 1.273438 -2.765625 1.359375 -2.703125 C 1.441406 -2.640625 1.550781 -2.585938 1.6875 -2.546875 C 1.832031 -2.515625 1.988281 -2.476562 2.15625 -2.4375 C 2.320312 -2.40625 2.484375 -2.363281 2.640625 -2.3125 C 2.804688 -2.257812 2.957031 -2.1875 3.09375 -2.09375 C 3.238281 -2.007812 3.351562 -1.894531 3.4375 -1.75 C 3.519531 -1.601562 3.5625 -1.421875 3.5625 -1.203125 C 3.5625 -0.960938 3.515625 -0.757812 3.421875 -0.59375 C 3.328125 -0.425781 3.195312 -0.289062 3.03125 -0.1875 C 2.875 -0.09375 2.695312 -0.0234375 2.5 0.015625 C 2.300781 0.0664062 2.097656 0.09375 1.890625 0.09375 C 1.585938 0.09375 1.304688 0.046875 1.046875 -0.046875 C 0.796875 -0.148438 0.585938 -0.304688 0.421875 -0.515625 C 0.265625 -0.734375 0.179688 -1.003906 0.171875 -1.328125 L 1.078125 -1.328125 C 1.085938 -1.085938 1.175781 -0.910156 1.34375 -0.796875 C 1.507812 -0.679688 1.703125 -0.625 1.921875 -0.625 Z M 1.921875 -0.625 "/></g></g></g><g fill="#00ff0a" fill-opacity="1"><g transform="translate(8.717236, 62.501189)"><g><path d="M 1.484375 -1.9375 L 1.484375 0 L 0.59375 0 L 0.59375 -1.9375 L 0.125 -1.9375 L 0.125 -2.625 L 0.59375 -2.625 L 0.59375 -3.609375 L 1.484375 -3.609375 L 1.484375 -2.625 L 1.953125 -2.625 L 1.953125 -1.9375 Z M 1.484375 -1.9375 "/></g></g></g><g fill="#00ff0a" fill-opacity="1"><g transform="translate(10.791465, 62.501189)"><g><path d="M 1.703125 -0.625 C 1.859375 -0.625 1.976562 -0.65625 2.0625 -0.71875 C 2.15625 -0.78125 2.21875 -0.863281 2.25 -0.96875 C 2.289062 -1.082031 2.3125 -1.191406 2.3125 -1.296875 C 2.3125 -1.410156 2.289062 -1.519531 2.25 -1.625 C 2.21875 -1.726562 2.15625 -1.8125 2.0625 -1.875 C 1.976562 -1.945312 1.859375 -1.984375 1.703125 -1.984375 C 1.546875 -1.984375 1.421875 -1.945312 1.328125 -1.875 C 1.242188 -1.8125 1.179688 -1.726562 1.140625 -1.625 C 1.109375 -1.519531 1.09375 -1.410156 1.09375 -1.296875 C 1.09375 -1.191406 1.109375 -1.082031 1.140625 -0.96875 C 1.179688 -0.863281 1.242188 -0.78125 1.328125 -0.71875 C 1.421875 -0.65625 1.546875 -0.625 1.703125 -0.625 Z M 1.703125 -2.671875 C 1.972656 -2.671875 2.222656 -2.613281 2.453125 -2.5 C 2.679688 -2.382812 2.859375 -2.222656 2.984375 -2.015625 C 3.117188 -1.816406 3.1875 -1.582031 3.1875 -1.3125 C 3.1875 -1.03125 3.117188 -0.785156 2.984375 -0.578125 C 2.859375 -0.378906 2.679688 -0.222656 2.453125 -0.109375 C 2.234375 -0.00390625 1.984375 0.046875 1.703125 0.046875 C 1.421875 0.046875 1.164062 -0.00390625 0.9375 -0.109375 C 0.71875 -0.222656 0.539062 -0.378906 0.40625 -0.578125 C 0.269531 -0.785156 0.203125 -1.03125 0.203125 -1.3125 C 0.203125 -1.582031 0.269531 -1.816406 0.40625 -2.015625 C 0.539062 -2.222656 0.722656 -2.382812 0.953125 -2.5 C 1.179688 -2.613281 1.429688 -2.671875 1.703125 -2.671875 Z M 1.703125 -2.671875 "/></g></g></g><g fill="#00ff0a" fill-opacity="1"><g transform="translate(14.197005, 62.501189)"><g><path d="M 1.25 -1.3125 C 1.25 -1.195312 1.273438 -1.085938 1.328125 -0.984375 C 1.378906 -0.890625 1.453125 -0.8125 1.546875 -0.75 C 1.640625 -0.6875 1.75 -0.65625 1.875 -0.65625 C 1.988281 -0.65625 2.09375 -0.6875 2.1875 -0.75 C 2.28125 -0.8125 2.351562 -0.890625 2.40625 -0.984375 C 2.46875 -1.085938 2.5 -1.195312 2.5 -1.3125 C 2.5 -1.425781 2.46875 -1.53125 2.40625 -1.625 C 2.351562 -1.726562 2.28125 -1.804688 2.1875 -1.859375 C 2.09375 -1.921875 1.988281 -1.953125 1.875 -1.953125 C 1.75 -1.953125 1.640625 -1.921875 1.546875 -1.859375 C 1.453125 -1.804688 1.378906 -1.726562 1.328125 -1.625 C 1.273438 -1.53125 1.25 -1.425781 1.25 -1.3125 Z M 1.25 1.484375 L 0.359375 1.484375 L 0.359375 -2.625 L 1.25 -2.625 L 1.25 -2.296875 C 1.363281 -2.441406 1.5 -2.539062 1.65625 -2.59375 C 1.8125 -2.644531 1.972656 -2.671875 2.140625 -2.671875 C 2.390625 -2.671875 2.613281 -2.609375 2.8125 -2.484375 C 3.007812 -2.359375 3.160156 -2.191406 3.265625 -1.984375 C 3.378906 -1.773438 3.4375 -1.550781 3.4375 -1.3125 C 3.4375 -1.0625 3.378906 -0.832031 3.265625 -0.625 C 3.160156 -0.425781 3.007812 -0.257812 2.8125 -0.125 C 2.613281 0 2.390625 0.0625 2.140625 0.0625 C 1.972656 0.0625 1.804688 0.0351562 1.640625 -0.015625 C 1.472656 -0.078125 1.34375 -0.175781 1.25 -0.3125 Z M 1.25 1.484375 "/></g></g></g><g fill="#00ff0a" fill-opacity="1"><g transform="translate(17.852166, 62.501189)"><g/></g></g><g fill="#00ff0a" fill-opacity="1"><g transform="translate(19.338004, 62.501189)"><g><path d="M 0.359375 0 L 0.359375 -4.03125 L 1.25 -4.03125 L 1.25 -0.8125 L 2.703125 -0.8125 L 2.703125 0 Z M 0.359375 0 "/></g></g></g><g fill="#00ff0a" fill-opacity="1"><g transform="translate(22.244302, 62.501189)"><g><path d="M 1.703125 -0.625 C 1.859375 -0.625 1.976562 -0.65625 2.0625 -0.71875 C 2.15625 -0.78125 2.21875 -0.863281 2.25 -0.96875 C 2.289062 -1.082031 2.3125 -1.191406 2.3125 -1.296875 C 2.3125 -1.410156 2.289062 -1.519531 2.25 -1.625 C 2.21875 -1.726562 2.15625 -1.8125 2.0625 -1.875 C 1.976562 -1.945312 1.859375 -1.984375 1.703125 -1.984375 C 1.546875 -1.984375 1.421875 -1.945312 1.328125 -1.875 C 1.242188 -1.8125 1.179688 -1.726562 1.140625 -1.625 C 1.109375 -1.519531 1.09375 -1.410156 1.09375 -1.296875 C 1.09375 -1.191406 1.109375 -1.082031 1.140625 -0.96875 C 1.179688 -0.863281 1.242188 -0.78125 1.328125 -0.71875 C 1.421875 -0.65625 1.546875 -0.625 1.703125 -0.625 Z M 1.703125 -2.671875 C 1.972656 -2.671875 2.222656 -2.613281 2.453125 -2.5 C 2.679688 -2.382812 2.859375 -2.222656 2.984375 -2.015625 C 3.117188 -1.816406 3.1875 -1.582031 3.1875 -1.3125 C 3.1875 -1.03125 3.117188 -0.785156 2.984375 -0.578125 C 2.859375 -0.378906 2.679688 -0.222656 2.453125 -0.109375 C 2.234375 -0.00390625 1.984375 0.046875 1.703125 0.046875 C 1.421875 0.046875 1.164062 -0.00390625 0.9375 -0.109375 C 0.71875 -0.222656 0.539062 -0.378906 0.40625 -0.578125 C 0.269531 -0.785156 0.203125 -1.03125 0.203125 -1.3125 C 0.203125 -1.582031 0.269531 -1.816406 0.40625 -2.015625 C 0.539062 -2.222656 0.722656 -2.382812 0.953125 -2.5 C 1.179688 -2.613281 1.429688 -2.671875 1.703125 -2.671875 Z M 1.703125 -2.671875 "/></g></g></g><g fill="#00ff0a" fill-opacity="1"><g transform="translate(25.649842, 62.501189)"><g><path d="M 2.78125 -1.828125 L 1.90625 -1.828125 C 1.882812 -1.941406 1.828125 -2.019531 1.734375 -2.0625 C 1.648438 -2.101562 1.566406 -2.125 1.484375 -2.125 C 1.398438 -2.125 1.316406 -2.101562 1.234375 -2.0625 C 1.160156 -2.019531 1.125 -1.957031 1.125 -1.875 C 1.125 -1.820312 1.164062 -1.78125 1.25 -1.75 C 1.332031 -1.71875 1.4375 -1.691406 1.5625 -1.671875 C 1.6875 -1.660156 1.820312 -1.640625 1.96875 -1.609375 C 2.113281 -1.578125 2.25 -1.53125 2.375 -1.46875 C 2.507812 -1.414062 2.617188 -1.332031 2.703125 -1.21875 C 2.785156 -1.113281 2.828125 -0.96875 2.828125 -0.78125 C 2.828125 -0.570312 2.769531 -0.40625 2.65625 -0.28125 C 2.550781 -0.164062 2.398438 -0.078125 2.203125 -0.015625 C 2.003906 0.0351562 1.78125 0.0625 1.53125 0.0625 C 1.269531 0.0625 1.035156 0.0234375 0.828125 -0.046875 C 0.617188 -0.117188 0.453125 -0.226562 0.328125 -0.375 C 0.203125 -0.53125 0.132812 -0.726562 0.125 -0.96875 L 1 -0.96875 C 1 -0.84375 1.03125 -0.75 1.09375 -0.6875 C 1.15625 -0.632812 1.226562 -0.597656 1.3125 -0.578125 C 1.40625 -0.566406 1.484375 -0.5625 1.546875 -0.5625 C 1.648438 -0.5625 1.738281 -0.578125 1.8125 -0.609375 C 1.882812 -0.648438 1.921875 -0.707031 1.921875 -0.78125 C 1.921875 -0.875 1.878906 -0.941406 1.796875 -0.984375 C 1.722656 -1.035156 1.617188 -1.070312 1.484375 -1.09375 C 1.359375 -1.113281 1.222656 -1.132812 1.078125 -1.15625 C 0.929688 -1.1875 0.789062 -1.222656 0.65625 -1.265625 C 0.53125 -1.316406 0.425781 -1.382812 0.34375 -1.46875 C 0.269531 -1.5625 0.234375 -1.6875 0.234375 -1.84375 C 0.234375 -2.113281 0.335938 -2.316406 0.546875 -2.453125 C 0.753906 -2.597656 1.078125 -2.671875 1.515625 -2.671875 C 1.859375 -2.671875 2.144531 -2.601562 2.375 -2.46875 C 2.601562 -2.34375 2.738281 -2.128906 2.78125 -1.828125 Z M 2.78125 -1.828125 "/></g></g></g><g fill="#00ff0a" fill-opacity="1"><g transform="translate(28.651233, 62.501189)"><g><path d="M 2.78125 -1.828125 L 1.90625 -1.828125 C 1.882812 -1.941406 1.828125 -2.019531 1.734375 -2.0625 C 1.648438 -2.101562 1.566406 -2.125 1.484375 -2.125 C 1.398438 -2.125 1.316406 -2.101562 1.234375 -2.0625 C 1.160156 -2.019531 1.125 -1.957031 1.125 -1.875 C 1.125 -1.820312 1.164062 -1.78125 1.25 -1.75 C 1.332031 -1.71875 1.4375 -1.691406 1.5625 -1.671875 C 1.6875 -1.660156 1.820312 -1.640625 1.96875 -1.609375 C 2.113281 -1.578125 2.25 -1.53125 2.375 -1.46875 C 2.507812 -1.414062 2.617188 -1.332031 2.703125 -1.21875 C 2.785156 -1.113281 2.828125 -0.96875 2.828125 -0.78125 C 2.828125 -0.570312 2.769531 -0.40625 2.65625 -0.28125 C 2.550781 -0.164062 2.398438 -0.078125 2.203125 -0.015625 C 2.003906 0.0351562 1.78125 0.0625 1.53125 0.0625 C 1.269531 0.0625 1.035156 0.0234375 0.828125 -0.046875 C 0.617188 -0.117188 0.453125 -0.226562 0.328125 -0.375 C 0.203125 -0.53125 0.132812 -0.726562 0.125 -0.96875 L 1 -0.96875 C 1 -0.84375 1.03125 -0.75 1.09375 -0.6875 C 1.15625 -0.632812 1.226562 -0.597656 1.3125 -0.578125 C 1.40625 -0.566406 1.484375 -0.5625 1.546875 -0.5625 C 1.648438 -0.5625 1.738281 -0.578125 1.8125 -0.609375 C 1.882812 -0.648438 1.921875 -0.707031 1.921875 -0.78125 C 1.921875 -0.875 1.878906 -0.941406 1.796875 -0.984375 C 1.722656 -1.035156 1.617188 -1.070312 1.484375 -1.09375 C 1.359375 -1.113281 1.222656 -1.132812 1.078125 -1.15625 C 0.929688 -1.1875 0.789062 -1.222656 0.65625 -1.265625 C 0.53125 -1.316406 0.425781 -1.382812 0.34375 -1.46875 C 0.269531 -1.5625 0.234375 -1.6875 0.234375 -1.84375 C 0.234375 -2.113281 0.335938 -2.316406 0.546875 -2.453125 C 0.753906 -2.597656 1.078125 -2.671875 1.515625 -2.671875 C 1.859375 -2.671875 2.144531 -2.601562 2.375 -2.46875 C 2.601562 -2.34375 2.738281 -2.128906 2.78125 -1.828125 Z M 2.78125 -1.828125 "/></g></g></g><g fill="#00ff0a" fill-opacity="1"><g transform="translate(4.972926, 78.896586)"><g><path d="M 2.078125 -3.234375 L 2.078125 0 L 1.1875 0 L 1.1875 -3.234375 L 0.03125 -3.234375 L 0.03125 -4.03125 L 3.21875 -4.03125 L 3.21875 -3.234375 Z M 2.078125 -3.234375 "/></g></g></g><g fill="#00ff0a" fill-opacity="1"><g transform="translate(8.229882, 78.896586)"><g><path d="M 0.3125 -3.515625 C 0.3125 -3.660156 0.359375 -3.78125 0.453125 -3.875 C 0.554688 -3.976562 0.679688 -4.03125 0.828125 -4.03125 C 0.972656 -4.03125 1.097656 -3.976562 1.203125 -3.875 C 1.304688 -3.78125 1.359375 -3.660156 1.359375 -3.515625 C 1.359375 -3.367188 1.304688 -3.242188 1.203125 -3.140625 C 1.097656 -3.046875 0.972656 -3 0.828125 -3 C 0.679688 -3 0.554688 -3.046875 0.453125 -3.140625 C 0.359375 -3.242188 0.3125 -3.367188 0.3125 -3.515625 Z M 1.28125 0 L 0.390625 0 L 0.390625 -2.625 L 1.28125 -2.625 Z M 1.28125 0 "/></g></g></g><g fill="#00ff0a" fill-opacity="1"><g transform="translate(9.894022, 78.896586)"><g><path d="M 3 -1.328125 L 3 0 L 2.109375 0 L 2.109375 -1.453125 C 2.109375 -1.578125 2.082031 -1.691406 2.03125 -1.796875 C 1.976562 -1.898438 1.878906 -1.953125 1.734375 -1.953125 C 1.628906 -1.953125 1.539062 -1.914062 1.46875 -1.84375 C 1.394531 -1.769531 1.335938 -1.679688 1.296875 -1.578125 C 1.265625 -1.484375 1.25 -1.394531 1.25 -1.3125 L 1.25 0 L 0.359375 0 L 0.359375 -2.625 L 1.25 -2.625 L 1.25 -2.296875 C 1.34375 -2.410156 1.445312 -2.5 1.5625 -2.5625 C 1.6875 -2.632812 1.820312 -2.671875 1.96875 -2.671875 C 2.132812 -2.671875 2.285156 -2.632812 2.421875 -2.5625 C 2.566406 -2.488281 2.6875 -2.378906 2.78125 -2.234375 C 2.90625 -2.390625 3.046875 -2.5 3.203125 -2.5625 C 3.359375 -2.632812 3.535156 -2.671875 3.734375 -2.671875 C 3.960938 -2.671875 4.148438 -2.613281 4.296875 -2.5 C 4.453125 -2.394531 4.566406 -2.25 4.640625 -2.0625 C 4.710938 -1.875 4.75 -1.671875 4.75 -1.453125 L 4.75 0 L 3.859375 0 L 3.859375 -1.453125 C 3.859375 -1.578125 3.832031 -1.691406 3.78125 -1.796875 C 3.726562 -1.898438 3.628906 -1.953125 3.484375 -1.953125 C 3.367188 -1.953125 3.273438 -1.921875 3.203125 -1.859375 C 3.128906 -1.796875 3.078125 -1.71875 3.046875 -1.625 C 3.015625 -1.53125 3 -1.429688 3 -1.328125 Z M 3 -1.328125 "/></g></g></g><g fill="#00ff0a" fill-opacity="1"><g transform="translate(14.916153, 78.896586)"><g><path d="M 1.15625 -1.625 L 2.328125 -1.625 C 2.328125 -1.625 2.320312 -1.644531 2.3125 -1.6875 C 2.300781 -1.738281 2.273438 -1.796875 2.234375 -1.859375 C 2.203125 -1.921875 2.144531 -1.976562 2.0625 -2.03125 C 1.988281 -2.082031 1.882812 -2.109375 1.75 -2.109375 C 1.613281 -2.109375 1.503906 -2.082031 1.421875 -2.03125 C 1.347656 -1.976562 1.289062 -1.921875 1.25 -1.859375 C 1.207031 -1.796875 1.179688 -1.738281 1.171875 -1.6875 C 1.160156 -1.644531 1.15625 -1.625 1.15625 -1.625 Z M 3.1875 -1.359375 C 3.1875 -1.335938 3.1875 -1.3125 3.1875 -1.28125 C 3.1875 -1.25 3.1875 -1.222656 3.1875 -1.203125 L 1.15625 -1.203125 C 1.15625 -1.097656 1.175781 -1 1.21875 -0.90625 C 1.257812 -0.8125 1.320312 -0.734375 1.40625 -0.671875 C 1.5 -0.609375 1.601562 -0.578125 1.71875 -0.578125 C 1.875 -0.578125 2 -0.617188 2.09375 -0.703125 C 2.1875 -0.785156 2.234375 -0.875 2.234375 -0.96875 L 3.140625 -0.96875 C 3.066406 -0.625 2.898438 -0.363281 2.640625 -0.1875 C 2.378906 -0.0195312 2.078125 0.0625 1.734375 0.0625 C 1.429688 0.0625 1.164062 0.00390625 0.9375 -0.109375 C 0.707031 -0.222656 0.523438 -0.378906 0.390625 -0.578125 C 0.265625 -0.785156 0.203125 -1.03125 0.203125 -1.3125 C 0.203125 -1.582031 0.269531 -1.816406 0.40625 -2.015625 C 0.539062 -2.222656 0.722656 -2.382812 0.953125 -2.5 C 1.179688 -2.613281 1.441406 -2.671875 1.734375 -2.671875 C 1.992188 -2.671875 2.234375 -2.617188 2.453125 -2.515625 C 2.679688 -2.421875 2.859375 -2.273438 2.984375 -2.078125 C 3.117188 -1.878906 3.1875 -1.640625 3.1875 -1.359375 Z M 3.1875 -1.359375 "/></g></g></g><g fill="#00ff0a" fill-opacity="1"><g transform="translate(18.315749, 78.896586)"><g><path d="M 1.390625 -4.453125 L 2.046875 -4.453125 L 2.046875 -3.765625 L 1.671875 -3.765625 C 1.578125 -3.765625 1.515625 -3.734375 1.484375 -3.671875 C 1.453125 -3.617188 1.4375 -3.53125 1.4375 -3.40625 L 1.4375 -2.625 L 2.046875 -2.625 L 2.046875 -1.9375 L 1.4375 -1.9375 L 1.4375 0 L 0.546875 0 L 0.546875 -1.9375 L 0.171875 -1.9375 L 0.171875 -2.625 L 0.546875 -2.625 L 0.546875 -3.515625 C 0.546875 -3.835938 0.628906 -4.070312 0.796875 -4.21875 C 0.960938 -4.375 1.160156 -4.453125 1.390625 -4.453125 Z M 1.390625 -4.453125 "/></g></g></g><g fill="#00ff0a" fill-opacity="1"><g transform="translate(20.473186, 78.896586)"><g><path d="M 1.828125 -1.953125 C 1.722656 -1.953125 1.625 -1.921875 1.53125 -1.859375 C 1.445312 -1.796875 1.378906 -1.710938 1.328125 -1.609375 C 1.273438 -1.515625 1.25 -1.414062 1.25 -1.3125 L 1.25 0 L 0.359375 0 L 0.359375 -2.625 L 1.25 -2.625 L 1.25 -2.296875 C 1.3125 -2.398438 1.398438 -2.488281 1.515625 -2.5625 C 1.628906 -2.632812 1.769531 -2.671875 1.9375 -2.671875 C 1.976562 -2.671875 2.023438 -2.664062 2.078125 -2.65625 C 2.128906 -2.644531 2.171875 -2.632812 2.203125 -2.625 L 2.203125 -1.8125 L 2.1875 -1.8125 C 2.144531 -1.863281 2.09375 -1.898438 2.03125 -1.921875 C 1.96875 -1.941406 1.898438 -1.953125 1.828125 -1.953125 Z M 1.828125 -1.953125 "/></g></g></g><g fill="#00ff0a" fill-opacity="1"><g transform="translate(22.737603, 78.896586)"><g><path d="M 2.40625 -1.3125 C 2.40625 -1.425781 2.375 -1.53125 2.3125 -1.625 C 2.257812 -1.726562 2.1875 -1.804688 2.09375 -1.859375 C 2 -1.921875 1.894531 -1.953125 1.78125 -1.953125 C 1.664062 -1.953125 1.5625 -1.921875 1.46875 -1.859375 C 1.375 -1.804688 1.296875 -1.726562 1.234375 -1.625 C 1.179688 -1.53125 1.15625 -1.425781 1.15625 -1.3125 C 1.15625 -1.195312 1.179688 -1.085938 1.234375 -0.984375 C 1.296875 -0.890625 1.375 -0.8125 1.46875 -0.75 C 1.5625 -0.6875 1.664062 -0.65625 1.78125 -0.65625 C 1.894531 -0.65625 2 -0.6875 2.09375 -0.75 C 2.1875 -0.8125 2.257812 -0.890625 2.3125 -0.984375 C 2.375 -1.085938 2.40625 -1.195312 2.40625 -1.3125 Z M 3.296875 -2.609375 L 3.296875 0 L 2.40625 0 L 2.40625 -0.3125 C 2.320312 -0.175781 2.191406 -0.078125 2.015625 -0.015625 C 1.835938 0.0351562 1.671875 0.0625 1.515625 0.0625 C 1.265625 0.0625 1.039062 0 0.84375 -0.125 C 0.644531 -0.257812 0.488281 -0.425781 0.375 -0.625 C 0.257812 -0.832031 0.203125 -1.0625 0.203125 -1.3125 C 0.203125 -1.550781 0.257812 -1.773438 0.375 -1.984375 C 0.488281 -2.191406 0.644531 -2.359375 0.84375 -2.484375 C 1.039062 -2.609375 1.265625 -2.671875 1.515625 -2.671875 C 1.671875 -2.671875 1.828125 -2.644531 1.984375 -2.59375 C 2.148438 -2.539062 2.289062 -2.441406 2.40625 -2.296875 L 2.40625 -2.609375 Z M 3.296875 -2.609375 "/></g></g></g><g fill="#00ff0a" fill-opacity="1"><g transform="translate(26.392764, 78.896586)"><g><path d="M 3 -1.328125 L 3 0 L 2.109375 0 L 2.109375 -1.453125 C 2.109375 -1.578125 2.082031 -1.691406 2.03125 -1.796875 C 1.976562 -1.898438 1.878906 -1.953125 1.734375 -1.953125 C 1.628906 -1.953125 1.539062 -1.914062 1.46875 -1.84375 C 1.394531 -1.769531 1.335938 -1.679688 1.296875 -1.578125 C 1.265625 -1.484375 1.25 -1.394531 1.25 -1.3125 L 1.25 0 L 0.359375 0 L 0.359375 -2.625 L 1.25 -2.625 L 1.25 -2.296875 C 1.34375 -2.410156 1.445312 -2.5 1.5625 -2.5625 C 1.6875 -2.632812 1.820312 -2.671875 1.96875 -2.671875 C 2.132812 -2.671875 2.285156 -2.632812 2.421875 -2.5625 C 2.566406 -2.488281 2.6875 -2.378906 2.78125 -2.234375 C 2.90625 -2.390625 3.046875 -2.5 3.203125 -2.5625 C 3.359375 -2.632812 3.535156 -2.671875 3.734375 -2.671875 C 3.960938 -2.671875 4.148438 -2.613281 4.296875 -2.5 C 4.453125 -2.394531 4.566406 -2.25 4.640625 -2.0625 C 4.710938 -1.875 4.75 -1.671875 4.75 -1.453125 L 4.75 0 L 3.859375 0 L 3.859375 -1.453125 C 3.859375 -1.578125 3.832031 -1.691406 3.78125 -1.796875 C 3.726562 -1.898438 3.628906 -1.953125 3.484375 -1.953125 C 3.367188 -1.953125 3.273438 -1.921875 3.203125 -1.859375 C 3.128906 -1.796875 3.078125 -1.71875 3.046875 -1.625 C 3.015625 -1.53125 3 -1.429688 3 -1.328125 Z M 3 -1.328125 "/></g></g></g><g fill="#00ff0a" fill-opacity="1"><g transform="translate(31.414895, 78.896586)"><g><path d="M 1.15625 -1.625 L 2.328125 -1.625 C 2.328125 -1.625 2.320312 -1.644531 2.3125 -1.6875 C 2.300781 -1.738281 2.273438 -1.796875 2.234375 -1.859375 C 2.203125 -1.921875 2.144531 -1.976562 2.0625 -2.03125 C 1.988281 -2.082031 1.882812 -2.109375 1.75 -2.109375 C 1.613281 -2.109375 1.503906 -2.082031 1.421875 -2.03125 C 1.347656 -1.976562 1.289062 -1.921875 1.25 -1.859375 C 1.207031 -1.796875 1.179688 -1.738281 1.171875 -1.6875 C 1.160156 -1.644531 1.15625 -1.625 1.15625 -1.625 Z M 3.1875 -1.359375 C 3.1875 -1.335938 3.1875 -1.3125 3.1875 -1.28125 C 3.1875 -1.25 3.1875 -1.222656 3.1875 -1.203125 L 1.15625 -1.203125 C 1.15625 -1.097656 1.175781 -1 1.21875 -0.90625 C 1.257812 -0.8125 1.320312 -0.734375 1.40625 -0.671875 C 1.5 -0.609375 1.601562 -0.578125 1.71875 -0.578125 C 1.875 -0.578125 2 -0.617188 2.09375 -0.703125 C 2.1875 -0.785156 2.234375 -0.875 2.234375 -0.96875 L 3.140625 -0.96875 C 3.066406 -0.625 2.898438 -0.363281 2.640625 -0.1875 C 2.378906 -0.0195312 2.078125 0.0625 1.734375 0.0625 C 1.429688 0.0625 1.164062 0.00390625 0.9375 -0.109375 C 0.707031 -0.222656 0.523438 -0.378906 0.390625 -0.578125 C 0.265625 -0.785156 0.203125 -1.03125 0.203125 -1.3125 C 0.203125 -1.582031 0.269531 -1.816406 0.40625 -2.015625 C 0.539062 -2.222656 0.722656 -2.382812 0.953125 -2.5 C 1.179688 -2.613281 1.441406 -2.671875 1.734375 -2.671875 C 1.992188 -2.671875 2.234375 -2.617188 2.453125 -2.515625 C 2.679688 -2.421875 2.859375 -2.273438 2.984375 -2.078125 C 3.117188 -1.878906 3.1875 -1.640625 3.1875 -1.359375 Z M 3.1875 -1.359375 "/></g></g></g><g fill="#00ff0a" fill-opacity="1"><g transform="translate(4.972926, 95.291984)"><g><path d="M 3.53125 0 L 2.640625 0 L 1.25 -2.515625 L 1.25 0 L 0.359375 0 L 0.359375 -4.03125 L 1.25 -4.03125 L 2.640625 -1.515625 L 2.640625 -4.03125 L 3.53125 -4.03125 Z M 3.53125 0 "/></g></g></g><g fill="#00ff0a" fill-opacity="1"><g transform="translate(8.859878, 95.291984)"><g><path d="M 1.703125 -0.625 C 1.859375 -0.625 1.976562 -0.65625 2.0625 -0.71875 C 2.15625 -0.78125 2.21875 -0.863281 2.25 -0.96875 C 2.289062 -1.082031 2.3125 -1.191406 2.3125 -1.296875 C 2.3125 -1.410156 2.289062 -1.519531 2.25 -1.625 C 2.21875 -1.726562 2.15625 -1.8125 2.0625 -1.875 C 1.976562 -1.945312 1.859375 -1.984375 1.703125 -1.984375 C 1.546875 -1.984375 1.421875 -1.945312 1.328125 -1.875 C 1.242188 -1.8125 1.179688 -1.726562 1.140625 -1.625 C 1.109375 -1.519531 1.09375 -1.410156 1.09375 -1.296875 C 1.09375 -1.191406 1.109375 -1.082031 1.140625 -0.96875 C 1.179688 -0.863281 1.242188 -0.78125 1.328125 -0.71875 C 1.421875 -0.65625 1.546875 -0.625 1.703125 -0.625 Z M 1.703125 -2.671875 C 1.972656 -2.671875 2.222656 -2.613281 2.453125 -2.5 C 2.679688 -2.382812 2.859375 -2.222656 2.984375 -2.015625 C 3.117188 -1.816406 3.1875 -1.582031 3.1875 -1.3125 C 3.1875 -1.03125 3.117188 -0.785156 2.984375 -0.578125 C 2.859375 -0.378906 2.679688 -0.222656 2.453125 -0.109375 C 2.234375 -0.00390625 1.984375 0.046875 1.703125 0.046875 C 1.421875 0.046875 1.164062 -0.00390625 0.9375 -0.109375 C 0.71875 -0.222656 0.539062 -0.378906 0.40625 -0.578125 C 0.269531 -0.785156 0.203125 -1.03125 0.203125 -1.3125 C 0.203125 -1.582031 0.269531 -1.816406 0.40625 -2.015625 C 0.539062 -2.222656 0.722656 -2.382812 0.953125 -2.5 C 1.179688 -2.613281 1.429688 -2.671875 1.703125 -2.671875 Z M 1.703125 -2.671875 "/></g></g></g><g fill="#00ff0a" fill-opacity="1"><g transform="translate(12.265418, 95.291984)"><g><path d="M 1.484375 -1.9375 L 1.484375 0 L 0.59375 0 L 0.59375 -1.9375 L 0.125 -1.9375 L 0.125 -2.625 L 0.59375 -2.625 L 0.59375 -3.609375 L 1.484375 -3.609375 L 1.484375 -2.625 L 1.953125 -2.625 L 1.953125 -1.9375 Z M 1.484375 -1.9375 "/></g></g></g><g fill="#00ff0a" fill-opacity="1"><g transform="translate(14.339647, 95.291984)"><g><path d="M 1.15625 -1.625 L 2.328125 -1.625 C 2.328125 -1.625 2.320312 -1.644531 2.3125 -1.6875 C 2.300781 -1.738281 2.273438 -1.796875 2.234375 -1.859375 C 2.203125 -1.921875 2.144531 -1.976562 2.0625 -2.03125 C 1.988281 -2.082031 1.882812 -2.109375 1.75 -2.109375 C 1.613281 -2.109375 1.503906 -2.082031 1.421875 -2.03125 C 1.347656 -1.976562 1.289062 -1.921875 1.25 -1.859375 C 1.207031 -1.796875 1.179688 -1.738281 1.171875 -1.6875 C 1.160156 -1.644531 1.15625 -1.625 1.15625 -1.625 Z M 3.1875 -1.359375 C 3.1875 -1.335938 3.1875 -1.3125 3.1875 -1.28125 C 3.1875 -1.25 3.1875 -1.222656 3.1875 -1.203125 L 1.15625 -1.203125 C 1.15625 -1.097656 1.175781 -1 1.21875 -0.90625 C 1.257812 -0.8125 1.320312 -0.734375 1.40625 -0.671875 C 1.5 -0.609375 1.601562 -0.578125 1.71875 -0.578125 C 1.875 -0.578125 2 -0.617188 2.09375 -0.703125 C 2.1875 -0.785156 2.234375 -0.875 2.234375 -0.96875 L 3.140625 -0.96875 C 3.066406 -0.625 2.898438 -0.363281 2.640625 -0.1875 C 2.378906 -0.0195312 2.078125 0.0625 1.734375 0.0625 C 1.429688 0.0625 1.164062 0.00390625 0.9375 -0.109375 C 0.707031 -0.222656 0.523438 -0.378906 0.390625 -0.578125 C 0.265625 -0.785156 0.203125 -1.03125 0.203125 -1.3125 C 0.203125 -1.582031 0.269531 -1.816406 0.40625 -2.015625 C 0.539062 -2.222656 0.722656 -2.382812 0.953125 -2.5 C 1.179688 -2.613281 1.441406 -2.671875 1.734375 -2.671875 C 1.992188 -2.671875 2.234375 -2.617188 2.453125 -2.515625 C 2.679688 -2.421875 2.859375 -2.273438 2.984375 -2.078125 C 3.117188 -1.878906 3.1875 -1.640625 3.1875 -1.359375 Z M 3.1875 -1.359375 "/></g></g></g><g fill="#ffffff" fill-opacity="1"><g transform="translate(64.3144, 20.652316)"><g><path d="M 0.796875 0.0625 C 0.703125 0.0625 0.625 0.0234375 0.5625 -0.046875 C 0.488281 -0.109375 0.453125 -0.1875 0.453125 -0.28125 C 0.453125 -0.363281 0.484375 -0.441406 0.546875 -0.515625 C 0.617188 -0.578125 0.703125 -0.609375 0.796875 -0.609375 C 0.890625 -0.609375 0.972656 -0.578125 1.046875 -0.515625 C 1.117188 -0.453125 1.15625 -0.375 1.15625 -0.28125 C 1.15625 -0.1875 1.117188 -0.109375 1.046875 -0.046875 C 0.972656 0.0234375 0.890625 0.0625 0.796875 0.0625 Z M 0.796875 -2.25 C 0.703125 -2.25 0.625 -2.285156 0.5625 -2.359375 C 0.488281 -2.421875 0.453125 -2.5 0.453125 -2.59375 C 0.453125 -2.6875 0.484375 -2.765625 0.546875 -2.828125 C 0.617188 -2.898438 0.703125 -2.9375 0.796875 -2.9375 C 0.890625 -2.9375 0.972656 -2.90625 1.046875 -2.84375 C 1.117188 -2.769531 1.15625 -2.6875 1.15625 -2.59375 C 1.15625 -2.5 1.117188 -2.421875 1.046875 -2.359375 C 0.972656 -2.285156 0.890625 -2.25 0.796875 -2.25 Z M 0.796875 -2.25 "/></g></g></g><g fill="#ffffff" fill-opacity="1"><g transform="translate(65.913432, 20.652316)"><g/></g></g><g fill="#ffffff" fill-opacity="1"><g transform="translate(67.53043, 20.652316)"><g><path d="M 0.875 -0.421875 L 2.328125 -0.421875 L 2.328125 0 L 0.453125 0 L 0.453125 -4.0625 L 0.875 -4.0625 Z M 0.875 -0.421875 "/></g></g></g><g fill="#ffffff" fill-opacity="1"><g transform="translate(69.973894, 20.652316)"><g><path d="M 2.609375 -1.328125 C 2.609375 -1.585938 2.515625 -1.8125 2.328125 -2 C 2.140625 -2.1875 1.910156 -2.28125 1.640625 -2.28125 C 1.378906 -2.28125 1.15625 -2.1875 0.96875 -2 C 0.78125 -1.8125 0.6875 -1.585938 0.6875 -1.328125 C 0.6875 -1.066406 0.78125 -0.84375 0.96875 -0.65625 C 1.15625 -0.46875 1.378906 -0.375 1.640625 -0.375 C 1.910156 -0.375 2.140625 -0.46875 2.328125 -0.65625 C 2.515625 -0.84375 2.609375 -1.066406 2.609375 -1.328125 Z M 3.015625 -1.328125 C 3.015625 -0.941406 2.882812 -0.617188 2.625 -0.359375 C 2.34375 -0.0859375 2.015625 0.046875 1.640625 0.046875 C 1.265625 0.046875 0.941406 -0.0859375 0.671875 -0.359375 C 0.398438 -0.617188 0.265625 -0.941406 0.265625 -1.328125 C 0.265625 -1.703125 0.398438 -2.023438 0.671875 -2.296875 C 0.941406 -2.566406 1.265625 -2.703125 1.640625 -2.703125 C 2.023438 -2.703125 2.351562 -2.566406 2.625 -2.296875 C 2.882812 -2.023438 3.015625 -1.703125 3.015625 -1.328125 Z M 3.015625 -1.328125 "/></g></g></g><g fill="#ffffff" fill-opacity="1"><g transform="translate(73.267778, 20.652316)"><g><path d="M 2.265625 0 L 2.265625 -1.640625 C 2.265625 -1.816406 2.226562 -1.96875 2.15625 -2.09375 C 2.070312 -2.207031 1.941406 -2.265625 1.765625 -2.265625 C 1.585938 -2.265625 1.441406 -2.234375 1.328125 -2.171875 C 1.210938 -2.097656 1.125 -2.007812 1.0625 -1.90625 C 0.9375 -1.707031 0.875 -1.4375 0.875 -1.09375 L 0.875 0 L 0.453125 0 L 0.453125 -2.640625 L 0.875 -2.640625 L 0.875 -2.171875 C 0.957031 -2.328125 1.066406 -2.453125 1.203125 -2.546875 C 1.347656 -2.640625 1.515625 -2.6875 1.703125 -2.6875 C 1.890625 -2.6875 2.039062 -2.660156 2.15625 -2.609375 C 2.269531 -2.554688 2.367188 -2.484375 2.453125 -2.390625 C 2.609375 -2.203125 2.6875 -1.953125 2.6875 -1.640625 L 2.6875 0 Z M 2.265625 0 "/></g></g></g><g fill="#ffffff" fill-opacity="1"><g transform="translate(76.316119, 20.652316)"><g><path d="M 2.578125 -1.3125 C 2.578125 -1.570312 2.488281 -1.796875 2.3125 -1.984375 C 2.132812 -2.179688 1.914062 -2.28125 1.65625 -2.28125 C 1.394531 -2.28125 1.175781 -2.179688 1 -1.984375 C 0.8125 -1.796875 0.71875 -1.570312 0.71875 -1.3125 C 0.71875 -1.050781 0.8125 -0.828125 1 -0.640625 C 1.175781 -0.453125 1.394531 -0.359375 1.65625 -0.359375 C 1.914062 -0.359375 2.132812 -0.453125 2.3125 -0.640625 C 2.488281 -0.835938 2.578125 -1.0625 2.578125 -1.3125 Z M 0.71875 0.359375 C 0.75 0.523438 0.832031 0.671875 0.96875 0.796875 C 1.15625 0.984375 1.378906 1.078125 1.640625 1.078125 C 1.890625 1.078125 2.109375 0.984375 2.296875 0.796875 C 2.484375 0.609375 2.578125 0.382812 2.578125 0.125 L 2.578125 -0.4375 C 2.554688 -0.414062 2.535156 -0.390625 2.515625 -0.359375 C 2.265625 -0.078125 1.957031 0.0625 1.59375 0.0625 C 1.226562 0.0625 0.921875 -0.078125 0.671875 -0.359375 C 0.429688 -0.628906 0.3125 -0.945312 0.3125 -1.3125 C 0.3125 -1.675781 0.429688 -2 0.671875 -2.28125 C 0.921875 -2.550781 1.226562 -2.6875 1.59375 -2.6875 C 1.945312 -2.6875 2.253906 -2.550781 2.515625 -2.28125 C 2.535156 -2.25 2.554688 -2.21875 2.578125 -2.1875 L 2.578125 -2.640625 L 3 -2.640625 L 3 0.125 C 3 0.5 2.863281 0.820312 2.59375 1.09375 C 2.332031 1.363281 2.015625 1.5 1.640625 1.5 C 1.265625 1.5 0.941406 1.363281 0.671875 1.09375 C 0.460938 0.882812 0.332031 0.640625 0.28125 0.359375 Z M 0.71875 0.359375 "/></g></g></g><g fill="#ffffff" fill-opacity="1"><g transform="translate(79.765714, 20.652316)"><g><path d="M 3.03125 -4.484375 L 0.703125 1.203125 L 0.25 1.203125 L 2.578125 -4.484375 Z M 3.03125 -4.484375 "/></g></g></g><g fill="#ffffff" fill-opacity="1"><g transform="translate(82.987731, 20.652316)"><g><path d="M 1.578125 -1.921875 C 0.742188 -2.109375 0.328125 -2.460938 0.328125 -2.984375 C 0.328125 -3.367188 0.460938 -3.65625 0.734375 -3.84375 C 1.003906 -4.03125 1.316406 -4.125 1.671875 -4.125 C 2.460938 -4.125 2.9375 -3.832031 3.09375 -3.25 L 2.640625 -3.25 C 2.554688 -3.59375 2.234375 -3.765625 1.671875 -3.765625 C 1.285156 -3.765625 1.015625 -3.648438 0.859375 -3.421875 C 0.796875 -3.335938 0.765625 -3.226562 0.765625 -3.09375 C 0.765625 -2.84375 0.898438 -2.648438 1.171875 -2.515625 C 1.296875 -2.441406 1.566406 -2.351562 1.984375 -2.25 C 2.398438 -2.144531 2.703125 -2.023438 2.890625 -1.890625 C 3.148438 -1.703125 3.28125 -1.445312 3.28125 -1.125 C 3.28125 -0.707031 3.117188 -0.394531 2.796875 -0.1875 C 2.523438 -0.0078125 2.191406 0.078125 1.796875 0.078125 C 0.890625 0.078125 0.363281 -0.265625 0.21875 -0.953125 L 0.71875 -0.953125 C 0.789062 -0.523438 1.148438 -0.3125 1.796875 -0.3125 C 2.242188 -0.3125 2.554688 -0.4375 2.734375 -0.6875 C 2.804688 -0.78125 2.84375 -0.914062 2.84375 -1.09375 C 2.84375 -1.257812 2.78125 -1.394531 2.65625 -1.5 C 2.46875 -1.65625 2.109375 -1.796875 1.578125 -1.921875 Z M 1.578125 -1.921875 "/></g></g></g><g fill="#ffffff" fill-opacity="1"><g transform="translate(86.425349, 20.652316)"><g><path d="M 0.875 0 L 0.453125 0 L 0.453125 -4.484375 L 0.875 -4.484375 L 0.875 -2.171875 C 0.957031 -2.328125 1.066406 -2.453125 1.203125 -2.546875 C 1.347656 -2.640625 1.515625 -2.6875 1.703125 -2.6875 C 1.890625 -2.6875 2.039062 -2.660156 2.15625 -2.609375 C 2.269531 -2.554688 2.367188 -2.484375 2.453125 -2.390625 C 2.609375 -2.203125 2.6875 -1.953125 2.6875 -1.640625 L 2.6875 0 L 2.265625 0 L 2.265625 -1.640625 C 2.265625 -1.816406 2.226562 -1.96875 2.15625 -2.09375 C 2.070312 -2.207031 1.941406 -2.265625 1.765625 -2.265625 C 1.585938 -2.265625 1.441406 -2.238281 1.328125 -2.1875 C 1.210938 -2.125 1.125 -2.039062 1.0625 -1.9375 C 0.9375 -1.75 0.875 -1.46875 0.875 -1.09375 Z M 0.875 0 "/></g></g></g><g fill="#ffffff" fill-opacity="1"><g transform="translate(89.47369, 20.652316)"><g><path d="M 2.609375 -1.328125 C 2.609375 -1.585938 2.515625 -1.8125 2.328125 -2 C 2.140625 -2.1875 1.910156 -2.28125 1.640625 -2.28125 C 1.378906 -2.28125 1.15625 -2.1875 0.96875 -2 C 0.78125 -1.8125 0.6875 -1.585938 0.6875 -1.328125 C 0.6875 -1.066406 0.78125 -0.84375 0.96875 -0.65625 C 1.15625 -0.46875 1.378906 -0.375 1.640625 -0.375 C 1.910156 -0.375 2.140625 -0.46875 2.328125 -0.65625 C 2.515625 -0.84375 2.609375 -1.066406 2.609375 -1.328125 Z M 3.015625 -1.328125 C 3.015625 -0.941406 2.882812 -0.617188 2.625 -0.359375 C 2.34375 -0.0859375 2.015625 0.046875 1.640625 0.046875 C 1.265625 0.046875 0.941406 -0.0859375 0.671875 -0.359375 C 0.398438 -0.617188 0.265625 -0.941406 0.265625 -1.328125 C 0.265625 -1.703125 0.398438 -2.023438 0.671875 -2.296875 C 0.941406 -2.566406 1.265625 -2.703125 1.640625 -2.703125 C 2.023438 -2.703125 2.351562 -2.566406 2.625 -2.296875 C 2.882812 -2.023438 3.015625 -1.703125 3.015625 -1.328125 Z M 3.015625 -1.328125 "/></g></g></g><g fill="#ffffff" fill-opacity="1"><g transform="translate(92.767574, 20.652316)"><g><path d="M 1.796875 -2.09375 C 1.703125 -2.175781 1.597656 -2.21875 1.484375 -2.21875 C 1.378906 -2.21875 1.289062 -2.1875 1.21875 -2.125 C 1.132812 -2.0625 1.066406 -1.988281 1.015625 -1.90625 C 0.921875 -1.726562 0.875 -1.53125 0.875 -1.3125 L 0.875 0 L 0.453125 0 L 0.453125 -2.640625 L 0.875 -2.640625 L 0.875 -2.09375 L 0.890625 -2.203125 C 1.023438 -2.523438 1.238281 -2.6875 1.53125 -2.6875 C 1.625 -2.6875 1.710938 -2.671875 1.796875 -2.640625 Z M 1.796875 -2.09375 "/></g></g></g><g fill="#ffffff" fill-opacity="1"><g transform="translate(94.630117, 20.652316)"><g><path d="M 0.125 -2.25 L 0.125 -2.640625 L 0.78125 -2.640625 L 0.78125 -3.65625 L 1.203125 -3.65625 L 1.203125 -2.640625 L 1.84375 -2.640625 L 1.84375 -2.25 L 1.203125 -2.25 L 1.203125 0 L 0.78125 0 L 0.78125 -2.25 Z M 0.125 -2.25 "/></g></g></g><g fill="#ffffff" fill-opacity="1"><g transform="translate(64.3144, 28.957422)"><g><path d="M 0.796875 0.0625 C 0.703125 0.0625 0.625 0.0234375 0.5625 -0.046875 C 0.488281 -0.109375 0.453125 -0.1875 0.453125 -0.28125 C 0.453125 -0.363281 0.484375 -0.441406 0.546875 -0.515625 C 0.617188 -0.578125 0.703125 -0.609375 0.796875 -0.609375 C 0.890625 -0.609375 0.972656 -0.578125 1.046875 -0.515625 C 1.117188 -0.453125 1.15625 -0.375 1.15625 -0.28125 C 1.15625 -0.1875 1.117188 -0.109375 1.046875 -0.046875 C 0.972656 0.0234375 0.890625 0.0625 0.796875 0.0625 Z M 0.796875 -2.25 C 0.703125 -2.25 0.625 -2.285156 0.5625 -2.359375 C 0.488281 -2.421875 0.453125 -2.5 0.453125 -2.59375 C 0.453125 -2.6875 0.484375 -2.765625 0.546875 -2.828125 C 0.617188 -2.898438 0.703125 -2.9375 0.796875 -2.9375 C 0.890625 -2.9375 0.972656 -2.90625 1.046875 -2.84375 C 1.117188 -2.769531 1.15625 -2.6875 1.15625 -2.59375 C 1.15625 -2.5 1.117188 -2.421875 1.046875 -2.359375 C 0.972656 -2.285156 0.890625 -2.25 0.796875 -2.25 Z M 0.796875 -2.25 "/></g></g></g><g fill="#ffffff" fill-opacity="1"><g transform="translate(65.913432, 28.957422)"><g/></g></g><g fill="#ffffff" fill-opacity="1"><g transform="translate(67.53043, 28.957422)"><g><path d="M 2.234375 -1.15625 L 0.234375 -1.15625 L 0.234375 -1.5 L 2.234375 -1.5 Z M 2.234375 -1.15625 "/></g></g></g><g fill="#ffffff" fill-opacity="1"><g transform="translate(64.3144, 37.262528)"><g><path d="M 0.796875 0.0625 C 0.703125 0.0625 0.625 0.0234375 0.5625 -0.046875 C 0.488281 -0.109375 0.453125 -0.1875 0.453125 -0.28125 C 0.453125 -0.363281 0.484375 -0.441406 0.546875 -0.515625 C 0.617188 -0.578125 0.703125 -0.609375 0.796875 -0.609375 C 0.890625 -0.609375 0.972656 -0.578125 1.046875 -0.515625 C 1.117188 -0.453125 1.15625 -0.375 1.15625 -0.28125 C 1.15625 -0.1875 1.117188 -0.109375 1.046875 -0.046875 C 0.972656 0.0234375 0.890625 0.0625 0.796875 0.0625 Z M 0.796875 -2.25 C 0.703125 -2.25 0.625 -2.285156 0.5625 -2.359375 C 0.488281 -2.421875 0.453125 -2.5 0.453125 -2.59375 C 0.453125 -2.6875 0.484375 -2.765625 0.546875 -2.828125 C 0.617188 -2.898438 0.703125 -2.9375 0.796875 -2.9375 C 0.890625 -2.9375 0.972656 -2.90625 1.046875 -2.84375 C 1.117188 -2.769531 1.15625 -2.6875 1.15625 -2.59375 C 1.15625 -2.5 1.117188 -2.421875 1.046875 -2.359375 C 0.972656 -2.285156 0.890625 -2.25 0.796875 -2.25 Z M 0.796875 -2.25 "/></g></g></g><g fill="#ffffff" fill-opacity="1"><g transform="translate(65.913432, 37.262528)"><g/></g></g><g fill="#ffffff" fill-opacity="1"><g transform="translate(67.53043, 37.262528)"><g><path d="M 2.234375 -1.15625 L 0.234375 -1.15625 L 0.234375 -1.5 L 2.234375 -1.5 Z M 2.234375 -1.15625 "/></g></g></g><g fill="#ffffff" fill-opacity="1"><g transform="translate(69.987434, 37.262528)"><g/></g></g><g fill="#ffffff" fill-opacity="1"><g transform="translate(64.3144, 53.87274)"><g><path d="M 0.796875 0.0625 C 0.703125 0.0625 0.625 0.0234375 0.5625 -0.046875 C 0.488281 -0.109375 0.453125 -0.1875 0.453125 -0.28125 C 0.453125 -0.363281 0.484375 -0.441406 0.546875 -0.515625 C 0.617188 -0.578125 0.703125 -0.609375 0.796875 -0.609375 C 0.890625 -0.609375 0.972656 -0.578125 1.046875 -0.515625 C 1.117188 -0.453125 1.15625 -0.375 1.15625 -0.28125 C 1.15625 -0.1875 1.117188 -0.109375 1.046875 -0.046875 C 0.972656 0.0234375 0.890625 0.0625 0.796875 0.0625 Z M 0.796875 -2.25 C 0.703125 -2.25 0.625 -2.285156 0.5625 -2.359375 C 0.488281 -2.421875 0.453125 -2.5 0.453125 -2.59375 C 0.453125 -2.6875 0.484375 -2.765625 0.546875 -2.828125 C 0.617188 -2.898438 0.703125 -2.9375 0.796875 -2.9375 C 0.890625 -2.9375 0.972656 -2.90625 1.046875 -2.84375 C 1.117188 -2.769531 1.15625 -2.6875 1.15625 -2.59375 C 1.15625 -2.5 1.117188 -2.421875 1.046875 -2.359375 C 0.972656 -2.285156 0.890625 -2.25 0.796875 -2.25 Z M 0.796875 -2.25 "/></g></g></g><g fill="#ffffff" fill-opacity="1"><g transform="translate(65.913432, 53.87274)"><g/></g></g><g fill="#ffffff" fill-opacity="1"><g transform="translate(67.53043, 53.87274)"><g><path d="M 2.234375 -1.15625 L 0.234375 -1.15625 L 0.234375 -1.5 L 2.234375 -1.5 Z M 2.234375 -1.15625 "/></g></g></g><g fill="#ffffff" fill-opacity="1"><g transform="translate(64.3144, 62.177846)"><g><path d="M 0.796875 0.0625 C 0.703125 0.0625 0.625 0.0234375 0.5625 -0.046875 C 0.488281 -0.109375 0.453125 -0.1875 0.453125 -0.28125 C 0.453125 -0.363281 0.484375 -0.441406 0.546875 -0.515625 C 0.617188 -0.578125 0.703125 -0.609375 0.796875 -0.609375 C 0.890625 -0.609375 0.972656 -0.578125 1.046875 -0.515625 C 1.117188 -0.453125 1.15625 -0.375 1.15625 -0.28125 C 1.15625 -0.1875 1.117188 -0.109375 1.046875 -0.046875 C 0.972656 0.0234375 0.890625 0.0625 0.796875 0.0625 Z M 0.796875 -2.25 C 0.703125 -2.25 0.625 -2.285156 0.5625 -2.359375 C 0.488281 -2.421875 0.453125 -2.5 0.453125 -2.59375 C 0.453125 -2.6875 0.484375 -2.765625 0.546875 -2.828125 C 0.617188 -2.898438 0.703125 -2.9375 0.796875 -2.9375 C 0.890625 -2.9375 0.972656 -2.90625 1.046875 -2.84375 C 1.117188 -2.769531 1.15625 -2.6875 1.15625 -2.59375 C 1.15625 -2.5 1.117188 -2.421875 1.046875 -2.359375 C 0.972656 -2.285156 0.890625 -2.25 0.796875 -2.25 Z M 0.796875 -2.25 "/></g></g></g><g fill="#ffffff" fill-opacity="1"><g transform="translate(65.913432, 62.177846)"><g/></g></g><g fill="#ffffff" fill-opacity="1"><g transform="translate(67.53043, 62.177846)"><g><path d="M 2.234375 -1.15625 L 0.234375 -1.15625 L 0.234375 -1.5 L 2.234375 -1.5 Z M 2.234375 -1.15625 "/></g></g></g><g fill="#ffffff" fill-opacity="1"><g transform="translate(64.3144, 78.788058)"><g><path d="M 0.796875 0.0625 C 0.703125 0.0625 0.625 0.0234375 0.5625 -0.046875 C 0.488281 -0.109375 0.453125 -0.1875 0.453125 -0.28125 C 0.453125 -0.363281 0.484375 -0.441406 0.546875 -0.515625 C 0.617188 -0.578125 0.703125 -0.609375 0.796875 -0.609375 C 0.890625 -0.609375 0.972656 -0.578125 1.046875 -0.515625 C 1.117188 -0.453125 1.15625 -0.375 1.15625 -0.28125 C 1.15625 -0.1875 1.117188 -0.109375 1.046875 -0.046875 C 0.972656 0.0234375 0.890625 0.0625 0.796875 0.0625 Z M 0.796875 -2.25 C 0.703125 -2.25 0.625 -2.285156 0.5625 -2.359375 C 0.488281 -2.421875 0.453125 -2.5 0.453125 -2.59375 C 0.453125 -2.6875 0.484375 -2.765625 0.546875 -2.828125 C 0.617188 -2.898438 0.703125 -2.9375 0.796875 -2.9375 C 0.890625 -2.9375 0.972656 -2.90625 1.046875 -2.84375 C 1.117188 -2.769531 1.15625 -2.6875 1.15625 -2.59375 C 1.15625 -2.5 1.117188 -2.421875 1.046875 -2.359375 C 0.972656 -2.285156 0.890625 -2.25 0.796875 -2.25 Z M 0.796875 -2.25 "/></g></g></g><g fill="#ffffff" fill-opacity="1"><g transform="translate(65.913432, 78.788058)"><g/></g></g><g fill="#ffffff" fill-opacity="1"><g transform="translate(67.53043, 78.788058)"><g><path d="M 2.234375 -1.15625 L 0.234375 -1.15625 L 0.234375 -1.5 L 2.234375 -1.5 Z M 2.234375 -1.15625 "/></g></g></g><g fill="#ffffff" fill-opacity="1"><g transform="translate(64.3144, 95.39827)"><g><path d="M 0.796875 0.0625 C 0.703125 0.0625 0.625 0.0234375 0.5625 -0.046875 C 0.488281 -0.109375 0.453125 -0.1875 0.453125 -0.28125 C 0.453125 -0.363281 0.484375 -0.441406 0.546875 -0.515625 C 0.617188 -0.578125 0.703125 -0.609375 0.796875 -0.609375 C 0.890625 -0.609375 0.972656 -0.578125 1.046875 -0.515625 C 1.117188 -0.453125 1.15625 -0.375 1.15625 -0.28125 C 1.15625 -0.1875 1.117188 -0.109375 1.046875 -0.046875 C 0.972656 0.0234375 0.890625 0.0625 0.796875 0.0625 Z M 0.796875 -2.25 C 0.703125 -2.25 0.625 -2.285156 0.5625 -2.359375 C 0.488281 -2.421875 0.453125 -2.5 0.453125 -2.59375 C 0.453125 -2.6875 0.484375 -2.765625 0.546875 -2.828125 C 0.617188 -2.898438 0.703125 -2.9375 0.796875 -2.9375 C 0.890625 -2.9375 0.972656 -2.90625 1.046875 -2.84375 C 1.117188 -2.769531 1.15625 -2.6875 1.15625 -2.59375 C 1.15625 -2.5 1.117188 -2.421875 1.046875 -2.359375 C 0.972656 -2.285156 0.890625 -2.25 0.796875 -2.25 Z M 0.796875 -2.25 "/></g></g></g><g fill="#ffffff" fill-opacity="1"><g transform="translate(65.913432, 95.39827)"><g/></g></g><g fill="#ffffff" fill-opacity="1"><g transform="translate(67.53043, 95.39827)"><g><path d="M 2.234375 -1.15625 L 0.234375 -1.15625 L 0.234375 -1.5 L 2.234375 -1.5 Z M 2.234375 -1.15625 "/></g></g></g></svg>