<svg xmlns="http://www.w3.org/2000/svg" xmlns:xlink="http://www.w3.org/1999/xlink" width="290" zoomAndPan="magnify" viewBox="0 0 217.5 173.999997" height="232" preserveAspectRatio="xMidYMid meet" version="1.0"><defs><g/><clipPath id="9899bc9b21"><path d="M 0 0.199219 L 217 0.199219 L 217 173.800781 L 0 173.800781 Z M 0 0.199219 " clip-rule="nonzero"/></clipPath></defs><g clip-path="url(#9899bc9b21)"><path fill="#ffffff" d="M 0 0.199219 L 217 0.199219 L 217 173.800781 L 0 173.800781 Z M 0 0.199219 " fill-opacity="1" fill-rule="nonzero"/><path fill="#000000" d="M 0 0.199219 L 217 0.199219 L 217 173.800781 L 0 173.800781 Z M 0 0.199219 " fill-opacity="1" fill-rule="nonzero"/></g><g fill="#00ff0a" fill-opacity="1"><g transform="translate(7.930048, 18.199304)"><g><path d="M 4.046875 -2.078125 C 4.046875 -2.304688 3.957031 -2.503906 3.78125 -2.671875 C 3.613281 -2.847656 3.414062 -2.9375 3.1875 -2.9375 L 2.1875 -2.9375 L 2.1875 -1.21875 L 3.1875 -1.21875 C 3.414062 -1.21875 3.613281 -1.300781 3.78125 -1.46875 C 3.957031 -1.632812 4.046875 -1.835938 4.046875 -2.078125 Z M 3.5625 -5.046875 C 3.5625 -5.273438 3.476562 -5.46875 3.3125 -5.625 C 3.144531 -5.78125 2.953125 -5.859375 2.734375 -5.859375 L 2.1875 -5.859375 L 2.1875 -4.21875 L 2.734375 -4.21875 C 2.953125 -4.21875 3.144531 -4.296875 3.3125 -4.453125 C 3.476562 -4.617188 3.5625 -4.816406 3.5625 -5.046875 Z M 5.640625 -2.03125 C 5.640625 -1.414062 5.453125 -0.921875 5.078125 -0.546875 C 4.703125 -0.179688 4.175781 0 3.5 0 L 0.625 0 L 0.625 -7.09375 L 3.0625 -7.09375 C 3.46875 -7.09375 3.816406 -7.015625 4.109375 -6.859375 C 4.410156 -6.703125 4.640625 -6.488281 4.796875 -6.21875 C 4.960938 -5.945312 5.046875 -5.648438 5.046875 -5.328125 C 5.046875 -4.960938 4.972656 -4.648438 4.828125 -4.390625 C 4.679688 -4.128906 4.472656 -3.9375 4.203125 -3.8125 C 4.597656 -3.726562 4.9375 -3.53125 5.21875 -3.21875 C 5.5 -2.90625 5.640625 -2.507812 5.640625 -2.03125 Z M 5.640625 -2.03125 "/></g></g></g><g fill="#00ff0a" fill-opacity="1"><g transform="translate(13.67989, 18.199304)"><g><path d="M 3.640625 -5.671875 L 3.640625 0 L 2.078125 0 L 2.078125 -5.671875 L 0.046875 -5.671875 L 0.046875 -7.09375 L 5.671875 -7.09375 L 5.671875 -5.671875 Z M 3.640625 -5.671875 "/></g></g></g><g fill="#00ff0a" fill-opacity="1"><g transform="translate(19.398427, 18.199304)"><g><path d="M 5.75 -2.40625 L 7.5 -2.40625 C 7.332031 -1.925781 7.078125 -1.492188 6.734375 -1.109375 C 6.398438 -0.734375 6 -0.4375 5.53125 -0.21875 C 5.0625 0 4.554688 0.109375 4.015625 0.109375 C 3.515625 0.109375 3.039062 0.015625 2.59375 -0.171875 C 2.15625 -0.359375 1.765625 -0.617188 1.421875 -0.953125 C 1.085938 -1.296875 0.828125 -1.6875 0.640625 -2.125 C 0.453125 -2.570312 0.359375 -3.046875 0.359375 -3.546875 C 0.359375 -4.046875 0.453125 -4.515625 0.640625 -4.953125 C 0.828125 -5.398438 1.085938 -5.789062 1.421875 -6.125 C 1.765625 -6.46875 2.15625 -6.734375 2.59375 -6.921875 C 3.039062 -7.109375 3.515625 -7.203125 4.015625 -7.203125 C 4.554688 -7.203125 5.054688 -7.09375 5.515625 -6.875 C 5.984375 -6.664062 6.390625 -6.375 6.734375 -6 C 7.078125 -5.625 7.328125 -5.191406 7.484375 -4.703125 L 5.734375 -4.703125 C 5.585938 -5.023438 5.351562 -5.273438 5.03125 -5.453125 C 4.71875 -5.640625 4.378906 -5.734375 4.015625 -5.734375 C 3.628906 -5.734375 3.28125 -5.632812 2.96875 -5.4375 C 2.65625 -5.238281 2.40625 -4.972656 2.21875 -4.640625 C 2.039062 -4.316406 1.953125 -3.953125 1.953125 -3.546875 C 1.953125 -3.140625 2.039062 -2.769531 2.21875 -2.4375 C 2.40625 -2.113281 2.65625 -1.851562 2.96875 -1.65625 C 3.28125 -1.457031 3.628906 -1.359375 4.015625 -1.359375 C 4.390625 -1.359375 4.734375 -1.453125 5.046875 -1.640625 C 5.367188 -1.835938 5.601562 -2.09375 5.75 -2.40625 Z M 5.75 -2.40625 "/></g></g></g><g fill="#00ff0a" fill-opacity="1"><g transform="translate(27.151843, 18.199304)"><g><path d="M 0.046875 2.171875 L 4.046875 -7.828125 L 5.484375 -7.828125 L 1.46875 2.171875 Z M 0.046875 2.171875 "/></g></g></g><g fill="#00ff0a" fill-opacity="1"><g transform="translate(32.55732, 18.199304)"><g><path d="M 4.765625 -7.09375 L 6.328125 -7.09375 L 6.328125 -2.765625 C 6.328125 -1.816406 6.070312 -1.097656 5.5625 -0.609375 C 5.050781 -0.128906 4.332031 0.109375 3.40625 0.109375 C 2.476562 0.109375 1.753906 -0.128906 1.234375 -0.609375 C 0.722656 -1.097656 0.46875 -1.816406 0.46875 -2.765625 L 0.46875 -7.09375 L 2.03125 -7.09375 L 2.03125 -3 C 2.03125 -2.507812 2.125 -2.128906 2.3125 -1.859375 C 2.507812 -1.597656 2.875 -1.46875 3.40625 -1.46875 C 3.9375 -1.46875 4.296875 -1.597656 4.484375 -1.859375 C 4.671875 -2.128906 4.765625 -2.507812 4.765625 -3 Z M 4.765625 -7.09375 "/></g></g></g><g fill="#00ff0a" fill-opacity="1"><g transform="translate(39.361123, 18.199304)"><g><path d="M 3.375 -1.109375 C 3.539062 -1.109375 3.722656 -1.132812 3.921875 -1.1875 C 4.117188 -1.238281 4.285156 -1.320312 4.421875 -1.4375 C 4.566406 -1.5625 4.640625 -1.726562 4.640625 -1.9375 C 4.640625 -2.132812 4.566406 -2.289062 4.421875 -2.40625 C 4.273438 -2.53125 4.078125 -2.628906 3.828125 -2.703125 C 3.585938 -2.773438 3.320312 -2.84375 3.03125 -2.90625 C 2.738281 -2.976562 2.445312 -3.0625 2.15625 -3.15625 C 1.863281 -3.25 1.59375 -3.367188 1.34375 -3.515625 C 1.101562 -3.671875 0.910156 -3.867188 0.765625 -4.109375 C 0.617188 -4.359375 0.546875 -4.671875 0.546875 -5.046875 C 0.546875 -5.421875 0.617188 -5.738281 0.765625 -6 C 0.921875 -6.269531 1.125 -6.492188 1.375 -6.671875 C 1.632812 -6.847656 1.921875 -6.976562 2.234375 -7.0625 C 2.554688 -7.15625 2.875 -7.203125 3.1875 -7.203125 C 3.675781 -7.203125 4.132812 -7.125 4.5625 -6.96875 C 4.988281 -6.820312 5.332031 -6.582031 5.59375 -6.25 C 5.863281 -5.914062 6.003906 -5.476562 6.015625 -4.9375 L 4.515625 -4.9375 C 4.472656 -5.300781 4.34375 -5.554688 4.125 -5.703125 C 3.90625 -5.847656 3.601562 -5.921875 3.21875 -5.921875 C 3.070312 -5.921875 2.914062 -5.894531 2.75 -5.84375 C 2.582031 -5.789062 2.441406 -5.710938 2.328125 -5.609375 C 2.210938 -5.503906 2.15625 -5.359375 2.15625 -5.171875 C 2.15625 -4.992188 2.226562 -4.851562 2.375 -4.75 C 2.53125 -4.644531 2.726562 -4.554688 2.96875 -4.484375 C 3.21875 -4.421875 3.488281 -4.359375 3.78125 -4.296875 C 4.070312 -4.234375 4.359375 -4.15625 4.640625 -4.0625 C 4.929688 -3.96875 5.195312 -3.84375 5.4375 -3.6875 C 5.6875 -3.53125 5.882812 -3.328125 6.03125 -3.078125 C 6.1875 -2.828125 6.265625 -2.507812 6.265625 -2.125 C 6.265625 -1.707031 6.179688 -1.347656 6.015625 -1.046875 C 5.847656 -0.753906 5.625 -0.519531 5.34375 -0.34375 C 5.0625 -0.164062 4.742188 -0.0351562 4.390625 0.046875 C 4.035156 0.128906 3.675781 0.171875 3.3125 0.171875 C 2.789062 0.171875 2.300781 0.0820312 1.84375 -0.09375 C 1.394531 -0.269531 1.03125 -0.539062 0.75 -0.90625 C 0.46875 -1.28125 0.320312 -1.757812 0.3125 -2.34375 L 1.90625 -2.34375 C 1.925781 -1.914062 2.082031 -1.601562 2.375 -1.40625 C 2.664062 -1.207031 3 -1.109375 3.375 -1.109375 Z M 3.375 -1.109375 "/></g></g></g><g fill="#00ff0a" fill-opacity="1"><g transform="translate(45.935351, 18.199304)"><g><path d="M 2.171875 -1.4375 L 2.640625 -1.4375 C 3.046875 -1.4375 3.398438 -1.53125 3.703125 -1.71875 C 4.003906 -1.90625 4.238281 -2.160156 4.40625 -2.484375 C 4.582031 -2.804688 4.671875 -3.160156 4.671875 -3.546875 C 4.671875 -3.941406 4.582031 -4.296875 4.40625 -4.609375 C 4.238281 -4.929688 4.003906 -5.179688 3.703125 -5.359375 C 3.398438 -5.546875 3.046875 -5.640625 2.640625 -5.640625 L 2.171875 -5.640625 Z M 0.625 -7.09375 L 2.734375 -7.09375 C 3.234375 -7.09375 3.695312 -7.003906 4.125 -6.828125 C 4.550781 -6.648438 4.925781 -6.398438 5.25 -6.078125 C 5.570312 -5.753906 5.820312 -5.375 6 -4.9375 C 6.175781 -4.507812 6.265625 -4.046875 6.265625 -3.546875 C 6.265625 -3.046875 6.175781 -2.578125 6 -2.140625 C 5.820312 -1.710938 5.570312 -1.335938 5.25 -1.015625 C 4.9375 -0.703125 4.5625 -0.453125 4.125 -0.265625 C 3.695312 -0.0859375 3.234375 0 2.734375 0 L 0.625 0 Z M 0.625 -7.09375 "/></g></g></g><g fill="#00ff0a" fill-opacity="1"><g transform="translate(52.561758, 18.199304)"><g><path d="M 3.640625 -5.671875 L 3.640625 0 L 2.078125 0 L 2.078125 -5.671875 L 0.046875 -5.671875 L 0.046875 -7.09375 L 5.671875 -7.09375 L 5.671875 -5.671875 Z M 3.640625 -5.671875 "/></g></g></g><g fill="#00ff0a" fill-opacity="1"><g transform="translate(7.930048, 32.592753)"><g><path d="M 2.1875 -2.53125 L 2.1875 0 L 0.625 0 L 0.625 -7.09375 L 3.28125 -7.09375 C 3.664062 -7.09375 4.023438 -6.992188 4.359375 -6.796875 C 4.691406 -6.609375 4.957031 -6.34375 5.15625 -6 C 5.351562 -5.664062 5.453125 -5.273438 5.453125 -4.828125 C 5.453125 -4.347656 5.351562 -3.9375 5.15625 -3.59375 C 4.957031 -3.25 4.691406 -2.984375 4.359375 -2.796875 C 4.023438 -2.617188 3.664062 -2.53125 3.28125 -2.53125 Z M 3.03125 -5.859375 L 2.1875 -5.859375 L 2.1875 -3.765625 L 3.03125 -3.765625 C 3.257812 -3.765625 3.472656 -3.851562 3.671875 -4.03125 C 3.867188 -4.21875 3.96875 -4.484375 3.96875 -4.828125 C 3.96875 -5.148438 3.867188 -5.398438 3.671875 -5.578125 C 3.472656 -5.765625 3.257812 -5.859375 3.03125 -5.859375 Z M 3.03125 -5.859375 "/></g></g></g><g fill="#00ff0a" fill-opacity="1"><g transform="translate(13.544231, 32.592753)"><g><path d="M 3 -1.078125 C 3.269531 -1.078125 3.484375 -1.132812 3.640625 -1.25 C 3.796875 -1.375 3.90625 -1.53125 3.96875 -1.71875 C 4.03125 -1.90625 4.0625 -2.09375 4.0625 -2.28125 C 4.0625 -2.476562 4.023438 -2.664062 3.953125 -2.84375 C 3.890625 -3.03125 3.78125 -3.179688 3.625 -3.296875 C 3.476562 -3.410156 3.269531 -3.46875 3 -3.46875 C 2.726562 -3.46875 2.515625 -3.410156 2.359375 -3.296875 C 2.203125 -3.179688 2.085938 -3.03125 2.015625 -2.84375 C 1.953125 -2.664062 1.921875 -2.476562 1.921875 -2.28125 C 1.921875 -2.09375 1.953125 -1.90625 2.015625 -1.71875 C 2.078125 -1.53125 2.1875 -1.375 2.34375 -1.25 C 2.5 -1.132812 2.71875 -1.078125 3 -1.078125 Z M 3 -4.703125 C 3.476562 -4.703125 3.914062 -4.597656 4.3125 -4.390625 C 4.707031 -4.191406 5.019531 -3.910156 5.25 -3.546875 C 5.488281 -3.191406 5.609375 -2.773438 5.609375 -2.296875 C 5.609375 -1.804688 5.492188 -1.378906 5.265625 -1.015625 C 5.035156 -0.660156 4.71875 -0.382812 4.3125 -0.1875 C 3.914062 0 3.476562 0.09375 3 0.09375 C 2.507812 0.09375 2.0625 0 1.65625 -0.1875 C 1.257812 -0.382812 0.941406 -0.660156 0.703125 -1.015625 C 0.472656 -1.378906 0.359375 -1.804688 0.359375 -2.296875 C 0.359375 -2.773438 0.476562 -3.191406 0.71875 -3.546875 C 0.957031 -3.910156 1.273438 -4.191406 1.671875 -4.390625 C 2.078125 -4.597656 2.519531 -4.703125 3 -4.703125 Z M 3 -4.703125 "/></g></g></g><g fill="#00ff0a" fill-opacity="1"><g transform="translate(19.523649, 32.592753)"><g><path d="M 4.890625 -3.203125 L 3.34375 -3.203125 C 3.320312 -3.410156 3.234375 -3.550781 3.078125 -3.625 C 2.921875 -3.695312 2.765625 -3.734375 2.609375 -3.734375 C 2.453125 -3.734375 2.304688 -3.695312 2.171875 -3.625 C 2.046875 -3.550781 1.984375 -3.445312 1.984375 -3.3125 C 1.984375 -3.207031 2.050781 -3.128906 2.1875 -3.078125 C 2.332031 -3.023438 2.519531 -2.984375 2.75 -2.953125 C 2.976562 -2.921875 3.21875 -2.878906 3.46875 -2.828125 C 3.71875 -2.773438 3.957031 -2.695312 4.1875 -2.59375 C 4.414062 -2.488281 4.597656 -2.34375 4.734375 -2.15625 C 4.878906 -1.96875 4.953125 -1.707031 4.953125 -1.375 C 4.953125 -1.007812 4.859375 -0.71875 4.671875 -0.5 C 4.484375 -0.289062 4.21875 -0.132812 3.875 -0.03125 C 3.53125 0.0625 3.132812 0.109375 2.6875 0.109375 C 2.238281 0.109375 1.832031 0.046875 1.46875 -0.078125 C 1.101562 -0.203125 0.804688 -0.394531 0.578125 -0.65625 C 0.359375 -0.925781 0.234375 -1.28125 0.203125 -1.71875 L 1.765625 -1.71875 C 1.765625 -1.488281 1.816406 -1.320312 1.921875 -1.21875 C 2.035156 -1.113281 2.171875 -1.046875 2.328125 -1.015625 C 2.484375 -0.992188 2.613281 -0.984375 2.71875 -0.984375 C 2.90625 -0.984375 3.0625 -1.015625 3.1875 -1.078125 C 3.3125 -1.140625 3.375 -1.238281 3.375 -1.375 C 3.375 -1.53125 3.300781 -1.648438 3.15625 -1.734375 C 3.019531 -1.816406 2.835938 -1.878906 2.609375 -1.921875 C 2.390625 -1.960938 2.148438 -2.003906 1.890625 -2.046875 C 1.640625 -2.085938 1.398438 -2.144531 1.171875 -2.21875 C 0.941406 -2.300781 0.753906 -2.421875 0.609375 -2.578125 C 0.472656 -2.742188 0.40625 -2.96875 0.40625 -3.25 C 0.40625 -3.71875 0.585938 -4.078125 0.953125 -4.328125 C 1.328125 -4.578125 1.894531 -4.703125 2.65625 -4.703125 C 3.257812 -4.703125 3.765625 -4.582031 4.171875 -4.34375 C 4.578125 -4.113281 4.816406 -3.734375 4.890625 -3.203125 Z M 4.890625 -3.203125 "/></g></g></g><g fill="#00ff0a" fill-opacity="1"><g transform="translate(24.793467, 32.592753)"><g><path d="M 0.546875 -6.171875 C 0.546875 -6.429688 0.632812 -6.648438 0.8125 -6.828125 C 0.988281 -7.003906 1.207031 -7.09375 1.46875 -7.09375 C 1.71875 -7.09375 1.929688 -7.003906 2.109375 -6.828125 C 2.285156 -6.648438 2.375 -6.429688 2.375 -6.171875 C 2.375 -5.921875 2.285156 -5.707031 2.109375 -5.53125 C 1.929688 -5.351562 1.71875 -5.265625 1.46875 -5.265625 C 1.207031 -5.265625 0.988281 -5.351562 0.8125 -5.53125 C 0.632812 -5.707031 0.546875 -5.921875 0.546875 -6.171875 Z M 2.25 0 L 0.671875 0 L 0.671875 -4.609375 L 2.25 -4.609375 Z M 2.25 0 "/></g></g></g><g fill="#00ff0a" fill-opacity="1"><g transform="translate(27.715348, 32.592753)"><g><path d="M 2.59375 -3.390625 L 2.59375 0 L 1.046875 0 L 1.046875 -3.390625 L 0.203125 -3.390625 L 0.203125 -4.609375 L 1.046875 -4.609375 L 1.046875 -6.359375 L 2.59375 -6.359375 L 2.59375 -4.609375 L 3.4375 -4.609375 L 3.4375 -3.390625 Z M 2.59375 -3.390625 "/></g></g></g><g fill="#00ff0a" fill-opacity="1"><g transform="translate(31.357262, 32.592753)"><g><path d="M 0.546875 -6.171875 C 0.546875 -6.429688 0.632812 -6.648438 0.8125 -6.828125 C 0.988281 -7.003906 1.207031 -7.09375 1.46875 -7.09375 C 1.71875 -7.09375 1.929688 -7.003906 2.109375 -6.828125 C 2.285156 -6.648438 2.375 -6.429688 2.375 -6.171875 C 2.375 -5.921875 2.285156 -5.707031 2.109375 -5.53125 C 1.929688 -5.351562 1.71875 -5.265625 1.46875 -5.265625 C 1.207031 -5.265625 0.988281 -5.351562 0.8125 -5.53125 C 0.632812 -5.707031 0.546875 -5.921875 0.546875 -6.171875 Z M 2.25 0 L 0.671875 0 L 0.671875 -4.609375 L 2.25 -4.609375 Z M 2.25 0 "/></g></g></g><g fill="#00ff0a" fill-opacity="1"><g transform="translate(34.279144, 32.592753)"><g><path d="M 3 -1.078125 C 3.269531 -1.078125 3.484375 -1.132812 3.640625 -1.25 C 3.796875 -1.375 3.90625 -1.53125 3.96875 -1.71875 C 4.03125 -1.90625 4.0625 -2.09375 4.0625 -2.28125 C 4.0625 -2.476562 4.023438 -2.664062 3.953125 -2.84375 C 3.890625 -3.03125 3.78125 -3.179688 3.625 -3.296875 C 3.476562 -3.410156 3.269531 -3.46875 3 -3.46875 C 2.726562 -3.46875 2.515625 -3.410156 2.359375 -3.296875 C 2.203125 -3.179688 2.085938 -3.03125 2.015625 -2.84375 C 1.953125 -2.664062 1.921875 -2.476562 1.921875 -2.28125 C 1.921875 -2.09375 1.953125 -1.90625 2.015625 -1.71875 C 2.078125 -1.53125 2.1875 -1.375 2.34375 -1.25 C 2.5 -1.132812 2.71875 -1.078125 3 -1.078125 Z M 3 -4.703125 C 3.476562 -4.703125 3.914062 -4.597656 4.3125 -4.390625 C 4.707031 -4.191406 5.019531 -3.910156 5.25 -3.546875 C 5.488281 -3.191406 5.609375 -2.773438 5.609375 -2.296875 C 5.609375 -1.804688 5.492188 -1.378906 5.265625 -1.015625 C 5.035156 -0.660156 4.71875 -0.382812 4.3125 -0.1875 C 3.914062 0 3.476562 0.09375 3 0.09375 C 2.507812 0.09375 2.0625 0 1.65625 -0.1875 C 1.257812 -0.382812 0.941406 -0.660156 0.703125 -1.015625 C 0.472656 -1.378906 0.359375 -1.804688 0.359375 -2.296875 C 0.359375 -2.773438 0.476562 -3.191406 0.71875 -3.546875 C 0.957031 -3.910156 1.273438 -4.191406 1.671875 -4.390625 C 2.078125 -4.597656 2.519531 -4.703125 3 -4.703125 Z M 3 -4.703125 "/></g></g></g><g fill="#00ff0a" fill-opacity="1"><g transform="translate(40.258562, 32.592753)"><g><path d="M 5.328125 -2.609375 L 5.328125 0 L 3.765625 0 L 3.765625 -2.609375 C 3.765625 -2.878906 3.707031 -3.082031 3.59375 -3.21875 C 3.488281 -3.363281 3.3125 -3.4375 3.0625 -3.4375 C 2.820312 -3.4375 2.613281 -3.320312 2.4375 -3.09375 C 2.269531 -2.875 2.1875 -2.609375 2.1875 -2.296875 L 2.1875 0 L 0.625 0 L 0.625 -4.609375 L 2.1875 -4.609375 L 2.1875 -4.046875 C 2.351562 -4.242188 2.554688 -4.398438 2.796875 -4.515625 C 3.035156 -4.640625 3.300781 -4.703125 3.59375 -4.703125 C 4.21875 -4.703125 4.660156 -4.507812 4.921875 -4.125 C 5.191406 -3.738281 5.328125 -3.234375 5.328125 -2.609375 Z M 5.328125 -2.609375 "/></g></g></g><g fill="#00ff0a" fill-opacity="1"><g transform="translate(7.930048, 46.986202)"><g><path d="M 4.734375 -1.421875 L 4.734375 0 L 0.625 0 L 0.625 -7.09375 L 4.734375 -7.09375 L 4.734375 -5.671875 L 2.1875 -5.671875 L 2.1875 -4.265625 L 4.640625 -4.265625 L 4.640625 -2.84375 L 2.1875 -2.84375 L 2.1875 -1.421875 Z M 4.734375 -1.421875 "/></g></g></g><g fill="#00ff0a" fill-opacity="1"><g transform="translate(13.293782, 46.986202)"><g><path d="M 5.328125 -2.609375 L 5.328125 0 L 3.765625 0 L 3.765625 -2.609375 C 3.765625 -2.878906 3.707031 -3.082031 3.59375 -3.21875 C 3.488281 -3.363281 3.3125 -3.4375 3.0625 -3.4375 C 2.820312 -3.4375 2.613281 -3.320312 2.4375 -3.09375 C 2.269531 -2.875 2.1875 -2.609375 2.1875 -2.296875 L 2.1875 0 L 0.625 0 L 0.625 -4.609375 L 2.1875 -4.609375 L 2.1875 -4.046875 C 2.351562 -4.242188 2.554688 -4.398438 2.796875 -4.515625 C 3.035156 -4.640625 3.300781 -4.703125 3.59375 -4.703125 C 4.21875 -4.703125 4.660156 -4.507812 4.921875 -4.125 C 5.191406 -3.738281 5.328125 -3.234375 5.328125 -2.609375 Z M 5.328125 -2.609375 "/></g></g></g><g fill="#00ff0a" fill-opacity="1"><g transform="translate(19.095799, 46.986202)"><g><path d="M 2.59375 -3.390625 L 2.59375 0 L 1.046875 0 L 1.046875 -3.390625 L 0.203125 -3.390625 L 0.203125 -4.609375 L 1.046875 -4.609375 L 1.046875 -6.359375 L 2.59375 -6.359375 L 2.59375 -4.609375 L 3.4375 -4.609375 L 3.4375 -3.390625 Z M 2.59375 -3.390625 "/></g></g></g><g fill="#00ff0a" fill-opacity="1"><g transform="translate(22.737713, 46.986202)"><g><path d="M 3.21875 -3.4375 C 3.03125 -3.4375 2.859375 -3.378906 2.703125 -3.265625 C 2.546875 -3.148438 2.421875 -3.003906 2.328125 -2.828125 C 2.234375 -2.660156 2.1875 -2.484375 2.1875 -2.296875 L 2.1875 0 L 0.625 0 L 0.625 -4.609375 L 2.1875 -4.609375 L 2.1875 -4.046875 C 2.3125 -4.210938 2.472656 -4.363281 2.671875 -4.5 C 2.867188 -4.632812 3.113281 -4.703125 3.40625 -4.703125 C 3.46875 -4.703125 3.546875 -4.691406 3.640625 -4.671875 C 3.734375 -4.660156 3.8125 -4.640625 3.875 -4.609375 L 3.875 -3.1875 L 3.84375 -3.1875 C 3.769531 -3.28125 3.675781 -3.34375 3.5625 -3.375 C 3.457031 -3.414062 3.34375 -3.4375 3.21875 -3.4375 Z M 3.21875 -3.4375 "/></g></g></g><g fill="#00ff0a" fill-opacity="1"><g transform="translate(26.713556, 46.986202)"><g><path d="M 2.5 2.609375 L 0.859375 2.609375 L 1.90625 0 L 1.65625 0 L -0.109375 -4.609375 L 1.46875 -4.609375 L 2.5625 -1.3125 L 3.65625 -4.609375 L 5.25 -4.609375 L 3.5 0 Z M 2.5 2.609375 "/></g></g></g><g fill="#00ff0a" fill-opacity="1"><g transform="translate(31.858151, 46.986202)"><g/></g></g><g fill="#00ff0a" fill-opacity="1"><g transform="translate(34.466973, 46.986202)"><g><path d="M 2.1875 -2.53125 L 2.1875 0 L 0.625 0 L 0.625 -7.09375 L 3.28125 -7.09375 C 3.664062 -7.09375 4.023438 -6.992188 4.359375 -6.796875 C 4.691406 -6.609375 4.957031 -6.34375 5.15625 -6 C 5.351562 -5.664062 5.453125 -5.273438 5.453125 -4.828125 C 5.453125 -4.347656 5.351562 -3.9375 5.15625 -3.59375 C 4.957031 -3.25 4.691406 -2.984375 4.359375 -2.796875 C 4.023438 -2.617188 3.664062 -2.53125 3.28125 -2.53125 Z M 3.03125 -5.859375 L 2.1875 -5.859375 L 2.1875 -3.765625 L 3.03125 -3.765625 C 3.257812 -3.765625 3.472656 -3.851562 3.671875 -4.03125 C 3.867188 -4.21875 3.96875 -4.484375 3.96875 -4.828125 C 3.96875 -5.148438 3.867188 -5.398438 3.671875 -5.578125 C 3.472656 -5.765625 3.257812 -5.859375 3.03125 -5.859375 Z M 3.03125 -5.859375 "/></g></g></g><g fill="#00ff0a" fill-opacity="1"><g transform="translate(40.081156, 46.986202)"><g><path d="M 3.21875 -3.4375 C 3.03125 -3.4375 2.859375 -3.378906 2.703125 -3.265625 C 2.546875 -3.148438 2.421875 -3.003906 2.328125 -2.828125 C 2.234375 -2.660156 2.1875 -2.484375 2.1875 -2.296875 L 2.1875 0 L 0.625 0 L 0.625 -4.609375 L 2.1875 -4.609375 L 2.1875 -4.046875 C 2.3125 -4.210938 2.472656 -4.363281 2.671875 -4.5 C 2.867188 -4.632812 3.113281 -4.703125 3.40625 -4.703125 C 3.46875 -4.703125 3.546875 -4.691406 3.640625 -4.671875 C 3.734375 -4.660156 3.8125 -4.640625 3.875 -4.609375 L 3.875 -3.1875 L 3.84375 -3.1875 C 3.769531 -3.28125 3.675781 -3.34375 3.5625 -3.375 C 3.457031 -3.414062 3.34375 -3.4375 3.21875 -3.4375 Z M 3.21875 -3.4375 "/></g></g></g><g fill="#00ff0a" fill-opacity="1"><g transform="translate(44.056999, 46.986202)"><g><path d="M 0.546875 -6.171875 C 0.546875 -6.429688 0.632812 -6.648438 0.8125 -6.828125 C 0.988281 -7.003906 1.207031 -7.09375 1.46875 -7.09375 C 1.71875 -7.09375 1.929688 -7.003906 2.109375 -6.828125 C 2.285156 -6.648438 2.375 -6.429688 2.375 -6.171875 C 2.375 -5.921875 2.285156 -5.707031 2.109375 -5.53125 C 1.929688 -5.351562 1.71875 -5.265625 1.46875 -5.265625 C 1.207031 -5.265625 0.988281 -5.351562 0.8125 -5.53125 C 0.632812 -5.707031 0.546875 -5.921875 0.546875 -6.171875 Z M 2.25 0 L 0.671875 0 L 0.671875 -4.609375 L 2.25 -4.609375 Z M 2.25 0 "/></g></g></g><g fill="#00ff0a" fill-opacity="1"><g transform="translate(46.978881, 46.986202)"><g><path d="M 2.96875 -3.484375 C 2.738281 -3.484375 2.554688 -3.414062 2.421875 -3.28125 C 2.285156 -3.15625 2.1875 -3 2.125 -2.8125 C 2.0625 -2.632812 2.03125 -2.457031 2.03125 -2.28125 C 2.03125 -2.113281 2.054688 -1.9375 2.109375 -1.75 C 2.171875 -1.5625 2.269531 -1.398438 2.40625 -1.265625 C 2.539062 -1.140625 2.726562 -1.078125 2.96875 -1.078125 C 3.21875 -1.078125 3.425781 -1.128906 3.59375 -1.234375 C 3.757812 -1.347656 3.851562 -1.507812 3.875 -1.71875 L 5.40625 -1.71875 C 5.351562 -1.375 5.21875 -1.0625 5 -0.78125 C 4.789062 -0.507812 4.507812 -0.289062 4.15625 -0.125 C 3.800781 0.03125 3.390625 0.109375 2.921875 0.109375 C 2.390625 0.109375 1.929688 0 1.546875 -0.21875 C 1.171875 -0.4375 0.878906 -0.726562 0.671875 -1.09375 C 0.460938 -1.457031 0.359375 -1.859375 0.359375 -2.296875 C 0.359375 -2.734375 0.460938 -3.132812 0.671875 -3.5 C 0.890625 -3.863281 1.191406 -4.15625 1.578125 -4.375 C 1.960938 -4.59375 2.410156 -4.703125 2.921875 -4.703125 C 3.421875 -4.703125 3.851562 -4.613281 4.21875 -4.4375 C 4.582031 -4.257812 4.867188 -4.019531 5.078125 -3.71875 C 5.296875 -3.425781 5.414062 -3.101562 5.4375 -2.75 L 3.875 -2.75 C 3.875 -2.976562 3.789062 -3.15625 3.625 -3.28125 C 3.457031 -3.414062 3.238281 -3.484375 2.96875 -3.484375 Z M 2.96875 -3.484375 "/></g></g></g><g fill="#00ff0a" fill-opacity="1"><g transform="translate(52.739159, 46.986202)"><g><path d="M 2.046875 -2.84375 L 4.109375 -2.84375 C 4.109375 -2.84375 4.097656 -2.882812 4.078125 -2.96875 C 4.054688 -3.0625 4.007812 -3.160156 3.9375 -3.265625 C 3.875 -3.378906 3.773438 -3.476562 3.640625 -3.5625 C 3.503906 -3.65625 3.316406 -3.703125 3.078125 -3.703125 C 2.835938 -3.703125 2.644531 -3.65625 2.5 -3.5625 C 2.363281 -3.476562 2.257812 -3.378906 2.1875 -3.265625 C 2.125 -3.160156 2.082031 -3.0625 2.0625 -2.96875 C 2.050781 -2.882812 2.046875 -2.84375 2.046875 -2.84375 Z M 5.609375 -2.40625 C 5.609375 -2.351562 5.601562 -2.300781 5.59375 -2.25 C 5.59375 -2.207031 5.59375 -2.160156 5.59375 -2.109375 L 2.03125 -2.109375 C 2.03125 -1.929688 2.066406 -1.757812 2.140625 -1.59375 C 2.222656 -1.425781 2.335938 -1.285156 2.484375 -1.171875 C 2.640625 -1.066406 2.816406 -1.015625 3.015625 -1.015625 C 3.296875 -1.015625 3.515625 -1.085938 3.671875 -1.234375 C 3.828125 -1.390625 3.910156 -1.550781 3.921875 -1.71875 L 5.515625 -1.71875 C 5.390625 -1.101562 5.097656 -0.644531 4.640625 -0.34375 C 4.191406 -0.0390625 3.660156 0.109375 3.046875 0.109375 C 2.515625 0.109375 2.046875 0.0078125 1.640625 -0.1875 C 1.242188 -0.382812 0.929688 -0.660156 0.703125 -1.015625 C 0.472656 -1.378906 0.359375 -1.804688 0.359375 -2.296875 C 0.359375 -2.773438 0.472656 -3.195312 0.703125 -3.5625 C 0.941406 -3.925781 1.265625 -4.207031 1.671875 -4.40625 C 2.078125 -4.601562 2.535156 -4.703125 3.046875 -4.703125 C 3.515625 -4.703125 3.941406 -4.613281 4.328125 -4.4375 C 4.710938 -4.257812 5.019531 -4 5.25 -3.65625 C 5.488281 -3.3125 5.609375 -2.894531 5.609375 -2.40625 Z M 5.609375 -2.40625 "/></g></g></g><g fill="#00ff0a" fill-opacity="1"><g transform="translate(7.930048, 61.379651)"><g><path d="M 0.625 0 L 0.625 -7.09375 L 2.1875 -7.09375 L 2.1875 -1.421875 L 4.734375 -1.421875 L 4.734375 0 Z M 0.625 0 "/></g></g></g><g fill="#00ff0a" fill-opacity="1"><g transform="translate(13.035225, 61.379651)"><g><path d="M 2.046875 -2.84375 L 4.109375 -2.84375 C 4.109375 -2.84375 4.097656 -2.882812 4.078125 -2.96875 C 4.054688 -3.0625 4.007812 -3.160156 3.9375 -3.265625 C 3.875 -3.378906 3.773438 -3.476562 3.640625 -3.5625 C 3.503906 -3.65625 3.316406 -3.703125 3.078125 -3.703125 C 2.835938 -3.703125 2.644531 -3.65625 2.5 -3.5625 C 2.363281 -3.476562 2.257812 -3.378906 2.1875 -3.265625 C 2.125 -3.160156 2.082031 -3.0625 2.0625 -2.96875 C 2.050781 -2.882812 2.046875 -2.84375 2.046875 -2.84375 Z M 5.609375 -2.40625 C 5.609375 -2.351562 5.601562 -2.300781 5.59375 -2.25 C 5.59375 -2.207031 5.59375 -2.160156 5.59375 -2.109375 L 2.03125 -2.109375 C 2.03125 -1.929688 2.066406 -1.757812 2.140625 -1.59375 C 2.222656 -1.425781 2.335938 -1.285156 2.484375 -1.171875 C 2.640625 -1.066406 2.816406 -1.015625 3.015625 -1.015625 C 3.296875 -1.015625 3.515625 -1.085938 3.671875 -1.234375 C 3.828125 -1.390625 3.910156 -1.550781 3.921875 -1.71875 L 5.515625 -1.71875 C 5.390625 -1.101562 5.097656 -0.644531 4.640625 -0.34375 C 4.191406 -0.0390625 3.660156 0.109375 3.046875 0.109375 C 2.515625 0.109375 2.046875 0.0078125 1.640625 -0.1875 C 1.242188 -0.382812 0.929688 -0.660156 0.703125 -1.015625 C 0.472656 -1.378906 0.359375 -1.804688 0.359375 -2.296875 C 0.359375 -2.773438 0.472656 -3.195312 0.703125 -3.5625 C 0.941406 -3.925781 1.265625 -4.207031 1.671875 -4.40625 C 2.078125 -4.601562 2.535156 -4.703125 3.046875 -4.703125 C 3.515625 -4.703125 3.941406 -4.613281 4.328125 -4.4375 C 4.710938 -4.257812 5.019531 -4 5.25 -3.65625 C 5.488281 -3.3125 5.609375 -2.894531 5.609375 -2.40625 Z M 5.609375 -2.40625 "/></g></g></g><g fill="#00ff0a" fill-opacity="1"><g transform="translate(19.004206, 61.379651)"><g><path d="M 5.25 -4.609375 L 3.5 0 L 1.65625 0 L -0.109375 -4.609375 L 1.46875 -4.609375 L 2.5625 -1.3125 L 3.65625 -4.609375 Z M 5.25 -4.609375 "/></g></g></g><g fill="#00ff0a" fill-opacity="1"><g transform="translate(24.148801, 61.379651)"><g><path d="M 2.046875 -2.84375 L 4.109375 -2.84375 C 4.109375 -2.84375 4.097656 -2.882812 4.078125 -2.96875 C 4.054688 -3.0625 4.007812 -3.160156 3.9375 -3.265625 C 3.875 -3.378906 3.773438 -3.476562 3.640625 -3.5625 C 3.503906 -3.65625 3.316406 -3.703125 3.078125 -3.703125 C 2.835938 -3.703125 2.644531 -3.65625 2.5 -3.5625 C 2.363281 -3.476562 2.257812 -3.378906 2.1875 -3.265625 C 2.125 -3.160156 2.082031 -3.0625 2.0625 -2.96875 C 2.050781 -2.882812 2.046875 -2.84375 2.046875 -2.84375 Z M 5.609375 -2.40625 C 5.609375 -2.351562 5.601562 -2.300781 5.59375 -2.25 C 5.59375 -2.207031 5.59375 -2.160156 5.59375 -2.109375 L 2.03125 -2.109375 C 2.03125 -1.929688 2.066406 -1.757812 2.140625 -1.59375 C 2.222656 -1.425781 2.335938 -1.285156 2.484375 -1.171875 C 2.640625 -1.066406 2.816406 -1.015625 3.015625 -1.015625 C 3.296875 -1.015625 3.515625 -1.085938 3.671875 -1.234375 C 3.828125 -1.390625 3.910156 -1.550781 3.921875 -1.71875 L 5.515625 -1.71875 C 5.390625 -1.101562 5.097656 -0.644531 4.640625 -0.34375 C 4.191406 -0.0390625 3.660156 0.109375 3.046875 0.109375 C 2.515625 0.109375 2.046875 0.0078125 1.640625 -0.1875 C 1.242188 -0.382812 0.929688 -0.660156 0.703125 -1.015625 C 0.472656 -1.378906 0.359375 -1.804688 0.359375 -2.296875 C 0.359375 -2.773438 0.472656 -3.195312 0.703125 -3.5625 C 0.941406 -3.925781 1.265625 -4.207031 1.671875 -4.40625 C 2.078125 -4.601562 2.535156 -4.703125 3.046875 -4.703125 C 3.515625 -4.703125 3.941406 -4.613281 4.328125 -4.4375 C 4.710938 -4.257812 5.019531 -4 5.25 -3.65625 C 5.488281 -3.3125 5.609375 -2.894531 5.609375 -2.40625 Z M 5.609375 -2.40625 "/></g></g></g><g fill="#00ff0a" fill-opacity="1"><g transform="translate(30.117782, 61.379651)"><g><path d="M 3.21875 -3.4375 C 3.03125 -3.4375 2.859375 -3.378906 2.703125 -3.265625 C 2.546875 -3.148438 2.421875 -3.003906 2.328125 -2.828125 C 2.234375 -2.660156 2.1875 -2.484375 2.1875 -2.296875 L 2.1875 0 L 0.625 0 L 0.625 -4.609375 L 2.1875 -4.609375 L 2.1875 -4.046875 C 2.3125 -4.210938 2.472656 -4.363281 2.671875 -4.5 C 2.867188 -4.632812 3.113281 -4.703125 3.40625 -4.703125 C 3.46875 -4.703125 3.546875 -4.691406 3.640625 -4.671875 C 3.734375 -4.660156 3.8125 -4.640625 3.875 -4.609375 L 3.875 -3.1875 L 3.84375 -3.1875 C 3.769531 -3.28125 3.675781 -3.34375 3.5625 -3.375 C 3.457031 -3.414062 3.34375 -3.4375 3.21875 -3.4375 Z M 3.21875 -3.4375 "/></g></g></g><g fill="#00ff0a" fill-opacity="1"><g transform="translate(34.093625, 61.379651)"><g><path d="M 4.234375 -2.296875 C 4.234375 -2.492188 4.179688 -2.679688 4.078125 -2.859375 C 3.984375 -3.035156 3.851562 -3.175781 3.6875 -3.28125 C 3.519531 -3.382812 3.332031 -3.4375 3.125 -3.4375 C 2.914062 -3.4375 2.726562 -3.382812 2.5625 -3.28125 C 2.40625 -3.175781 2.273438 -3.035156 2.171875 -2.859375 C 2.078125 -2.679688 2.03125 -2.492188 2.03125 -2.296875 C 2.03125 -2.097656 2.078125 -1.910156 2.171875 -1.734375 C 2.273438 -1.554688 2.40625 -1.410156 2.5625 -1.296875 C 2.726562 -1.191406 2.914062 -1.140625 3.125 -1.140625 C 3.332031 -1.140625 3.519531 -1.191406 3.6875 -1.296875 C 3.851562 -1.410156 3.984375 -1.554688 4.078125 -1.734375 C 4.179688 -1.910156 4.234375 -2.097656 4.234375 -2.296875 Z M 5.796875 -4.59375 L 5.796875 0 L 4.234375 0 L 4.234375 -0.546875 C 4.078125 -0.316406 3.847656 -0.148438 3.546875 -0.046875 C 3.242188 0.0546875 2.945312 0.109375 2.65625 0.109375 C 2.21875 0.109375 1.820312 0 1.46875 -0.21875 C 1.125 -0.445312 0.851562 -0.742188 0.65625 -1.109375 C 0.457031 -1.472656 0.359375 -1.867188 0.359375 -2.296875 C 0.359375 -2.722656 0.457031 -3.117188 0.65625 -3.484375 C 0.851562 -3.847656 1.125 -4.140625 1.46875 -4.359375 C 1.820312 -4.585938 2.21875 -4.703125 2.65625 -4.703125 C 2.945312 -4.703125 3.226562 -4.65625 3.5 -4.5625 C 3.78125 -4.46875 4.023438 -4.296875 4.234375 -4.046875 L 4.234375 -4.59375 Z M 5.796875 -4.59375 "/></g></g></g><g fill="#00ff0a" fill-opacity="1"><g transform="translate(40.511325, 61.379651)"><g><path d="M 3.125 -1.140625 C 3.332031 -1.140625 3.519531 -1.191406 3.6875 -1.296875 C 3.851562 -1.410156 3.984375 -1.554688 4.078125 -1.734375 C 4.179688 -1.910156 4.234375 -2.101562 4.234375 -2.3125 C 4.234375 -2.507812 4.179688 -2.691406 4.078125 -2.859375 C 3.984375 -3.035156 3.851562 -3.175781 3.6875 -3.28125 C 3.519531 -3.394531 3.332031 -3.453125 3.125 -3.453125 C 2.914062 -3.453125 2.726562 -3.394531 2.5625 -3.28125 C 2.40625 -3.175781 2.273438 -3.035156 2.171875 -2.859375 C 2.078125 -2.691406 2.03125 -2.507812 2.03125 -2.3125 C 2.03125 -2.101562 2.078125 -1.910156 2.171875 -1.734375 C 2.273438 -1.554688 2.40625 -1.410156 2.5625 -1.296875 C 2.726562 -1.191406 2.914062 -1.140625 3.125 -1.140625 Z M 4.234375 -4.046875 L 4.234375 -4.609375 L 5.796875 -4.609375 L 5.796875 -0.015625 C 5.796875 0.484375 5.675781 0.929688 5.4375 1.328125 C 5.195312 1.734375 4.875 2.046875 4.46875 2.265625 C 4.0625 2.492188 3.613281 2.609375 3.125 2.609375 C 2.8125 2.609375 2.5 2.566406 2.1875 2.484375 C 1.882812 2.410156 1.601562 2.289062 1.34375 2.125 C 1.082031 1.957031 0.867188 1.742188 0.703125 1.484375 C 0.546875 1.234375 0.457031 0.929688 0.4375 0.578125 L 2 0.578125 C 2.0625 0.847656 2.1875 1.0625 2.375 1.21875 C 2.570312 1.375 2.796875 1.453125 3.046875 1.453125 C 3.273438 1.453125 3.476562 1.390625 3.65625 1.265625 C 3.832031 1.140625 3.972656 0.976562 4.078125 0.78125 C 4.179688 0.582031 4.234375 0.378906 4.234375 0.171875 L 4.234375 -0.5625 C 4.078125 -0.320312 3.847656 -0.148438 3.546875 -0.046875 C 3.242188 0.0546875 2.945312 0.109375 2.65625 0.109375 C 2.21875 0.109375 1.820312 -0.00390625 1.46875 -0.234375 C 1.125 -0.460938 0.851562 -0.757812 0.65625 -1.125 C 0.457031 -1.488281 0.359375 -1.882812 0.359375 -2.3125 C 0.359375 -2.726562 0.457031 -3.117188 0.65625 -3.484375 C 0.851562 -3.859375 1.125 -4.15625 1.46875 -4.375 C 1.820312 -4.59375 2.21875 -4.703125 2.65625 -4.703125 C 2.945312 -4.703125 3.222656 -4.65625 3.484375 -4.5625 C 3.753906 -4.476562 4.003906 -4.304688 4.234375 -4.046875 Z M 4.234375 -4.046875 "/></g></g></g><g fill="#00ff0a" fill-opacity="1"><g transform="translate(46.929026, 61.379651)"><g><path d="M 2.046875 -2.84375 L 4.109375 -2.84375 C 4.109375 -2.84375 4.097656 -2.882812 4.078125 -2.96875 C 4.054688 -3.0625 4.007812 -3.160156 3.9375 -3.265625 C 3.875 -3.378906 3.773438 -3.476562 3.640625 -3.5625 C 3.503906 -3.65625 3.316406 -3.703125 3.078125 -3.703125 C 2.835938 -3.703125 2.644531 -3.65625 2.5 -3.5625 C 2.363281 -3.476562 2.257812 -3.378906 2.1875 -3.265625 C 2.125 -3.160156 2.082031 -3.0625 2.0625 -2.96875 C 2.050781 -2.882812 2.046875 -2.84375 2.046875 -2.84375 Z M 5.609375 -2.40625 C 5.609375 -2.351562 5.601562 -2.300781 5.59375 -2.25 C 5.59375 -2.207031 5.59375 -2.160156 5.59375 -2.109375 L 2.03125 -2.109375 C 2.03125 -1.929688 2.066406 -1.757812 2.140625 -1.59375 C 2.222656 -1.425781 2.335938 -1.285156 2.484375 -1.171875 C 2.640625 -1.066406 2.816406 -1.015625 3.015625 -1.015625 C 3.296875 -1.015625 3.515625 -1.085938 3.671875 -1.234375 C 3.828125 -1.390625 3.910156 -1.550781 3.921875 -1.71875 L 5.515625 -1.71875 C 5.390625 -1.101562 5.097656 -0.644531 4.640625 -0.34375 C 4.191406 -0.0390625 3.660156 0.109375 3.046875 0.109375 C 2.515625 0.109375 2.046875 0.0078125 1.640625 -0.1875 C 1.242188 -0.382812 0.929688 -0.660156 0.703125 -1.015625 C 0.472656 -1.378906 0.359375 -1.804688 0.359375 -2.296875 C 0.359375 -2.773438 0.472656 -3.195312 0.703125 -3.5625 C 0.941406 -3.925781 1.265625 -4.207031 1.671875 -4.40625 C 2.078125 -4.601562 2.535156 -4.703125 3.046875 -4.703125 C 3.515625 -4.703125 3.941406 -4.613281 4.328125 -4.4375 C 4.710938 -4.257812 5.019531 -4 5.25 -3.65625 C 5.488281 -3.3125 5.609375 -2.894531 5.609375 -2.40625 Z M 5.609375 -2.40625 "/></g></g></g><g fill="#00ff0a" fill-opacity="1"><g transform="translate(7.930048, 90.166549)"><g><path d="M 3.640625 -5.671875 L 3.640625 0 L 2.078125 0 L 2.078125 -5.671875 L 0.046875 -5.671875 L 0.046875 -7.09375 L 5.671875 -7.09375 L 5.671875 -5.671875 Z M 3.640625 -5.671875 "/></g></g></g><g fill="#00ff0a" fill-opacity="1"><g transform="translate(13.648585, 90.166549)"><g><path d="M 4.234375 -2.296875 C 4.234375 -2.492188 4.179688 -2.679688 4.078125 -2.859375 C 3.984375 -3.035156 3.851562 -3.175781 3.6875 -3.28125 C 3.519531 -3.382812 3.332031 -3.4375 3.125 -3.4375 C 2.914062 -3.4375 2.726562 -3.382812 2.5625 -3.28125 C 2.40625 -3.175781 2.273438 -3.035156 2.171875 -2.859375 C 2.078125 -2.679688 2.03125 -2.492188 2.03125 -2.296875 C 2.03125 -2.097656 2.078125 -1.910156 2.171875 -1.734375 C 2.273438 -1.554688 2.40625 -1.410156 2.5625 -1.296875 C 2.726562 -1.191406 2.914062 -1.140625 3.125 -1.140625 C 3.332031 -1.140625 3.519531 -1.191406 3.6875 -1.296875 C 3.851562 -1.410156 3.984375 -1.554688 4.078125 -1.734375 C 4.179688 -1.910156 4.234375 -2.097656 4.234375 -2.296875 Z M 5.796875 -4.59375 L 5.796875 0 L 4.234375 0 L 4.234375 -0.546875 C 4.078125 -0.316406 3.847656 -0.148438 3.546875 -0.046875 C 3.242188 0.0546875 2.945312 0.109375 2.65625 0.109375 C 2.21875 0.109375 1.820312 0 1.46875 -0.21875 C 1.125 -0.445312 0.851562 -0.742188 0.65625 -1.109375 C 0.457031 -1.472656 0.359375 -1.867188 0.359375 -2.296875 C 0.359375 -2.722656 0.457031 -3.117188 0.65625 -3.484375 C 0.851562 -3.847656 1.125 -4.140625 1.46875 -4.359375 C 1.820312 -4.585938 2.21875 -4.703125 2.65625 -4.703125 C 2.945312 -4.703125 3.226562 -4.65625 3.5 -4.5625 C 3.78125 -4.46875 4.023438 -4.296875 4.234375 -4.046875 L 4.234375 -4.59375 Z M 5.796875 -4.59375 "/></g></g></g><g fill="#00ff0a" fill-opacity="1"><g transform="translate(20.066285, 90.166549)"><g><path d="M 2.1875 -2.03125 L 2.1875 0 L 0.625 0 L 0.625 -7.828125 L 2.1875 -7.828125 L 2.1875 -2.78125 L 3.65625 -4.609375 L 5.609375 -4.609375 L 3.625 -2.40625 L 5.8125 0 L 3.8125 0 Z M 2.1875 -2.03125 "/></g></g></g><g fill="#00ff0a" fill-opacity="1"><g transform="translate(25.565678, 90.166549)"><g><path d="M 2.046875 -2.84375 L 4.109375 -2.84375 C 4.109375 -2.84375 4.097656 -2.882812 4.078125 -2.96875 C 4.054688 -3.0625 4.007812 -3.160156 3.9375 -3.265625 C 3.875 -3.378906 3.773438 -3.476562 3.640625 -3.5625 C 3.503906 -3.65625 3.316406 -3.703125 3.078125 -3.703125 C 2.835938 -3.703125 2.644531 -3.65625 2.5 -3.5625 C 2.363281 -3.476562 2.257812 -3.378906 2.1875 -3.265625 C 2.125 -3.160156 2.082031 -3.0625 2.0625 -2.96875 C 2.050781 -2.882812 2.046875 -2.84375 2.046875 -2.84375 Z M 5.609375 -2.40625 C 5.609375 -2.351562 5.601562 -2.300781 5.59375 -2.25 C 5.59375 -2.207031 5.59375 -2.160156 5.59375 -2.109375 L 2.03125 -2.109375 C 2.03125 -1.929688 2.066406 -1.757812 2.140625 -1.59375 C 2.222656 -1.425781 2.335938 -1.285156 2.484375 -1.171875 C 2.640625 -1.066406 2.816406 -1.015625 3.015625 -1.015625 C 3.296875 -1.015625 3.515625 -1.085938 3.671875 -1.234375 C 3.828125 -1.390625 3.910156 -1.550781 3.921875 -1.71875 L 5.515625 -1.71875 C 5.390625 -1.101562 5.097656 -0.644531 4.640625 -0.34375 C 4.191406 -0.0390625 3.660156 0.109375 3.046875 0.109375 C 2.515625 0.109375 2.046875 0.0078125 1.640625 -0.1875 C 1.242188 -0.382812 0.929688 -0.660156 0.703125 -1.015625 C 0.472656 -1.378906 0.359375 -1.804688 0.359375 -2.296875 C 0.359375 -2.773438 0.472656 -3.195312 0.703125 -3.5625 C 0.941406 -3.925781 1.265625 -4.207031 1.671875 -4.40625 C 2.078125 -4.601562 2.535156 -4.703125 3.046875 -4.703125 C 3.515625 -4.703125 3.941406 -4.613281 4.328125 -4.4375 C 4.710938 -4.257812 5.019531 -4 5.25 -3.65625 C 5.488281 -3.3125 5.609375 -2.894531 5.609375 -2.40625 Z M 5.609375 -2.40625 "/></g></g></g><g fill="#00ff0a" fill-opacity="1"><g transform="translate(31.534659, 90.166549)"><g/></g></g><g fill="#00ff0a" fill-opacity="1"><g transform="translate(34.143481, 90.166549)"><g><path d="M 2.1875 -2.53125 L 2.1875 0 L 0.625 0 L 0.625 -7.09375 L 3.28125 -7.09375 C 3.664062 -7.09375 4.023438 -6.992188 4.359375 -6.796875 C 4.691406 -6.609375 4.957031 -6.34375 5.15625 -6 C 5.351562 -5.664062 5.453125 -5.273438 5.453125 -4.828125 C 5.453125 -4.347656 5.351562 -3.9375 5.15625 -3.59375 C 4.957031 -3.25 4.691406 -2.984375 4.359375 -2.796875 C 4.023438 -2.617188 3.664062 -2.53125 3.28125 -2.53125 Z M 3.03125 -5.859375 L 2.1875 -5.859375 L 2.1875 -3.765625 L 3.03125 -3.765625 C 3.257812 -3.765625 3.472656 -3.851562 3.671875 -4.03125 C 3.867188 -4.21875 3.96875 -4.484375 3.96875 -4.828125 C 3.96875 -5.148438 3.867188 -5.398438 3.671875 -5.578125 C 3.472656 -5.765625 3.257812 -5.859375 3.03125 -5.859375 Z M 3.03125 -5.859375 "/></g></g></g><g fill="#00ff0a" fill-opacity="1"><g transform="translate(39.757664, 90.166549)"><g><path d="M 3.21875 -3.4375 C 3.03125 -3.4375 2.859375 -3.378906 2.703125 -3.265625 C 2.546875 -3.148438 2.421875 -3.003906 2.328125 -2.828125 C 2.234375 -2.660156 2.1875 -2.484375 2.1875 -2.296875 L 2.1875 0 L 0.625 0 L 0.625 -4.609375 L 2.1875 -4.609375 L 2.1875 -4.046875 C 2.3125 -4.210938 2.472656 -4.363281 2.671875 -4.5 C 2.867188 -4.632812 3.113281 -4.703125 3.40625 -4.703125 C 3.46875 -4.703125 3.546875 -4.691406 3.640625 -4.671875 C 3.734375 -4.660156 3.8125 -4.640625 3.875 -4.609375 L 3.875 -3.1875 L 3.84375 -3.1875 C 3.769531 -3.28125 3.675781 -3.34375 3.5625 -3.375 C 3.457031 -3.414062 3.34375 -3.4375 3.21875 -3.4375 Z M 3.21875 -3.4375 "/></g></g></g><g fill="#00ff0a" fill-opacity="1"><g transform="translate(43.733507, 90.166549)"><g><path d="M 3 -1.078125 C 3.269531 -1.078125 3.484375 -1.132812 3.640625 -1.25 C 3.796875 -1.375 3.90625 -1.53125 3.96875 -1.71875 C 4.03125 -1.90625 4.0625 -2.09375 4.0625 -2.28125 C 4.0625 -2.476562 4.023438 -2.664062 3.953125 -2.84375 C 3.890625 -3.03125 3.78125 -3.179688 3.625 -3.296875 C 3.476562 -3.410156 3.269531 -3.46875 3 -3.46875 C 2.726562 -3.46875 2.515625 -3.410156 2.359375 -3.296875 C 2.203125 -3.179688 2.085938 -3.03125 2.015625 -2.84375 C 1.953125 -2.664062 1.921875 -2.476562 1.921875 -2.28125 C 1.921875 -2.09375 1.953125 -1.90625 2.015625 -1.71875 C 2.078125 -1.53125 2.1875 -1.375 2.34375 -1.25 C 2.5 -1.132812 2.71875 -1.078125 3 -1.078125 Z M 3 -4.703125 C 3.476562 -4.703125 3.914062 -4.597656 4.3125 -4.390625 C 4.707031 -4.191406 5.019531 -3.910156 5.25 -3.546875 C 5.488281 -3.191406 5.609375 -2.773438 5.609375 -2.296875 C 5.609375 -1.804688 5.492188 -1.378906 5.265625 -1.015625 C 5.035156 -0.660156 4.71875 -0.382812 4.3125 -0.1875 C 3.914062 0 3.476562 0.09375 3 0.09375 C 2.507812 0.09375 2.0625 0 1.65625 -0.1875 C 1.257812 -0.382812 0.941406 -0.660156 0.703125 -1.015625 C 0.472656 -1.378906 0.359375 -1.804688 0.359375 -2.296875 C 0.359375 -2.773438 0.476562 -3.191406 0.71875 -3.546875 C 0.957031 -3.910156 1.273438 -4.191406 1.671875 -4.390625 C 2.078125 -4.597656 2.519531 -4.703125 3 -4.703125 Z M 3 -4.703125 "/></g></g></g><g fill="#00ff0a" fill-opacity="1"><g transform="translate(49.712925, 90.166549)"><g><path d="M 2.453125 -7.828125 L 3.609375 -7.828125 L 3.609375 -6.609375 L 2.9375 -6.609375 C 2.78125 -6.609375 2.671875 -6.554688 2.609375 -6.453125 C 2.554688 -6.359375 2.53125 -6.203125 2.53125 -5.984375 L 2.53125 -4.609375 L 3.609375 -4.609375 L 3.609375 -3.390625 L 2.53125 -3.390625 L 2.53125 0 L 0.96875 0 L 0.96875 -3.390625 L 0.3125 -3.390625 L 0.3125 -4.609375 L 0.96875 -4.609375 L 0.96875 -6.171875 C 0.96875 -6.742188 1.109375 -7.160156 1.390625 -7.421875 C 1.679688 -7.691406 2.035156 -7.828125 2.453125 -7.828125 Z M 2.453125 -7.828125 "/></g></g></g><g fill="#00ff0a" fill-opacity="1"><g transform="translate(53.500935, 90.166549)"><g><path d="M 0.546875 -6.171875 C 0.546875 -6.429688 0.632812 -6.648438 0.8125 -6.828125 C 0.988281 -7.003906 1.207031 -7.09375 1.46875 -7.09375 C 1.71875 -7.09375 1.929688 -7.003906 2.109375 -6.828125 C 2.285156 -6.648438 2.375 -6.429688 2.375 -6.171875 C 2.375 -5.921875 2.285156 -5.707031 2.109375 -5.53125 C 1.929688 -5.351562 1.71875 -5.265625 1.46875 -5.265625 C 1.207031 -5.265625 0.988281 -5.351562 0.8125 -5.53125 C 0.632812 -5.707031 0.546875 -5.921875 0.546875 -6.171875 Z M 2.25 0 L 0.671875 0 L 0.671875 -4.609375 L 2.25 -4.609375 Z M 2.25 0 "/></g></g></g><g fill="#00ff0a" fill-opacity="1"><g transform="translate(56.422816, 90.166549)"><g><path d="M 2.59375 -3.390625 L 2.59375 0 L 1.046875 0 L 1.046875 -3.390625 L 0.203125 -3.390625 L 0.203125 -4.609375 L 1.046875 -4.609375 L 1.046875 -6.359375 L 2.59375 -6.359375 L 2.59375 -4.609375 L 3.4375 -4.609375 L 3.4375 -3.390625 Z M 2.59375 -3.390625 "/></g></g></g><g fill="#00ff0a" fill-opacity="1"><g transform="translate(7.930048, 104.559998)"><g><path d="M 3.375 -1.109375 C 3.539062 -1.109375 3.722656 -1.132812 3.921875 -1.1875 C 4.117188 -1.238281 4.285156 -1.320312 4.421875 -1.4375 C 4.566406 -1.5625 4.640625 -1.726562 4.640625 -1.9375 C 4.640625 -2.132812 4.566406 -2.289062 4.421875 -2.40625 C 4.273438 -2.53125 4.078125 -2.628906 3.828125 -2.703125 C 3.585938 -2.773438 3.320312 -2.84375 3.03125 -2.90625 C 2.738281 -2.976562 2.445312 -3.0625 2.15625 -3.15625 C 1.863281 -3.25 1.59375 -3.367188 1.34375 -3.515625 C 1.101562 -3.671875 0.910156 -3.867188 0.765625 -4.109375 C 0.617188 -4.359375 0.546875 -4.671875 0.546875 -5.046875 C 0.546875 -5.421875 0.617188 -5.738281 0.765625 -6 C 0.921875 -6.269531 1.125 -6.492188 1.375 -6.671875 C 1.632812 -6.847656 1.921875 -6.976562 2.234375 -7.0625 C 2.554688 -7.15625 2.875 -7.203125 3.1875 -7.203125 C 3.675781 -7.203125 4.132812 -7.125 4.5625 -6.96875 C 4.988281 -6.820312 5.332031 -6.582031 5.59375 -6.25 C 5.863281 -5.914062 6.003906 -5.476562 6.015625 -4.9375 L 4.515625 -4.9375 C 4.472656 -5.300781 4.34375 -5.554688 4.125 -5.703125 C 3.90625 -5.847656 3.601562 -5.921875 3.21875 -5.921875 C 3.070312 -5.921875 2.914062 -5.894531 2.75 -5.84375 C 2.582031 -5.789062 2.441406 -5.710938 2.328125 -5.609375 C 2.210938 -5.503906 2.15625 -5.359375 2.15625 -5.171875 C 2.15625 -4.992188 2.226562 -4.851562 2.375 -4.75 C 2.53125 -4.644531 2.726562 -4.554688 2.96875 -4.484375 C 3.21875 -4.421875 3.488281 -4.359375 3.78125 -4.296875 C 4.070312 -4.234375 4.359375 -4.15625 4.640625 -4.0625 C 4.929688 -3.96875 5.195312 -3.84375 5.4375 -3.6875 C 5.6875 -3.53125 5.882812 -3.328125 6.03125 -3.078125 C 6.1875 -2.828125 6.265625 -2.507812 6.265625 -2.125 C 6.265625 -1.707031 6.179688 -1.347656 6.015625 -1.046875 C 5.847656 -0.753906 5.625 -0.519531 5.34375 -0.34375 C 5.0625 -0.164062 4.742188 -0.0351562 4.390625 0.046875 C 4.035156 0.128906 3.675781 0.171875 3.3125 0.171875 C 2.789062 0.171875 2.300781 0.0820312 1.84375 -0.09375 C 1.394531 -0.269531 1.03125 -0.539062 0.75 -0.90625 C 0.46875 -1.28125 0.320312 -1.757812 0.3125 -2.34375 L 1.90625 -2.34375 C 1.925781 -1.914062 2.082031 -1.601562 2.375 -1.40625 C 2.664062 -1.207031 3 -1.109375 3.375 -1.109375 Z M 3.375 -1.109375 "/></g></g></g><g fill="#00ff0a" fill-opacity="1"><g transform="translate(14.504276, 104.559998)"><g><path d="M 2.59375 -3.390625 L 2.59375 0 L 1.046875 0 L 1.046875 -3.390625 L 0.203125 -3.390625 L 0.203125 -4.609375 L 1.046875 -4.609375 L 1.046875 -6.359375 L 2.59375 -6.359375 L 2.59375 -4.609375 L 3.4375 -4.609375 L 3.4375 -3.390625 Z M 2.59375 -3.390625 "/></g></g></g><g fill="#00ff0a" fill-opacity="1"><g transform="translate(18.146191, 104.559998)"><g><path d="M 3 -1.078125 C 3.269531 -1.078125 3.484375 -1.132812 3.640625 -1.25 C 3.796875 -1.375 3.90625 -1.53125 3.96875 -1.71875 C 4.03125 -1.90625 4.0625 -2.09375 4.0625 -2.28125 C 4.0625 -2.476562 4.023438 -2.664062 3.953125 -2.84375 C 3.890625 -3.03125 3.78125 -3.179688 3.625 -3.296875 C 3.476562 -3.410156 3.269531 -3.46875 3 -3.46875 C 2.726562 -3.46875 2.515625 -3.410156 2.359375 -3.296875 C 2.203125 -3.179688 2.085938 -3.03125 2.015625 -2.84375 C 1.953125 -2.664062 1.921875 -2.476562 1.921875 -2.28125 C 1.921875 -2.09375 1.953125 -1.90625 2.015625 -1.71875 C 2.078125 -1.53125 2.1875 -1.375 2.34375 -1.25 C 2.5 -1.132812 2.71875 -1.078125 3 -1.078125 Z M 3 -4.703125 C 3.476562 -4.703125 3.914062 -4.597656 4.3125 -4.390625 C 4.707031 -4.191406 5.019531 -3.910156 5.25 -3.546875 C 5.488281 -3.191406 5.609375 -2.773438 5.609375 -2.296875 C 5.609375 -1.804688 5.492188 -1.378906 5.265625 -1.015625 C 5.035156 -0.660156 4.71875 -0.382812 4.3125 -0.1875 C 3.914062 0 3.476562 0.09375 3 0.09375 C 2.507812 0.09375 2.0625 0 1.65625 -0.1875 C 1.257812 -0.382812 0.941406 -0.660156 0.703125 -1.015625 C 0.472656 -1.378906 0.359375 -1.804688 0.359375 -2.296875 C 0.359375 -2.773438 0.476562 -3.191406 0.71875 -3.546875 C 0.957031 -3.910156 1.273438 -4.191406 1.671875 -4.390625 C 2.078125 -4.597656 2.519531 -4.703125 3 -4.703125 Z M 3 -4.703125 "/></g></g></g><g fill="#00ff0a" fill-opacity="1"><g transform="translate(24.125608, 104.559998)"><g><path d="M 2.1875 -2.296875 C 2.1875 -2.097656 2.234375 -1.910156 2.328125 -1.734375 C 2.429688 -1.554688 2.5625 -1.410156 2.71875 -1.296875 C 2.882812 -1.191406 3.070312 -1.140625 3.28125 -1.140625 C 3.488281 -1.140625 3.675781 -1.191406 3.84375 -1.296875 C 4.007812 -1.410156 4.140625 -1.554688 4.234375 -1.734375 C 4.335938 -1.910156 4.390625 -2.097656 4.390625 -2.296875 C 4.390625 -2.492188 4.335938 -2.679688 4.234375 -2.859375 C 4.140625 -3.035156 4.007812 -3.175781 3.84375 -3.28125 C 3.675781 -3.382812 3.488281 -3.4375 3.28125 -3.4375 C 3.070312 -3.4375 2.882812 -3.382812 2.71875 -3.28125 C 2.5625 -3.175781 2.429688 -3.035156 2.328125 -2.859375 C 2.234375 -2.679688 2.1875 -2.492188 2.1875 -2.296875 Z M 2.1875 2.609375 L 0.625 2.609375 L 0.625 -4.609375 L 2.1875 -4.609375 L 2.1875 -4.046875 C 2.394531 -4.296875 2.632812 -4.46875 2.90625 -4.5625 C 3.175781 -4.65625 3.460938 -4.703125 3.765625 -4.703125 C 4.203125 -4.703125 4.59375 -4.585938 4.9375 -4.359375 C 5.28125 -4.140625 5.550781 -3.847656 5.75 -3.484375 C 5.945312 -3.117188 6.046875 -2.722656 6.046875 -2.296875 C 6.046875 -1.867188 5.945312 -1.472656 5.75 -1.109375 C 5.550781 -0.742188 5.28125 -0.445312 4.9375 -0.21875 C 4.59375 0 4.203125 0.109375 3.765625 0.109375 C 3.460938 0.109375 3.164062 0.0546875 2.875 -0.046875 C 2.582031 -0.148438 2.351562 -0.316406 2.1875 -0.546875 Z M 2.1875 2.609375 "/></g></g></g><g fill="#00ff0a" fill-opacity="1"><g transform="translate(30.543309, 104.559998)"><g/></g></g><g fill="#00ff0a" fill-opacity="1"><g transform="translate(33.15213, 104.559998)"><g><path d="M 0.625 0 L 0.625 -7.09375 L 2.1875 -7.09375 L 2.1875 -1.421875 L 4.734375 -1.421875 L 4.734375 0 Z M 0.625 0 "/></g></g></g><g fill="#00ff0a" fill-opacity="1"><g transform="translate(38.254983, 104.559998)"><g><path d="M 3 -1.078125 C 3.269531 -1.078125 3.484375 -1.132812 3.640625 -1.25 C 3.796875 -1.375 3.90625 -1.53125 3.96875 -1.71875 C 4.03125 -1.90625 4.0625 -2.09375 4.0625 -2.28125 C 4.0625 -2.476562 4.023438 -2.664062 3.953125 -2.84375 C 3.890625 -3.03125 3.78125 -3.179688 3.625 -3.296875 C 3.476562 -3.410156 3.269531 -3.46875 3 -3.46875 C 2.726562 -3.46875 2.515625 -3.410156 2.359375 -3.296875 C 2.203125 -3.179688 2.085938 -3.03125 2.015625 -2.84375 C 1.953125 -2.664062 1.921875 -2.476562 1.921875 -2.28125 C 1.921875 -2.09375 1.953125 -1.90625 2.015625 -1.71875 C 2.078125 -1.53125 2.1875 -1.375 2.34375 -1.25 C 2.5 -1.132812 2.71875 -1.078125 3 -1.078125 Z M 3 -4.703125 C 3.476562 -4.703125 3.914062 -4.597656 4.3125 -4.390625 C 4.707031 -4.191406 5.019531 -3.910156 5.25 -3.546875 C 5.488281 -3.191406 5.609375 -2.773438 5.609375 -2.296875 C 5.609375 -1.804688 5.492188 -1.378906 5.265625 -1.015625 C 5.035156 -0.660156 4.71875 -0.382812 4.3125 -0.1875 C 3.914062 0 3.476562 0.09375 3 0.09375 C 2.507812 0.09375 2.0625 0 1.65625 -0.1875 C 1.257812 -0.382812 0.941406 -0.660156 0.703125 -1.015625 C 0.472656 -1.378906 0.359375 -1.804688 0.359375 -2.296875 C 0.359375 -2.773438 0.476562 -3.191406 0.71875 -3.546875 C 0.957031 -3.910156 1.273438 -4.191406 1.671875 -4.390625 C 2.078125 -4.597656 2.519531 -4.703125 3 -4.703125 Z M 3 -4.703125 "/></g></g></g><g fill="#00ff0a" fill-opacity="1"><g transform="translate(44.234401, 104.559998)"><g><path d="M 4.890625 -3.203125 L 3.34375 -3.203125 C 3.320312 -3.410156 3.234375 -3.550781 3.078125 -3.625 C 2.921875 -3.695312 2.765625 -3.734375 2.609375 -3.734375 C 2.453125 -3.734375 2.304688 -3.695312 2.171875 -3.625 C 2.046875 -3.550781 1.984375 -3.445312 1.984375 -3.3125 C 1.984375 -3.207031 2.050781 -3.128906 2.1875 -3.078125 C 2.332031 -3.023438 2.519531 -2.984375 2.75 -2.953125 C 2.976562 -2.921875 3.21875 -2.878906 3.46875 -2.828125 C 3.71875 -2.773438 3.957031 -2.695312 4.1875 -2.59375 C 4.414062 -2.488281 4.597656 -2.34375 4.734375 -2.15625 C 4.878906 -1.96875 4.953125 -1.707031 4.953125 -1.375 C 4.953125 -1.007812 4.859375 -0.71875 4.671875 -0.5 C 4.484375 -0.289062 4.21875 -0.132812 3.875 -0.03125 C 3.53125 0.0625 3.132812 0.109375 2.6875 0.109375 C 2.238281 0.109375 1.832031 0.046875 1.46875 -0.078125 C 1.101562 -0.203125 0.804688 -0.394531 0.578125 -0.65625 C 0.359375 -0.925781 0.234375 -1.28125 0.203125 -1.71875 L 1.765625 -1.71875 C 1.765625 -1.488281 1.816406 -1.320312 1.921875 -1.21875 C 2.035156 -1.113281 2.171875 -1.046875 2.328125 -1.015625 C 2.484375 -0.992188 2.613281 -0.984375 2.71875 -0.984375 C 2.90625 -0.984375 3.0625 -1.015625 3.1875 -1.078125 C 3.3125 -1.140625 3.375 -1.238281 3.375 -1.375 C 3.375 -1.53125 3.300781 -1.648438 3.15625 -1.734375 C 3.019531 -1.816406 2.835938 -1.878906 2.609375 -1.921875 C 2.390625 -1.960938 2.148438 -2.003906 1.890625 -2.046875 C 1.640625 -2.085938 1.398438 -2.144531 1.171875 -2.21875 C 0.941406 -2.300781 0.753906 -2.421875 0.609375 -2.578125 C 0.472656 -2.742188 0.40625 -2.96875 0.40625 -3.25 C 0.40625 -3.71875 0.585938 -4.078125 0.953125 -4.328125 C 1.328125 -4.578125 1.894531 -4.703125 2.65625 -4.703125 C 3.257812 -4.703125 3.765625 -4.582031 4.171875 -4.34375 C 4.578125 -4.113281 4.816406 -3.734375 4.890625 -3.203125 Z M 4.890625 -3.203125 "/></g></g></g><g fill="#00ff0a" fill-opacity="1"><g transform="translate(49.504218, 104.559998)"><g><path d="M 4.890625 -3.203125 L 3.34375 -3.203125 C 3.320312 -3.410156 3.234375 -3.550781 3.078125 -3.625 C 2.921875 -3.695312 2.765625 -3.734375 2.609375 -3.734375 C 2.453125 -3.734375 2.304688 -3.695312 2.171875 -3.625 C 2.046875 -3.550781 1.984375 -3.445312 1.984375 -3.3125 C 1.984375 -3.207031 2.050781 -3.128906 2.1875 -3.078125 C 2.332031 -3.023438 2.519531 -2.984375 2.75 -2.953125 C 2.976562 -2.921875 3.21875 -2.878906 3.46875 -2.828125 C 3.71875 -2.773438 3.957031 -2.695312 4.1875 -2.59375 C 4.414062 -2.488281 4.597656 -2.34375 4.734375 -2.15625 C 4.878906 -1.96875 4.953125 -1.707031 4.953125 -1.375 C 4.953125 -1.007812 4.859375 -0.71875 4.671875 -0.5 C 4.484375 -0.289062 4.21875 -0.132812 3.875 -0.03125 C 3.53125 0.0625 3.132812 0.109375 2.6875 0.109375 C 2.238281 0.109375 1.832031 0.046875 1.46875 -0.078125 C 1.101562 -0.203125 0.804688 -0.394531 0.578125 -0.65625 C 0.359375 -0.925781 0.234375 -1.28125 0.203125 -1.71875 L 1.765625 -1.71875 C 1.765625 -1.488281 1.816406 -1.320312 1.921875 -1.21875 C 2.035156 -1.113281 2.171875 -1.046875 2.328125 -1.015625 C 2.484375 -0.992188 2.613281 -0.984375 2.71875 -0.984375 C 2.90625 -0.984375 3.0625 -1.015625 3.1875 -1.078125 C 3.3125 -1.140625 3.375 -1.238281 3.375 -1.375 C 3.375 -1.53125 3.300781 -1.648438 3.15625 -1.734375 C 3.019531 -1.816406 2.835938 -1.878906 2.609375 -1.921875 C 2.390625 -1.960938 2.148438 -2.003906 1.890625 -2.046875 C 1.640625 -2.085938 1.398438 -2.144531 1.171875 -2.21875 C 0.941406 -2.300781 0.753906 -2.421875 0.609375 -2.578125 C 0.472656 -2.742188 0.40625 -2.96875 0.40625 -3.25 C 0.40625 -3.71875 0.585938 -4.078125 0.953125 -4.328125 C 1.328125 -4.578125 1.894531 -4.703125 2.65625 -4.703125 C 3.257812 -4.703125 3.765625 -4.582031 4.171875 -4.34375 C 4.578125 -4.113281 4.816406 -3.734375 4.890625 -3.203125 Z M 4.890625 -3.203125 "/></g></g></g><g fill="#00ff0a" fill-opacity="1"><g transform="translate(7.930048, 133.346896)"><g><path d="M 3.640625 -5.671875 L 3.640625 0 L 2.078125 0 L 2.078125 -5.671875 L 0.046875 -5.671875 L 0.046875 -7.09375 L 5.671875 -7.09375 L 5.671875 -5.671875 Z M 3.640625 -5.671875 "/></g></g></g><g fill="#00ff0a" fill-opacity="1"><g transform="translate(13.648585, 133.346896)"><g><path d="M 0.546875 -6.171875 C 0.546875 -6.429688 0.632812 -6.648438 0.8125 -6.828125 C 0.988281 -7.003906 1.207031 -7.09375 1.46875 -7.09375 C 1.71875 -7.09375 1.929688 -7.003906 2.109375 -6.828125 C 2.285156 -6.648438 2.375 -6.429688 2.375 -6.171875 C 2.375 -5.921875 2.285156 -5.707031 2.109375 -5.53125 C 1.929688 -5.351562 1.71875 -5.265625 1.46875 -5.265625 C 1.207031 -5.265625 0.988281 -5.351562 0.8125 -5.53125 C 0.632812 -5.707031 0.546875 -5.921875 0.546875 -6.171875 Z M 2.25 0 L 0.671875 0 L 0.671875 -4.609375 L 2.25 -4.609375 Z M 2.25 0 "/></g></g></g><g fill="#00ff0a" fill-opacity="1"><g transform="translate(16.570467, 133.346896)"><g><path d="M 5.265625 -2.34375 L 5.265625 0 L 3.703125 0 L 3.703125 -2.546875 C 3.703125 -2.765625 3.65625 -2.96875 3.5625 -3.15625 C 3.476562 -3.34375 3.300781 -3.4375 3.03125 -3.4375 C 2.863281 -3.4375 2.710938 -3.375 2.578125 -3.25 C 2.453125 -3.125 2.351562 -2.972656 2.28125 -2.796875 C 2.21875 -2.617188 2.1875 -2.453125 2.1875 -2.296875 L 2.1875 0 L 0.625 0 L 0.625 -4.609375 L 2.1875 -4.609375 L 2.1875 -4.046875 C 2.351562 -4.242188 2.539062 -4.398438 2.75 -4.515625 C 2.96875 -4.640625 3.207031 -4.703125 3.46875 -4.703125 C 3.757812 -4.703125 4.03125 -4.640625 4.28125 -4.515625 C 4.53125 -4.390625 4.734375 -4.191406 4.890625 -3.921875 C 5.117188 -4.210938 5.363281 -4.414062 5.625 -4.53125 C 5.894531 -4.644531 6.210938 -4.703125 6.578125 -4.703125 C 6.984375 -4.703125 7.316406 -4.601562 7.578125 -4.40625 C 7.835938 -4.21875 8.03125 -3.957031 8.15625 -3.625 C 8.28125 -3.300781 8.34375 -2.941406 8.34375 -2.546875 L 8.34375 0 L 6.78125 0 L 6.78125 -2.546875 C 6.78125 -2.765625 6.734375 -2.96875 6.640625 -3.15625 C 6.554688 -3.34375 6.378906 -3.4375 6.109375 -3.4375 C 5.910156 -3.4375 5.75 -3.378906 5.625 -3.265625 C 5.5 -3.160156 5.40625 -3.019531 5.34375 -2.84375 C 5.289062 -2.675781 5.265625 -2.507812 5.265625 -2.34375 Z M 5.265625 -2.34375 "/></g></g></g><g fill="#00ff0a" fill-opacity="1"><g transform="translate(25.388281, 133.346896)"><g><path d="M 2.046875 -2.84375 L 4.109375 -2.84375 C 4.109375 -2.84375 4.097656 -2.882812 4.078125 -2.96875 C 4.054688 -3.0625 4.007812 -3.160156 3.9375 -3.265625 C 3.875 -3.378906 3.773438 -3.476562 3.640625 -3.5625 C 3.503906 -3.65625 3.316406 -3.703125 3.078125 -3.703125 C 2.835938 -3.703125 2.644531 -3.65625 2.5 -3.5625 C 2.363281 -3.476562 2.257812 -3.378906 2.1875 -3.265625 C 2.125 -3.160156 2.082031 -3.0625 2.0625 -2.96875 C 2.050781 -2.882812 2.046875 -2.84375 2.046875 -2.84375 Z M 5.609375 -2.40625 C 5.609375 -2.351562 5.601562 -2.300781 5.59375 -2.25 C 5.59375 -2.207031 5.59375 -2.160156 5.59375 -2.109375 L 2.03125 -2.109375 C 2.03125 -1.929688 2.066406 -1.757812 2.140625 -1.59375 C 2.222656 -1.425781 2.335938 -1.285156 2.484375 -1.171875 C 2.640625 -1.066406 2.816406 -1.015625 3.015625 -1.015625 C 3.296875 -1.015625 3.515625 -1.085938 3.671875 -1.234375 C 3.828125 -1.390625 3.910156 -1.550781 3.921875 -1.71875 L 5.515625 -1.71875 C 5.390625 -1.101562 5.097656 -0.644531 4.640625 -0.34375 C 4.191406 -0.0390625 3.660156 0.109375 3.046875 0.109375 C 2.515625 0.109375 2.046875 0.0078125 1.640625 -0.1875 C 1.242188 -0.382812 0.929688 -0.660156 0.703125 -1.015625 C 0.472656 -1.378906 0.359375 -1.804688 0.359375 -2.296875 C 0.359375 -2.773438 0.472656 -3.195312 0.703125 -3.5625 C 0.941406 -3.925781 1.265625 -4.207031 1.671875 -4.40625 C 2.078125 -4.601562 2.535156 -4.703125 3.046875 -4.703125 C 3.515625 -4.703125 3.941406 -4.613281 4.328125 -4.4375 C 4.710938 -4.257812 5.019531 -4 5.25 -3.65625 C 5.488281 -3.3125 5.609375 -2.894531 5.609375 -2.40625 Z M 5.609375 -2.40625 "/></g></g></g><g fill="#00ff0a" fill-opacity="1"><g transform="translate(31.357263, 133.346896)"><g><path d="M 2.453125 -7.828125 L 3.609375 -7.828125 L 3.609375 -6.609375 L 2.9375 -6.609375 C 2.78125 -6.609375 2.671875 -6.554688 2.609375 -6.453125 C 2.554688 -6.359375 2.53125 -6.203125 2.53125 -5.984375 L 2.53125 -4.609375 L 3.609375 -4.609375 L 3.609375 -3.390625 L 2.53125 -3.390625 L 2.53125 0 L 0.96875 0 L 0.96875 -3.390625 L 0.3125 -3.390625 L 0.3125 -4.609375 L 0.96875 -4.609375 L 0.96875 -6.171875 C 0.96875 -6.742188 1.109375 -7.160156 1.390625 -7.421875 C 1.679688 -7.691406 2.035156 -7.828125 2.453125 -7.828125 Z M 2.453125 -7.828125 "/></g></g></g><g fill="#00ff0a" fill-opacity="1"><g transform="translate(35.145272, 133.346896)"><g><path d="M 3.21875 -3.4375 C 3.03125 -3.4375 2.859375 -3.378906 2.703125 -3.265625 C 2.546875 -3.148438 2.421875 -3.003906 2.328125 -2.828125 C 2.234375 -2.660156 2.1875 -2.484375 2.1875 -2.296875 L 2.1875 0 L 0.625 0 L 0.625 -4.609375 L 2.1875 -4.609375 L 2.1875 -4.046875 C 2.3125 -4.210938 2.472656 -4.363281 2.671875 -4.5 C 2.867188 -4.632812 3.113281 -4.703125 3.40625 -4.703125 C 3.46875 -4.703125 3.546875 -4.691406 3.640625 -4.671875 C 3.734375 -4.660156 3.8125 -4.640625 3.875 -4.609375 L 3.875 -3.1875 L 3.84375 -3.1875 C 3.769531 -3.28125 3.675781 -3.34375 3.5625 -3.375 C 3.457031 -3.414062 3.34375 -3.4375 3.21875 -3.4375 Z M 3.21875 -3.4375 "/></g></g></g><g fill="#00ff0a" fill-opacity="1"><g transform="translate(39.121116, 133.346896)"><g><path d="M 4.234375 -2.296875 C 4.234375 -2.492188 4.179688 -2.679688 4.078125 -2.859375 C 3.984375 -3.035156 3.851562 -3.175781 3.6875 -3.28125 C 3.519531 -3.382812 3.332031 -3.4375 3.125 -3.4375 C 2.914062 -3.4375 2.726562 -3.382812 2.5625 -3.28125 C 2.40625 -3.175781 2.273438 -3.035156 2.171875 -2.859375 C 2.078125 -2.679688 2.03125 -2.492188 2.03125 -2.296875 C 2.03125 -2.097656 2.078125 -1.910156 2.171875 -1.734375 C 2.273438 -1.554688 2.40625 -1.410156 2.5625 -1.296875 C 2.726562 -1.191406 2.914062 -1.140625 3.125 -1.140625 C 3.332031 -1.140625 3.519531 -1.191406 3.6875 -1.296875 C 3.851562 -1.410156 3.984375 -1.554688 4.078125 -1.734375 C 4.179688 -1.910156 4.234375 -2.097656 4.234375 -2.296875 Z M 5.796875 -4.59375 L 5.796875 0 L 4.234375 0 L 4.234375 -0.546875 C 4.078125 -0.316406 3.847656 -0.148438 3.546875 -0.046875 C 3.242188 0.0546875 2.945312 0.109375 2.65625 0.109375 C 2.21875 0.109375 1.820312 0 1.46875 -0.21875 C 1.125 -0.445312 0.851562 -0.742188 0.65625 -1.109375 C 0.457031 -1.472656 0.359375 -1.867188 0.359375 -2.296875 C 0.359375 -2.722656 0.457031 -3.117188 0.65625 -3.484375 C 0.851562 -3.847656 1.125 -4.140625 1.46875 -4.359375 C 1.820312 -4.585938 2.21875 -4.703125 2.65625 -4.703125 C 2.945312 -4.703125 3.226562 -4.65625 3.5 -4.5625 C 3.78125 -4.46875 4.023438 -4.296875 4.234375 -4.046875 L 4.234375 -4.59375 Z M 5.796875 -4.59375 "/></g></g></g><g fill="#00ff0a" fill-opacity="1"><g transform="translate(45.538816, 133.346896)"><g><path d="M 5.265625 -2.34375 L 5.265625 0 L 3.703125 0 L 3.703125 -2.546875 C 3.703125 -2.765625 3.65625 -2.96875 3.5625 -3.15625 C 3.476562 -3.34375 3.300781 -3.4375 3.03125 -3.4375 C 2.863281 -3.4375 2.710938 -3.375 2.578125 -3.25 C 2.453125 -3.125 2.351562 -2.972656 2.28125 -2.796875 C 2.21875 -2.617188 2.1875 -2.453125 2.1875 -2.296875 L 2.1875 0 L 0.625 0 L 0.625 -4.609375 L 2.1875 -4.609375 L 2.1875 -4.046875 C 2.351562 -4.242188 2.539062 -4.398438 2.75 -4.515625 C 2.96875 -4.640625 3.207031 -4.703125 3.46875 -4.703125 C 3.757812 -4.703125 4.03125 -4.640625 4.28125 -4.515625 C 4.53125 -4.390625 4.734375 -4.191406 4.890625 -3.921875 C 5.117188 -4.210938 5.363281 -4.414062 5.625 -4.53125 C 5.894531 -4.644531 6.210938 -4.703125 6.578125 -4.703125 C 6.984375 -4.703125 7.316406 -4.601562 7.578125 -4.40625 C 7.835938 -4.21875 8.03125 -3.957031 8.15625 -3.625 C 8.28125 -3.300781 8.34375 -2.941406 8.34375 -2.546875 L 8.34375 0 L 6.78125 0 L 6.78125 -2.546875 C 6.78125 -2.765625 6.734375 -2.96875 6.640625 -3.15625 C 6.554688 -3.34375 6.378906 -3.4375 6.109375 -3.4375 C 5.910156 -3.4375 5.75 -3.378906 5.625 -3.265625 C 5.5 -3.160156 5.40625 -3.019531 5.34375 -2.84375 C 5.289062 -2.675781 5.265625 -2.507812 5.265625 -2.34375 Z M 5.265625 -2.34375 "/></g></g></g><g fill="#00ff0a" fill-opacity="1"><g transform="translate(54.356631, 133.346896)"><g><path d="M 2.046875 -2.84375 L 4.109375 -2.84375 C 4.109375 -2.84375 4.097656 -2.882812 4.078125 -2.96875 C 4.054688 -3.0625 4.007812 -3.160156 3.9375 -3.265625 C 3.875 -3.378906 3.773438 -3.476562 3.640625 -3.5625 C 3.503906 -3.65625 3.316406 -3.703125 3.078125 -3.703125 C 2.835938 -3.703125 2.644531 -3.65625 2.5 -3.5625 C 2.363281 -3.476562 2.257812 -3.378906 2.1875 -3.265625 C 2.125 -3.160156 2.082031 -3.0625 2.0625 -2.96875 C 2.050781 -2.882812 2.046875 -2.84375 2.046875 -2.84375 Z M 5.609375 -2.40625 C 5.609375 -2.351562 5.601562 -2.300781 5.59375 -2.25 C 5.59375 -2.207031 5.59375 -2.160156 5.59375 -2.109375 L 2.03125 -2.109375 C 2.03125 -1.929688 2.066406 -1.757812 2.140625 -1.59375 C 2.222656 -1.425781 2.335938 -1.285156 2.484375 -1.171875 C 2.640625 -1.066406 2.816406 -1.015625 3.015625 -1.015625 C 3.296875 -1.015625 3.515625 -1.085938 3.671875 -1.234375 C 3.828125 -1.390625 3.910156 -1.550781 3.921875 -1.71875 L 5.515625 -1.71875 C 5.390625 -1.101562 5.097656 -0.644531 4.640625 -0.34375 C 4.191406 -0.0390625 3.660156 0.109375 3.046875 0.109375 C 2.515625 0.109375 2.046875 0.0078125 1.640625 -0.1875 C 1.242188 -0.382812 0.929688 -0.660156 0.703125 -1.015625 C 0.472656 -1.378906 0.359375 -1.804688 0.359375 -2.296875 C 0.359375 -2.773438 0.472656 -3.195312 0.703125 -3.5625 C 0.941406 -3.925781 1.265625 -4.207031 1.671875 -4.40625 C 2.078125 -4.601562 2.535156 -4.703125 3.046875 -4.703125 C 3.515625 -4.703125 3.941406 -4.613281 4.328125 -4.4375 C 4.710938 -4.257812 5.019531 -4 5.25 -3.65625 C 5.488281 -3.3125 5.609375 -2.894531 5.609375 -2.40625 Z M 5.609375 -2.40625 "/></g></g></g><g fill="#00ff0a" fill-opacity="1"><g transform="translate(7.930048, 162.133794)"><g><path d="M 6.203125 0 L 4.640625 0 L 2.1875 -4.421875 L 2.1875 0 L 0.625 0 L 0.625 -7.09375 L 2.1875 -7.09375 L 4.640625 -2.671875 L 4.640625 -7.09375 L 6.203125 -7.09375 Z M 6.203125 0 "/></g></g></g><g fill="#00ff0a" fill-opacity="1"><g transform="translate(14.754726, 162.133794)"><g><path d="M 3 -1.078125 C 3.269531 -1.078125 3.484375 -1.132812 3.640625 -1.25 C 3.796875 -1.375 3.90625 -1.53125 3.96875 -1.71875 C 4.03125 -1.90625 4.0625 -2.09375 4.0625 -2.28125 C 4.0625 -2.476562 4.023438 -2.664062 3.953125 -2.84375 C 3.890625 -3.03125 3.78125 -3.179688 3.625 -3.296875 C 3.476562 -3.410156 3.269531 -3.46875 3 -3.46875 C 2.726562 -3.46875 2.515625 -3.410156 2.359375 -3.296875 C 2.203125 -3.179688 2.085938 -3.03125 2.015625 -2.84375 C 1.953125 -2.664062 1.921875 -2.476562 1.921875 -2.28125 C 1.921875 -2.09375 1.953125 -1.90625 2.015625 -1.71875 C 2.078125 -1.53125 2.1875 -1.375 2.34375 -1.25 C 2.5 -1.132812 2.71875 -1.078125 3 -1.078125 Z M 3 -4.703125 C 3.476562 -4.703125 3.914062 -4.597656 4.3125 -4.390625 C 4.707031 -4.191406 5.019531 -3.910156 5.25 -3.546875 C 5.488281 -3.191406 5.609375 -2.773438 5.609375 -2.296875 C 5.609375 -1.804688 5.492188 -1.378906 5.265625 -1.015625 C 5.035156 -0.660156 4.71875 -0.382812 4.3125 -0.1875 C 3.914062 0 3.476562 0.09375 3 0.09375 C 2.507812 0.09375 2.0625 0 1.65625 -0.1875 C 1.257812 -0.382812 0.941406 -0.660156 0.703125 -1.015625 C 0.472656 -1.378906 0.359375 -1.804688 0.359375 -2.296875 C 0.359375 -2.773438 0.476562 -3.191406 0.71875 -3.546875 C 0.957031 -3.910156 1.273438 -4.191406 1.671875 -4.390625 C 2.078125 -4.597656 2.519531 -4.703125 3 -4.703125 Z M 3 -4.703125 "/></g></g></g><g fill="#00ff0a" fill-opacity="1"><g transform="translate(20.734143, 162.133794)"><g><path d="M 2.59375 -3.390625 L 2.59375 0 L 1.046875 0 L 1.046875 -3.390625 L 0.203125 -3.390625 L 0.203125 -4.609375 L 1.046875 -4.609375 L 1.046875 -6.359375 L 2.59375 -6.359375 L 2.59375 -4.609375 L 3.4375 -4.609375 L 3.4375 -3.390625 Z M 2.59375 -3.390625 "/></g></g></g><g fill="#00ff0a" fill-opacity="1"><g transform="translate(24.376058, 162.133794)"><g><path d="M 2.046875 -2.84375 L 4.109375 -2.84375 C 4.109375 -2.84375 4.097656 -2.882812 4.078125 -2.96875 C 4.054688 -3.0625 4.007812 -3.160156 3.9375 -3.265625 C 3.875 -3.378906 3.773438 -3.476562 3.640625 -3.5625 C 3.503906 -3.65625 3.316406 -3.703125 3.078125 -3.703125 C 2.835938 -3.703125 2.644531 -3.65625 2.5 -3.5625 C 2.363281 -3.476562 2.257812 -3.378906 2.1875 -3.265625 C 2.125 -3.160156 2.082031 -3.0625 2.0625 -2.96875 C 2.050781 -2.882812 2.046875 -2.84375 2.046875 -2.84375 Z M 5.609375 -2.40625 C 5.609375 -2.351562 5.601562 -2.300781 5.59375 -2.25 C 5.59375 -2.207031 5.59375 -2.160156 5.59375 -2.109375 L 2.03125 -2.109375 C 2.03125 -1.929688 2.066406 -1.757812 2.140625 -1.59375 C 2.222656 -1.425781 2.335938 -1.285156 2.484375 -1.171875 C 2.640625 -1.066406 2.816406 -1.015625 3.015625 -1.015625 C 3.296875 -1.015625 3.515625 -1.085938 3.671875 -1.234375 C 3.828125 -1.390625 3.910156 -1.550781 3.921875 -1.71875 L 5.515625 -1.71875 C 5.390625 -1.101562 5.097656 -0.644531 4.640625 -0.34375 C 4.191406 -0.0390625 3.660156 0.109375 3.046875 0.109375 C 2.515625 0.109375 2.046875 0.0078125 1.640625 -0.1875 C 1.242188 -0.382812 0.929688 -0.660156 0.703125 -1.015625 C 0.472656 -1.378906 0.359375 -1.804688 0.359375 -2.296875 C 0.359375 -2.773438 0.472656 -3.195312 0.703125 -3.5625 C 0.941406 -3.925781 1.265625 -4.207031 1.671875 -4.40625 C 2.078125 -4.601562 2.535156 -4.703125 3.046875 -4.703125 C 3.515625 -4.703125 3.941406 -4.613281 4.328125 -4.4375 C 4.710938 -4.257812 5.019531 -4 5.25 -3.65625 C 5.488281 -3.3125 5.609375 -2.894531 5.609375 -2.40625 Z M 5.609375 -2.40625 "/></g></g></g><g fill="#ffffff" fill-opacity="1"><g transform="translate(112.121307, 31.08211)"><g><path d="M 1.40625 0.109375 C 1.238281 0.109375 1.097656 0.046875 0.984375 -0.078125 C 0.847656 -0.179688 0.78125 -0.316406 0.78125 -0.484375 C 0.78125 -0.640625 0.84375 -0.78125 0.96875 -0.90625 C 1.082031 -1.019531 1.226562 -1.078125 1.40625 -1.078125 C 1.570312 -1.078125 1.71875 -1.023438 1.84375 -0.921875 C 1.957031 -0.796875 2.015625 -0.65625 2.015625 -0.5 C 2.015625 -0.320312 1.953125 -0.179688 1.828125 -0.078125 C 1.703125 0.046875 1.5625 0.109375 1.40625 0.109375 Z M 1.40625 -3.96875 C 1.238281 -3.96875 1.097656 -4.023438 0.984375 -4.140625 C 0.847656 -4.253906 0.78125 -4.390625 0.78125 -4.546875 C 0.78125 -4.710938 0.84375 -4.851562 0.96875 -4.96875 C 1.082031 -5.09375 1.226562 -5.15625 1.40625 -5.15625 C 1.570312 -5.15625 1.71875 -5.097656 1.84375 -4.984375 C 1.957031 -4.867188 2.015625 -4.726562 2.015625 -4.5625 C 2.015625 -4.394531 1.953125 -4.253906 1.828125 -4.140625 C 1.703125 -4.023438 1.5625 -3.96875 1.40625 -3.96875 Z M 1.40625 -3.96875 "/></g></g></g><g fill="#ffffff" fill-opacity="1"><g transform="translate(114.928873, 31.08211)"><g/></g></g><g fill="#ffffff" fill-opacity="1"><g transform="translate(117.767985, 31.08211)"><g><path d="M 1.53125 -0.734375 L 4.078125 -0.734375 L 4.078125 0 L 0.78125 0 L 0.78125 -7.15625 L 1.53125 -7.15625 Z M 1.53125 -0.734375 "/></g></g></g><g fill="#ffffff" fill-opacity="1"><g transform="translate(122.058198, 31.08211)"><g><path d="M 4.578125 -2.328125 C 4.578125 -2.796875 4.410156 -3.191406 4.078125 -3.515625 C 3.742188 -3.847656 3.347656 -4.015625 2.890625 -4.015625 C 2.429688 -4.015625 2.035156 -3.847656 1.703125 -3.515625 C 1.367188 -3.191406 1.203125 -2.796875 1.203125 -2.328125 C 1.203125 -1.878906 1.367188 -1.488281 1.703125 -1.15625 C 2.035156 -0.820312 2.429688 -0.65625 2.890625 -0.65625 C 3.347656 -0.65625 3.742188 -0.820312 4.078125 -1.15625 C 4.410156 -1.488281 4.578125 -1.878906 4.578125 -2.328125 Z M 5.3125 -2.328125 C 5.3125 -1.660156 5.078125 -1.09375 4.609375 -0.625 C 4.117188 -0.15625 3.546875 0.078125 2.890625 0.078125 C 2.234375 0.078125 1.664062 -0.15625 1.1875 -0.625 C 0.707031 -1.09375 0.46875 -1.660156 0.46875 -2.328125 C 0.46875 -2.992188 0.707031 -3.566406 1.1875 -4.046875 C 1.65625 -4.515625 2.222656 -4.75 2.890625 -4.75 C 3.554688 -4.75 4.128906 -4.515625 4.609375 -4.046875 C 5.078125 -3.566406 5.3125 -2.992188 5.3125 -2.328125 Z M 5.3125 -2.328125 "/></g></g></g><g fill="#ffffff" fill-opacity="1"><g transform="translate(127.841573, 31.08211)"><g><path d="M 3.984375 0 L 3.984375 -2.890625 C 3.984375 -3.191406 3.914062 -3.453125 3.78125 -3.671875 C 3.644531 -3.878906 3.421875 -3.984375 3.109375 -3.984375 C 2.785156 -3.984375 2.523438 -3.925781 2.328125 -3.8125 C 2.140625 -3.6875 1.984375 -3.53125 1.859375 -3.34375 C 1.640625 -2.988281 1.53125 -2.519531 1.53125 -1.9375 L 1.53125 0 L 0.78125 0 L 0.78125 -4.625 L 1.53125 -4.625 L 1.53125 -3.828125 C 1.675781 -4.085938 1.867188 -4.300781 2.109375 -4.46875 C 2.367188 -4.632812 2.660156 -4.71875 2.984375 -4.71875 C 3.316406 -4.71875 3.582031 -4.671875 3.78125 -4.578125 C 3.988281 -4.484375 4.160156 -4.359375 4.296875 -4.203125 C 4.578125 -3.867188 4.71875 -3.429688 4.71875 -2.890625 L 4.71875 0 Z M 3.984375 0 "/></g></g></g><g fill="#ffffff" fill-opacity="1"><g transform="translate(133.193824, 31.08211)"><g><path d="M 4.53125 -2.3125 C 4.53125 -2.757812 4.375 -3.148438 4.0625 -3.484375 C 3.75 -3.828125 3.363281 -4 2.90625 -4 C 2.457031 -4 2.070312 -3.828125 1.75 -3.484375 C 1.425781 -3.160156 1.265625 -2.769531 1.265625 -2.3125 C 1.265625 -1.851562 1.425781 -1.460938 1.75 -1.140625 C 2.070312 -0.796875 2.457031 -0.625 2.90625 -0.625 C 3.363281 -0.625 3.75 -0.796875 4.0625 -1.140625 C 4.375 -1.472656 4.53125 -1.863281 4.53125 -2.3125 Z M 1.25 0.625 C 1.320312 0.914062 1.472656 1.175781 1.703125 1.40625 C 2.023438 1.726562 2.414062 1.890625 2.875 1.890625 C 3.320312 1.890625 3.710938 1.726562 4.046875 1.40625 C 4.367188 1.082031 4.53125 0.691406 4.53125 0.234375 L 4.53125 -0.78125 C 4.5 -0.726562 4.460938 -0.675781 4.421875 -0.625 C 3.972656 -0.132812 3.429688 0.109375 2.796875 0.109375 C 2.148438 0.109375 1.609375 -0.132812 1.171875 -0.625 C 0.742188 -1.101562 0.53125 -1.664062 0.53125 -2.3125 C 0.53125 -2.957031 0.742188 -3.519531 1.171875 -4 C 1.609375 -4.488281 2.148438 -4.734375 2.796875 -4.734375 C 3.410156 -4.734375 3.953125 -4.488281 4.421875 -4 C 4.460938 -3.945312 4.5 -3.894531 4.53125 -3.84375 L 4.53125 -4.625 L 5.265625 -4.625 L 5.265625 0.234375 C 5.265625 0.890625 5.03125 1.453125 4.5625 1.921875 C 4.09375 2.390625 3.53125 2.625 2.875 2.625 C 2.207031 2.625 1.640625 2.390625 1.171875 1.921875 C 0.804688 1.546875 0.582031 1.113281 0.5 0.625 Z M 1.25 0.625 "/></g></g></g><g fill="#ffffff" fill-opacity="1"><g transform="translate(139.250594, 31.08211)"><g><path d="M 5.328125 -7.890625 L 1.234375 2.109375 L 0.453125 2.109375 L 4.53125 -7.890625 Z M 5.328125 -7.890625 "/></g></g></g><g fill="#ffffff" fill-opacity="1"><g transform="translate(144.907784, 31.08211)"><g><path d="M 2.78125 -3.375 C 1.320312 -3.707031 0.59375 -4.332031 0.59375 -5.25 C 0.59375 -5.914062 0.828125 -6.421875 1.296875 -6.765625 C 1.765625 -7.085938 2.3125 -7.25 2.9375 -7.25 C 4.332031 -7.25 5.160156 -6.734375 5.421875 -5.703125 L 4.625 -5.703125 C 4.488281 -6.316406 3.925781 -6.625 2.9375 -6.625 C 2.25 -6.625 1.769531 -6.421875 1.5 -6.015625 C 1.394531 -5.859375 1.34375 -5.664062 1.34375 -5.4375 C 1.34375 -5 1.582031 -4.660156 2.0625 -4.421875 C 2.28125 -4.296875 2.753906 -4.140625 3.484375 -3.953125 C 4.210938 -3.765625 4.742188 -3.554688 5.078125 -3.328125 C 5.535156 -3.003906 5.765625 -2.550781 5.765625 -1.96875 C 5.765625 -1.25 5.476562 -0.703125 4.90625 -0.328125 C 4.4375 -0.015625 3.847656 0.140625 3.140625 0.140625 C 1.554688 0.140625 0.640625 -0.460938 0.390625 -1.671875 L 1.265625 -1.671875 C 1.398438 -0.910156 2.023438 -0.53125 3.140625 -0.53125 C 3.941406 -0.53125 4.5 -0.753906 4.8125 -1.203125 C 4.9375 -1.378906 5 -1.613281 5 -1.90625 C 5 -2.207031 4.882812 -2.453125 4.65625 -2.640625 C 4.332031 -2.898438 3.707031 -3.144531 2.78125 -3.375 Z M 2.78125 -3.375 "/></g></g></g><g fill="#ffffff" fill-opacity="1"><g transform="translate(150.943525, 31.08211)"><g><path d="M 1.53125 0 L 0.78125 0 L 0.78125 -7.890625 L 1.53125 -7.890625 L 1.53125 -3.828125 C 1.675781 -4.085938 1.867188 -4.300781 2.109375 -4.46875 C 2.367188 -4.632812 2.660156 -4.71875 2.984375 -4.71875 C 3.316406 -4.71875 3.582031 -4.671875 3.78125 -4.578125 C 3.988281 -4.484375 4.160156 -4.359375 4.296875 -4.203125 C 4.578125 -3.867188 4.71875 -3.429688 4.71875 -2.890625 L 4.71875 0 L 3.984375 0 L 3.984375 -2.890625 C 3.984375 -3.191406 3.914062 -3.453125 3.78125 -3.671875 C 3.644531 -3.878906 3.421875 -3.984375 3.109375 -3.984375 C 2.785156 -3.984375 2.523438 -3.9375 2.328125 -3.84375 C 2.140625 -3.738281 1.984375 -3.59375 1.859375 -3.40625 C 1.640625 -3.070312 1.53125 -2.582031 1.53125 -1.9375 Z M 1.53125 0 "/></g></g></g><g fill="#ffffff" fill-opacity="1"><g transform="translate(156.295776, 31.08211)"><g><path d="M 4.578125 -2.328125 C 4.578125 -2.796875 4.410156 -3.191406 4.078125 -3.515625 C 3.742188 -3.847656 3.347656 -4.015625 2.890625 -4.015625 C 2.429688 -4.015625 2.035156 -3.847656 1.703125 -3.515625 C 1.367188 -3.191406 1.203125 -2.796875 1.203125 -2.328125 C 1.203125 -1.878906 1.367188 -1.488281 1.703125 -1.15625 C 2.035156 -0.820312 2.429688 -0.65625 2.890625 -0.65625 C 3.347656 -0.65625 3.742188 -0.820312 4.078125 -1.15625 C 4.410156 -1.488281 4.578125 -1.878906 4.578125 -2.328125 Z M 5.3125 -2.328125 C 5.3125 -1.660156 5.078125 -1.09375 4.609375 -0.625 C 4.117188 -0.15625 3.546875 0.078125 2.890625 0.078125 C 2.234375 0.078125 1.664062 -0.15625 1.1875 -0.625 C 0.707031 -1.09375 0.46875 -1.660156 0.46875 -2.328125 C 0.46875 -2.992188 0.707031 -3.566406 1.1875 -4.046875 C 1.65625 -4.515625 2.222656 -4.75 2.890625 -4.75 C 3.554688 -4.75 4.128906 -4.515625 4.609375 -4.046875 C 5.078125 -3.566406 5.3125 -2.992188 5.3125 -2.328125 Z M 5.3125 -2.328125 "/></g></g></g><g fill="#ffffff" fill-opacity="1"><g transform="translate(162.079151, 31.08211)"><g><path d="M 3.171875 -3.671875 C 2.992188 -3.828125 2.8125 -3.90625 2.625 -3.90625 C 2.425781 -3.90625 2.265625 -3.851562 2.140625 -3.75 C 1.992188 -3.632812 1.875 -3.5 1.78125 -3.34375 C 1.613281 -3.03125 1.53125 -2.6875 1.53125 -2.3125 L 1.53125 0 L 0.78125 0 L 0.78125 -4.625 L 1.53125 -4.625 L 1.53125 -3.671875 L 1.5625 -3.859375 C 1.800781 -4.429688 2.179688 -4.71875 2.703125 -4.71875 C 2.859375 -4.71875 3.015625 -4.6875 3.171875 -4.625 Z M 3.171875 -3.671875 "/></g></g></g><g fill="#ffffff" fill-opacity="1"><g transform="translate(165.349388, 31.08211)"><g><path d="M 0.203125 -3.9375 L 0.203125 -4.625 L 1.359375 -4.625 L 1.359375 -6.421875 L 2.109375 -6.421875 L 2.109375 -4.625 L 3.25 -4.625 L 3.25 -3.9375 L 2.109375 -3.9375 L 2.109375 0 L 1.359375 0 L 1.359375 -3.9375 Z M 0.203125 -3.9375 "/></g></g></g><g fill="#ffffff" fill-opacity="1"><g transform="translate(112.121307, 45.664145)"><g><path d="M 1.40625 0.109375 C 1.238281 0.109375 1.097656 0.046875 0.984375 -0.078125 C 0.847656 -0.179688 0.78125 -0.316406 0.78125 -0.484375 C 0.78125 -0.640625 0.84375 -0.78125 0.96875 -0.90625 C 1.082031 -1.019531 1.226562 -1.078125 1.40625 -1.078125 C 1.570312 -1.078125 1.71875 -1.023438 1.84375 -0.921875 C 1.957031 -0.796875 2.015625 -0.65625 2.015625 -0.5 C 2.015625 -0.320312 1.953125 -0.179688 1.828125 -0.078125 C 1.703125 0.046875 1.5625 0.109375 1.40625 0.109375 Z M 1.40625 -3.96875 C 1.238281 -3.96875 1.097656 -4.023438 0.984375 -4.140625 C 0.847656 -4.253906 0.78125 -4.390625 0.78125 -4.546875 C 0.78125 -4.710938 0.84375 -4.851562 0.96875 -4.96875 C 1.082031 -5.09375 1.226562 -5.15625 1.40625 -5.15625 C 1.570312 -5.15625 1.71875 -5.097656 1.84375 -4.984375 C 1.957031 -4.867188 2.015625 -4.726562 2.015625 -4.5625 C 2.015625 -4.394531 1.953125 -4.253906 1.828125 -4.140625 C 1.703125 -4.023438 1.5625 -3.96875 1.40625 -3.96875 Z M 1.40625 -3.96875 "/></g></g></g><g fill="#ffffff" fill-opacity="1"><g transform="translate(114.928873, 45.664145)"><g/></g></g><g fill="#ffffff" fill-opacity="1"><g transform="translate(117.767985, 45.664145)"><g><path d="M 3.921875 -2.046875 L 0.40625 -2.046875 L 0.40625 -2.640625 L 3.921875 -2.640625 Z M 3.921875 -2.046875 "/></g></g></g><g fill="#ffffff" fill-opacity="1"><g transform="translate(112.121307, 60.246181)"><g><path d="M 1.40625 0.109375 C 1.238281 0.109375 1.097656 0.046875 0.984375 -0.078125 C 0.847656 -0.179688 0.78125 -0.316406 0.78125 -0.484375 C 0.78125 -0.640625 0.84375 -0.78125 0.96875 -0.90625 C 1.082031 -1.019531 1.226562 -1.078125 1.40625 -1.078125 C 1.570312 -1.078125 1.71875 -1.023438 1.84375 -0.921875 C 1.957031 -0.796875 2.015625 -0.65625 2.015625 -0.5 C 2.015625 -0.320312 1.953125 -0.179688 1.828125 -0.078125 C 1.703125 0.046875 1.5625 0.109375 1.40625 0.109375 Z M 1.40625 -3.96875 C 1.238281 -3.96875 1.097656 -4.023438 0.984375 -4.140625 C 0.847656 -4.253906 0.78125 -4.390625 0.78125 -4.546875 C 0.78125 -4.710938 0.84375 -4.851562 0.96875 -4.96875 C 1.082031 -5.09375 1.226562 -5.15625 1.40625 -5.15625 C 1.570312 -5.15625 1.71875 -5.097656 1.84375 -4.984375 C 1.957031 -4.867188 2.015625 -4.726562 2.015625 -4.5625 C 2.015625 -4.394531 1.953125 -4.253906 1.828125 -4.140625 C 1.703125 -4.023438 1.5625 -3.96875 1.40625 -3.96875 Z M 1.40625 -3.96875 "/></g></g></g><g fill="#ffffff" fill-opacity="1"><g transform="translate(114.928873, 60.246181)"><g/></g></g><g fill="#ffffff" fill-opacity="1"><g transform="translate(117.767985, 60.246181)"><g><path d="M 3.921875 -2.046875 L 0.40625 -2.046875 L 0.40625 -2.640625 L 3.921875 -2.640625 Z M 3.921875 -2.046875 "/></g></g></g><g fill="#ffffff" fill-opacity="1"><g transform="translate(122.081972, 60.246181)"><g/></g></g><g fill="#ffffff" fill-opacity="1"><g transform="translate(112.121307, 89.410252)"><g><path d="M 1.40625 0.109375 C 1.238281 0.109375 1.097656 0.046875 0.984375 -0.078125 C 0.847656 -0.179688 0.78125 -0.316406 0.78125 -0.484375 C 0.78125 -0.640625 0.84375 -0.78125 0.96875 -0.90625 C 1.082031 -1.019531 1.226562 -1.078125 1.40625 -1.078125 C 1.570312 -1.078125 1.71875 -1.023438 1.84375 -0.921875 C 1.957031 -0.796875 2.015625 -0.65625 2.015625 -0.5 C 2.015625 -0.320312 1.953125 -0.179688 1.828125 -0.078125 C 1.703125 0.046875 1.5625 0.109375 1.40625 0.109375 Z M 1.40625 -3.96875 C 1.238281 -3.96875 1.097656 -4.023438 0.984375 -4.140625 C 0.847656 -4.253906 0.78125 -4.390625 0.78125 -4.546875 C 0.78125 -4.710938 0.84375 -4.851562 0.96875 -4.96875 C 1.082031 -5.09375 1.226562 -5.15625 1.40625 -5.15625 C 1.570312 -5.15625 1.71875 -5.097656 1.84375 -4.984375 C 1.957031 -4.867188 2.015625 -4.726562 2.015625 -4.5625 C 2.015625 -4.394531 1.953125 -4.253906 1.828125 -4.140625 C 1.703125 -4.023438 1.5625 -3.96875 1.40625 -3.96875 Z M 1.40625 -3.96875 "/></g></g></g><g fill="#ffffff" fill-opacity="1"><g transform="translate(114.928873, 89.410252)"><g/></g></g><g fill="#ffffff" fill-opacity="1"><g transform="translate(117.767985, 89.410252)"><g><path d="M 3.921875 -2.046875 L 0.40625 -2.046875 L 0.40625 -2.640625 L 3.921875 -2.640625 Z M 3.921875 -2.046875 "/></g></g></g><g fill="#ffffff" fill-opacity="1"><g transform="translate(112.121307, 103.992287)"><g><path d="M 1.40625 0.109375 C 1.238281 0.109375 1.097656 0.046875 0.984375 -0.078125 C 0.847656 -0.179688 0.78125 -0.316406 0.78125 -0.484375 C 0.78125 -0.640625 0.84375 -0.78125 0.96875 -0.90625 C 1.082031 -1.019531 1.226562 -1.078125 1.40625 -1.078125 C 1.570312 -1.078125 1.71875 -1.023438 1.84375 -0.921875 C 1.957031 -0.796875 2.015625 -0.65625 2.015625 -0.5 C 2.015625 -0.320312 1.953125 -0.179688 1.828125 -0.078125 C 1.703125 0.046875 1.5625 0.109375 1.40625 0.109375 Z M 1.40625 -3.96875 C 1.238281 -3.96875 1.097656 -4.023438 0.984375 -4.140625 C 0.847656 -4.253906 0.78125 -4.390625 0.78125 -4.546875 C 0.78125 -4.710938 0.84375 -4.851562 0.96875 -4.96875 C 1.082031 -5.09375 1.226562 -5.15625 1.40625 -5.15625 C 1.570312 -5.15625 1.71875 -5.097656 1.84375 -4.984375 C 1.957031 -4.867188 2.015625 -4.726562 2.015625 -4.5625 C 2.015625 -4.394531 1.953125 -4.253906 1.828125 -4.140625 C 1.703125 -4.023438 1.5625 -3.96875 1.40625 -3.96875 Z M 1.40625 -3.96875 "/></g></g></g><g fill="#ffffff" fill-opacity="1"><g transform="translate(114.928873, 103.992287)"><g/></g></g><g fill="#ffffff" fill-opacity="1"><g transform="translate(117.767985, 103.992287)"><g><path d="M 3.921875 -2.046875 L 0.40625 -2.046875 L 0.40625 -2.640625 L 3.921875 -2.640625 Z M 3.921875 -2.046875 "/></g></g></g><g fill="#ffffff" fill-opacity="1"><g transform="translate(112.121307, 133.156359)"><g><path d="M 1.40625 0.109375 C 1.238281 0.109375 1.097656 0.046875 0.984375 -0.078125 C 0.847656 -0.179688 0.78125 -0.316406 0.78125 -0.484375 C 0.78125 -0.640625 0.84375 -0.78125 0.96875 -0.90625 C 1.082031 -1.019531 1.226562 -1.078125 1.40625 -1.078125 C 1.570312 -1.078125 1.71875 -1.023438 1.84375 -0.921875 C 1.957031 -0.796875 2.015625 -0.65625 2.015625 -0.5 C 2.015625 -0.320312 1.953125 -0.179688 1.828125 -0.078125 C 1.703125 0.046875 1.5625 0.109375 1.40625 0.109375 Z M 1.40625 -3.96875 C 1.238281 -3.96875 1.097656 -4.023438 0.984375 -4.140625 C 0.847656 -4.253906 0.78125 -4.390625 0.78125 -4.546875 C 0.78125 -4.710938 0.84375 -4.851562 0.96875 -4.96875 C 1.082031 -5.09375 1.226562 -5.15625 1.40625 -5.15625 C 1.570312 -5.15625 1.71875 -5.097656 1.84375 -4.984375 C 1.957031 -4.867188 2.015625 -4.726562 2.015625 -4.5625 C 2.015625 -4.394531 1.953125 -4.253906 1.828125 -4.140625 C 1.703125 -4.023438 1.5625 -3.96875 1.40625 -3.96875 Z M 1.40625 -3.96875 "/></g></g></g><g fill="#ffffff" fill-opacity="1"><g transform="translate(114.928873, 133.156359)"><g/></g></g><g fill="#ffffff" fill-opacity="1"><g transform="translate(117.767985, 133.156359)"><g><path d="M 3.921875 -2.046875 L 0.40625 -2.046875 L 0.40625 -2.640625 L 3.921875 -2.640625 Z M 3.921875 -2.046875 "/></g></g></g><g fill="#ffffff" fill-opacity="1"><g transform="translate(112.121307, 162.32043)"><g><path d="M 1.40625 0.109375 C 1.238281 0.109375 1.097656 0.046875 0.984375 -0.078125 C 0.847656 -0.179688 0.78125 -0.316406 0.78125 -0.484375 C 0.78125 -0.640625 0.84375 -0.78125 0.96875 -0.90625 C 1.082031 -1.019531 1.226562 -1.078125 1.40625 -1.078125 C 1.570312 -1.078125 1.71875 -1.023438 1.84375 -0.921875 C 1.957031 -0.796875 2.015625 -0.65625 2.015625 -0.5 C 2.015625 -0.320312 1.953125 -0.179688 1.828125 -0.078125 C 1.703125 0.046875 1.5625 0.109375 1.40625 0.109375 Z M 1.40625 -3.96875 C 1.238281 -3.96875 1.097656 -4.023438 0.984375 -4.140625 C 0.847656 -4.253906 0.78125 -4.390625 0.78125 -4.546875 C 0.78125 -4.710938 0.84375 -4.851562 0.96875 -4.96875 C 1.082031 -5.09375 1.226562 -5.15625 1.40625 -5.15625 C 1.570312 -5.15625 1.71875 -5.097656 1.84375 -4.984375 C 1.957031 -4.867188 2.015625 -4.726562 2.015625 -4.5625 C 2.015625 -4.394531 1.953125 -4.253906 1.828125 -4.140625 C 1.703125 -4.023438 1.5625 -3.96875 1.40625 -3.96875 Z M 1.40625 -3.96875 "/></g></g></g><g fill="#ffffff" fill-opacity="1"><g transform="translate(114.928873, 162.32043)"><g/></g></g><g fill="#ffffff" fill-opacity="1"><g transform="translate(117.767985, 162.32043)"><g><path d="M 3.921875 -2.046875 L 0.40625 -2.046875 L 0.40625 -2.640625 L 3.921875 -2.640625 Z M 3.921875 -2.046875 "/></g></g></g></svg>