<svg xmlns="http://www.w3.org/2000/svg" xmlns:xlink="http://www.w3.org/1999/xlink" width="232" zoomAndPan="magnify" viewBox="0 0 174 173.999997" height="232" preserveAspectRatio="xMidYMid meet" version="1.0"><path fill="#000000" d="M 157.6875 70.6875 L 103.3125 70.6875 L 103.3125 16.3125 C 103.3125 7.300781 96.011719 0 87 0 C 77.988281 0 70.6875 7.300781 70.6875 16.3125 L 70.6875 70.6875 L 16.3125 70.6875 C 7.300781 70.6875 0 77.988281 0 87 C 0 96.011719 7.300781 103.3125 16.3125 103.3125 L 70.6875 103.3125 L 70.6875 157.6875 C 70.6875 166.699219 77.988281 174 87 174 C 96.011719 174 103.3125 166.699219 103.3125 157.6875 L 103.3125 103.3125 L 157.6875 103.3125 C 166.699219 103.3125 174 96.011719 174 87 C 174 77.988281 166.699219 70.6875 157.6875 70.6875 Z M 157.6875 70.6875 " fill-opacity="1" fill-rule="nonzero"/></svg>