<svg xmlns="http://www.w3.org/2000/svg" xmlns:xlink="http://www.w3.org/1999/xlink" width="232" zoomAndPan="magnify" viewBox="0 0 174 173.999997" height="232" preserveAspectRatio="xMidYMid meet" version="1.0"><path fill="#000000" d="M 87 174 C 85.578125 174 84.152344 173.964844 82.730469 173.894531 C 81.308594 173.824219 79.890625 173.71875 78.472656 173.582031 C 77.054688 173.441406 75.644531 173.265625 74.234375 173.058594 C 72.824219 172.847656 71.421875 172.605469 70.027344 172.328125 C 68.628906 172.050781 67.242188 171.738281 65.859375 171.394531 C 64.480469 171.046875 63.109375 170.667969 61.746094 170.253906 C 60.382812 169.839844 59.03125 169.394531 57.691406 168.914062 C 56.351562 168.433594 55.023438 167.921875 53.707031 167.378906 C 52.390625 166.832031 51.089844 166.253906 49.800781 165.648438 C 48.515625 165.039062 47.246094 164.398438 45.988281 163.726562 C 44.734375 163.054688 43.496094 162.355469 42.273438 161.621094 C 41.050781 160.890625 39.847656 160.128906 38.664062 159.335938 C 37.480469 158.546875 36.316406 157.726562 35.175781 156.878906 C 34.03125 156.03125 32.910156 155.15625 31.808594 154.25 C 30.707031 153.347656 29.628906 152.417969 28.574219 151.460938 C 27.519531 150.507812 26.488281 149.523438 25.480469 148.519531 C 24.476562 147.511719 23.492188 146.480469 22.539062 145.425781 C 21.582031 144.371094 20.652344 143.292969 19.75 142.191406 C 18.84375 141.089844 17.96875 139.96875 17.121094 138.824219 C 16.273438 137.683594 15.453125 136.519531 14.664062 135.335938 C 13.871094 134.152344 13.109375 132.949219 12.378906 131.726562 C 11.644531 130.503906 10.945312 129.265625 10.273438 128.011719 C 9.601562 126.753906 8.960938 125.484375 8.351562 124.199219 C 7.746094 122.910156 7.167969 121.609375 6.621094 120.292969 C 6.078125 118.976562 5.566406 117.648438 5.085938 116.308594 C 4.605469 114.96875 4.160156 113.617188 3.746094 112.253906 C 3.332031 110.890625 2.953125 109.519531 2.605469 108.140625 C 2.261719 106.757812 1.949219 105.371094 1.671875 103.972656 C 1.394531 102.578125 1.152344 101.175781 0.941406 99.765625 C 0.734375 98.355469 0.558594 96.945312 0.417969 95.527344 C 0.28125 94.109375 0.175781 92.691406 0.105469 91.269531 C 0.0351562 89.847656 0 88.421875 0 87 C 0 85.578125 0.0351562 84.152344 0.105469 82.730469 C 0.175781 81.308594 0.28125 79.890625 0.417969 78.472656 C 0.558594 77.054688 0.734375 75.644531 0.941406 74.234375 C 1.152344 72.824219 1.394531 71.421875 1.671875 70.027344 C 1.949219 68.628906 2.261719 67.242188 2.605469 65.859375 C 2.953125 64.480469 3.332031 63.109375 3.746094 61.746094 C 4.160156 60.382812 4.605469 59.03125 5.085938 57.691406 C 5.566406 56.351562 6.078125 55.023438 6.621094 53.707031 C 7.167969 52.390625 7.746094 51.089844 8.351562 49.800781 C 8.960938 48.515625 9.601562 47.246094 10.273438 45.988281 C 10.945312 44.734375 11.644531 43.496094 12.378906 42.273438 C 13.109375 41.050781 13.871094 39.847656 14.664062 38.664062 C 15.453125 37.480469 16.273438 36.316406 17.121094 35.175781 C 17.96875 34.03125 18.84375 32.910156 19.75 31.808594 C 20.652344 30.707031 21.582031 29.628906 22.539062 28.574219 C 23.492188 27.519531 24.476562 26.488281 25.480469 25.480469 C 26.488281 24.476562 27.519531 23.492188 28.574219 22.539062 C 29.628906 21.582031 30.707031 20.652344 31.808594 19.75 C 32.910156 18.84375 34.03125 17.96875 35.175781 17.121094 C 36.316406 16.273438 37.480469 15.453125 38.664062 14.664062 C 39.847656 13.871094 41.050781 13.109375 42.273438 12.378906 C 43.496094 11.644531 44.734375 10.945312 45.988281 10.273438 C 47.246094 9.601562 48.515625 8.960938 49.800781 8.351562 C 51.089844 7.746094 52.390625 7.167969 53.707031 6.621094 C 55.023438 6.078125 56.351562 5.566406 57.691406 5.085938 C 59.03125 4.605469 60.382812 4.160156 61.746094 3.746094 C 63.109375 3.332031 64.480469 2.953125 65.859375 2.605469 C 67.242188 2.261719 68.628906 1.949219 70.027344 1.671875 C 71.421875 1.394531 72.824219 1.152344 74.234375 0.941406 C 75.644531 0.734375 77.054688 0.558594 78.472656 0.417969 C 79.890625 0.28125 81.308594 0.175781 82.730469 0.105469 C 84.152344 0.0351562 85.578125 0 87 0 C 88.421875 0 89.847656 0.0351562 91.269531 0.105469 C 92.691406 0.175781 94.109375 0.28125 95.527344 0.417969 C 96.945312 0.558594 98.355469 0.734375 99.765625 0.941406 C 101.175781 1.152344 102.578125 1.394531 103.972656 1.671875 C 105.371094 1.949219 106.757812 2.261719 108.140625 2.605469 C 109.519531 2.953125 110.890625 3.332031 112.253906 3.746094 C 113.617188 4.160156 114.96875 4.605469 116.308594 5.085938 C 117.648438 5.566406 118.976562 6.078125 120.292969 6.621094 C 121.609375 7.167969 122.910156 7.746094 124.199219 8.351562 C 125.484375 8.960938 126.753906 9.601562 128.011719 10.273438 C 129.265625 10.945312 130.503906 11.644531 131.726562 12.378906 C 132.949219 13.109375 134.152344 13.871094 135.335938 14.664062 C 136.519531 15.453125 137.683594 16.273438 138.824219 17.121094 C 139.96875 17.96875 141.089844 18.84375 142.191406 19.75 C 143.292969 20.652344 144.371094 21.582031 145.425781 22.539062 C 146.480469 23.492188 147.511719 24.476562 148.519531 25.480469 C 149.523438 26.488281 150.507812 27.519531 151.460938 28.574219 C 152.417969 29.628906 153.347656 30.707031 154.25 31.808594 C 155.15625 32.910156 156.03125 34.03125 156.878906 35.175781 C 157.726562 36.316406 158.546875 37.480469 159.335938 38.664062 C 160.128906 39.847656 160.890625 41.050781 161.621094 42.273438 C 162.355469 43.496094 163.054688 44.734375 163.726562 45.988281 C 164.398438 47.246094 165.039062 48.515625 165.648438 49.800781 C 166.253906 51.089844 166.832031 52.390625 167.378906 53.707031 C 167.921875 55.023438 168.433594 56.351562 168.914062 57.691406 C 169.394531 59.03125 169.839844 60.382812 170.253906 61.746094 C 170.667969 63.109375 171.046875 64.480469 171.394531 65.859375 C 171.738281 67.242188 172.050781 68.628906 172.328125 70.027344 C 172.605469 71.421875 172.847656 72.824219 173.058594 74.234375 C 173.265625 75.644531 173.441406 77.054688 173.582031 78.472656 C 173.71875 79.890625 173.824219 81.308594 173.894531 82.730469 C 173.964844 84.152344 174 85.578125 174 87 C 174 88.421875 173.964844 89.847656 173.894531 91.269531 C 173.824219 92.691406 173.71875 94.109375 173.582031 95.527344 C 173.441406 96.945312 173.265625 98.355469 173.058594 99.765625 C 172.847656 101.175781 172.605469 102.578125 172.328125 103.972656 C 172.050781 105.371094 171.738281 106.757812 171.394531 108.140625 C 171.046875 109.519531 170.667969 110.890625 170.253906 112.253906 C 169.839844 113.617188 169.394531 114.96875 168.914062 116.308594 C 168.433594 117.648438 167.921875 118.976562 167.378906 120.292969 C 166.832031 121.609375 166.253906 122.910156 165.648438 124.199219 C 165.039062 125.484375 164.398438 126.753906 163.726562 128.011719 C 163.054688 129.265625 162.355469 130.503906 161.621094 131.726562 C 160.890625 132.949219 160.128906 134.152344 159.335938 135.335938 C 158.546875 136.519531 157.726562 137.683594 156.878906 138.824219 C 156.03125 139.96875 155.15625 141.089844 154.25 142.191406 C 153.347656 143.292969 152.417969 144.371094 151.460938 145.425781 C 150.507812 146.480469 149.523438 147.511719 148.519531 148.519531 C 147.511719 149.523438 146.480469 150.507812 145.425781 151.460938 C 144.371094 152.417969 143.292969 153.347656 142.191406 154.25 C 141.089844 155.15625 139.96875 156.03125 138.824219 156.878906 C 137.683594 157.726562 136.519531 158.546875 135.335938 159.335938 C 134.152344 160.128906 132.949219 160.890625 131.726562 161.621094 C 130.503906 162.355469 129.265625 163.054688 128.011719 163.726562 C 126.753906 164.398438 125.484375 165.039062 124.199219 165.648438 C 122.910156 166.253906 121.609375 166.832031 120.292969 167.378906 C 118.976562 167.921875 117.648438 168.433594 116.308594 168.914062 C 114.96875 169.394531 113.617188 169.839844 112.253906 170.253906 C 110.890625 170.667969 109.519531 171.046875 108.140625 171.394531 C 106.757812 171.738281 105.371094 172.050781 103.972656 172.328125 C 102.578125 172.605469 101.175781 172.847656 99.765625 173.058594 C 98.355469 173.265625 96.945312 173.441406 95.527344 173.582031 C 94.109375 173.71875 92.691406 173.824219 91.269531 173.894531 C 89.847656 173.964844 88.421875 174 87 174 Z M 87 10.875 C 85.753906 10.875 84.507812 10.90625 83.265625 10.964844 C 82.019531 11.027344 80.777344 11.121094 79.539062 11.242188 C 78.296875 11.363281 77.0625 11.515625 75.832031 11.699219 C 74.597656 11.882812 73.371094 12.09375 72.148438 12.335938 C 70.925781 12.582031 69.710938 12.855469 68.503906 13.15625 C 67.292969 13.460938 66.09375 13.792969 64.902344 14.152344 C 63.710938 14.515625 62.527344 14.90625 61.355469 15.324219 C 60.179688 15.746094 59.019531 16.191406 57.867188 16.667969 C 56.71875 17.144531 55.578125 17.652344 54.453125 18.183594 C 53.324219 18.714844 52.214844 19.277344 51.113281 19.863281 C 50.015625 20.449219 48.933594 21.066406 47.863281 21.707031 C 46.796875 22.347656 45.742188 23.011719 44.707031 23.703125 C 43.671875 24.398438 42.652344 25.113281 41.652344 25.855469 C 40.652344 26.597656 39.667969 27.363281 38.707031 28.15625 C 37.742188 28.945312 36.800781 29.757812 35.878906 30.59375 C 34.953125 31.433594 34.050781 32.289062 33.171875 33.171875 C 32.289062 34.050781 31.433594 34.953125 30.59375 35.878906 C 29.757812 36.800781 28.945312 37.742188 28.15625 38.707031 C 27.363281 39.667969 26.597656 40.652344 25.855469 41.652344 C 25.113281 42.652344 24.398438 43.671875 23.703125 44.707031 C 23.011719 45.742188 22.347656 46.796875 21.707031 47.863281 C 21.066406 48.933594 20.449219 50.015625 19.863281 51.113281 C 19.277344 52.214844 18.714844 53.324219 18.183594 54.453125 C 17.652344 55.578125 17.144531 56.71875 16.667969 57.867188 C 16.191406 59.019531 15.746094 60.179688 15.324219 61.355469 C 14.90625 62.527344 14.515625 63.710938 14.152344 64.902344 C 13.792969 66.09375 13.460938 67.292969 13.15625 68.503906 C 12.855469 69.710938 12.582031 70.925781 12.335938 72.148438 C 12.09375 73.371094 11.882812 74.597656 11.699219 75.832031 C 11.515625 77.0625 11.363281 78.296875 11.242188 79.539062 C 11.121094 80.777344 11.027344 82.019531 10.964844 83.265625 C 10.90625 84.507812 10.875 85.753906 10.875 87 C 10.875 88.246094 10.90625 89.492188 10.964844 90.734375 C 11.027344 91.980469 11.121094 93.222656 11.242188 94.460938 C 11.363281 95.703125 11.515625 96.9375 11.699219 98.167969 C 11.882812 99.402344 12.09375 100.628906 12.335938 101.851562 C 12.582031 103.074219 12.855469 104.289062 13.15625 105.496094 C 13.460938 106.707031 13.792969 107.90625 14.152344 109.097656 C 14.515625 110.289062 14.90625 111.472656 15.324219 112.644531 C 15.746094 113.820312 16.191406 114.980469 16.667969 116.132812 C 17.144531 117.28125 17.652344 118.421875 18.183594 119.546875 C 18.714844 120.675781 19.277344 121.785156 19.863281 122.886719 C 20.449219 123.984375 21.066406 125.066406 21.707031 126.136719 C 22.347656 127.203125 23.011719 128.257812 23.703125 129.292969 C 24.398438 130.328125 25.113281 131.347656 25.855469 132.347656 C 26.597656 133.347656 27.363281 134.332031 28.15625 135.292969 C 28.945312 136.257812 29.757812 137.199219 30.59375 138.121094 C 31.433594 139.046875 32.289062 139.949219 33.171875 140.828125 C 34.050781 141.710938 34.953125 142.566406 35.878906 143.40625 C 36.800781 144.242188 37.742188 145.054688 38.707031 145.84375 C 39.667969 146.636719 40.652344 147.402344 41.652344 148.144531 C 42.652344 148.886719 43.671875 149.601562 44.707031 150.296875 C 45.742188 150.988281 46.796875 151.652344 47.863281 152.292969 C 48.933594 152.933594 50.015625 153.550781 51.113281 154.136719 C 52.214844 154.722656 53.324219 155.285156 54.453125 155.816406 C 55.578125 156.347656 56.71875 156.855469 57.867188 157.332031 C 59.019531 157.808594 60.179688 158.253906 61.355469 158.675781 C 62.527344 159.09375 63.710938 159.484375 64.902344 159.847656 C 66.09375 160.207031 67.292969 160.539062 68.503906 160.84375 C 69.710938 161.144531 70.925781 161.417969 72.148438 161.664062 C 73.371094 161.90625 74.597656 162.117188 75.832031 162.300781 C 77.0625 162.484375 78.296875 162.636719 79.539062 162.757812 C 80.777344 162.878906 82.019531 162.972656 83.265625 163.035156 C 84.507812 163.09375 85.753906 163.125 87 163.125 C 88.246094 163.125 89.492188 163.09375 90.734375 163.035156 C 91.980469 162.972656 93.222656 162.878906 94.460938 162.757812 C 95.703125 162.636719 96.9375 162.484375 98.167969 162.300781 C 99.402344 162.117188 100.628906 161.90625 101.851562 161.664062 C 103.074219 161.417969 104.289062 161.144531 105.496094 160.84375 C 106.707031 160.539062 107.90625 160.207031 109.097656 159.847656 C 110.289062 159.484375 111.472656 159.09375 112.644531 158.675781 C 113.820312 158.253906 114.980469 157.808594 116.132812 157.332031 C 117.28125 156.855469 118.421875 156.347656 119.546875 155.816406 C 120.675781 155.285156 121.785156 154.722656 122.886719 154.136719 C 123.984375 153.550781 125.066406 152.933594 126.136719 152.292969 C 127.203125 151.652344 128.257812 150.988281 129.292969 150.296875 C 130.328125 149.601562 131.347656 148.886719 132.347656 148.144531 C 133.347656 147.402344 134.332031 146.636719 135.292969 145.84375 C 136.257812 145.054688 137.199219 144.242188 138.121094 143.40625 C 139.046875 142.566406 139.949219 141.710938 140.828125 140.828125 C 141.710938 139.949219 142.566406 139.046875 143.40625 138.121094 C 144.242188 137.199219 145.054688 136.257812 145.84375 135.292969 C 146.636719 134.332031 147.402344 133.347656 148.144531 132.347656 C 148.886719 131.347656 149.601562 130.328125 150.296875 129.292969 C 150.988281 128.257812 151.652344 127.203125 152.292969 126.136719 C 152.933594 125.066406 153.550781 123.984375 154.136719 122.886719 C 154.722656 121.785156 155.285156 120.675781 155.816406 119.546875 C 156.347656 118.421875 156.855469 117.28125 157.332031 116.132812 C 157.808594 114.980469 158.253906 113.820312 158.675781 112.644531 C 159.09375 111.472656 159.484375 110.289062 159.847656 109.097656 C 160.207031 107.90625 160.539062 106.707031 160.84375 105.496094 C 161.144531 104.289062 161.417969 103.074219 161.664062 101.851562 C 161.90625 100.628906 162.117188 99.402344 162.300781 98.167969 C 162.484375 96.9375 162.636719 95.703125 162.757812 94.460938 C 162.878906 93.222656 162.972656 91.980469 163.035156 90.734375 C 163.09375 89.492188 163.125 88.246094 163.125 87 C 163.125 85.753906 163.09375 84.507812 163.035156 83.265625 C 162.972656 82.019531 162.878906 80.777344 162.757812 79.539062 C 162.636719 78.296875 162.484375 77.0625 162.300781 75.832031 C 162.117188 74.597656 161.90625 73.371094 161.664062 72.148438 C 161.417969 70.925781 161.144531 69.710938 160.84375 68.503906 C 160.539062 67.292969 160.207031 66.09375 159.847656 64.902344 C 159.484375 63.710938 159.09375 62.527344 158.675781 61.355469 C 158.253906 60.179688 157.808594 59.019531 157.332031 57.867188 C 156.855469 56.71875 156.347656 55.578125 155.816406 54.453125 C 155.285156 53.324219 154.722656 52.214844 154.136719 51.113281 C 153.550781 50.015625 152.933594 48.933594 152.292969 47.863281 C 151.652344 46.796875 150.988281 45.742188 150.296875 44.707031 C 149.601562 43.671875 148.886719 42.652344 148.144531 41.652344 C 147.402344 40.652344 146.636719 39.667969 145.84375 38.707031 C 145.054688 37.742188 144.242188 36.800781 143.40625 35.878906 C 142.566406 34.953125 141.710938 34.050781 140.828125 33.171875 C 139.949219 32.289062 139.046875 31.433594 138.121094 30.59375 C 137.199219 29.757812 136.257812 28.945312 135.292969 28.15625 C 134.332031 27.363281 133.347656 26.597656 132.347656 25.855469 C 131.347656 25.113281 130.328125 24.398438 129.292969 23.703125 C 128.257812 23.011719 127.203125 22.347656 126.136719 21.707031 C 125.066406 21.066406 123.984375 20.449219 122.886719 19.863281 C 121.785156 19.277344 120.675781 18.714844 119.546875 18.183594 C 118.421875 17.652344 117.28125 17.144531 116.132812 16.667969 C 114.980469 16.191406 113.820312 15.746094 112.644531 15.324219 C 111.472656 14.90625 110.289062 14.515625 109.097656 14.152344 C 107.90625 13.792969 106.707031 13.460938 105.496094 13.15625 C 104.289062 12.855469 103.074219 12.582031 101.851562 12.335938 C 100.628906 12.09375 99.402344 11.882812 98.167969 11.699219 C 96.9375 11.515625 95.703125 11.363281 94.460938 11.242188 C 93.222656 11.121094 91.980469 11.027344 90.734375 10.964844 C 89.492188 10.90625 88.246094 10.875 87 10.875 Z M 87 10.875 " fill-opacity="1" fill-rule="nonzero"/><path fill="#000000" d="M 43.5 76.125 C 42.632812 76.136719 41.816406 75.9375 41.054688 75.527344 C 40.734375 75.367188 40.4375 75.175781 40.15625 74.953125 C 39.878906 74.734375 39.621094 74.488281 39.390625 74.21875 C 39.160156 73.949219 38.957031 73.660156 38.78125 73.347656 C 38.605469 73.039062 38.464844 72.714844 38.355469 72.378906 C 38.242188 72.039062 38.164062 71.695312 38.121094 71.339844 C 38.078125 70.988281 38.070312 70.632812 38.097656 70.277344 C 38.125 69.921875 38.183594 69.574219 38.277344 69.230469 C 38.375 68.890625 38.5 68.558594 38.660156 68.242188 C 38.855469 67.855469 39.0625 67.472656 39.285156 67.101562 C 39.503906 66.726562 39.734375 66.363281 39.976562 66.003906 C 40.21875 65.644531 40.472656 65.292969 40.738281 64.953125 C 41.003906 64.609375 41.28125 64.277344 41.566406 63.949219 C 41.851562 63.625 42.148438 63.308594 42.457031 63.003906 C 42.761719 62.699219 43.078125 62.402344 43.402344 62.117188 C 43.726562 61.832031 44.0625 61.554688 44.402344 61.289062 C 44.746094 61.023438 45.097656 60.769531 45.457031 60.527344 C 45.816406 60.285156 46.179688 60.054688 46.554688 59.835938 C 46.929688 59.617188 47.308594 59.410156 47.695312 59.214844 C 48.082031 59.019531 48.472656 58.835938 48.871094 58.667969 C 49.269531 58.496094 49.675781 58.339844 50.082031 58.195312 C 50.492188 58.050781 50.902344 57.917969 51.320312 57.800781 C 51.734375 57.683594 52.15625 57.578125 52.578125 57.484375 C 53.003906 57.394531 53.429688 57.316406 53.855469 57.25 C 54.285156 57.1875 54.714844 57.136719 55.144531 57.097656 C 55.578125 57.0625 56.011719 57.039062 56.441406 57.027344 C 56.875 57.019531 57.308594 57.023438 57.742188 57.039062 C 58.175781 57.058594 58.605469 57.089844 59.035156 57.132812 C 59.46875 57.179688 59.894531 57.238281 60.324219 57.3125 C 60.75 57.382812 61.175781 57.46875 61.597656 57.570312 C 62.015625 57.667969 62.433594 57.78125 62.847656 57.90625 C 63.265625 58.03125 63.675781 58.171875 64.078125 58.324219 C 64.484375 58.476562 64.886719 58.640625 65.28125 58.816406 C 65.675781 58.996094 66.0625 59.183594 66.449219 59.386719 C 66.832031 59.589844 67.207031 59.804688 67.574219 60.027344 C 67.945312 60.253906 68.308594 60.492188 68.660156 60.742188 C 69.015625 60.992188 69.363281 61.25 69.699219 61.523438 C 70.039062 61.792969 70.367188 62.074219 70.6875 62.367188 C 71.007812 62.65625 71.316406 62.960938 71.617188 63.269531 C 71.917969 63.582031 72.207031 63.902344 72.488281 64.234375 C 72.769531 64.5625 73.039062 64.902344 73.296875 65.25 L 75.039062 67.535156 C 75.25 67.820312 75.4375 68.125 75.589844 68.445312 C 75.746094 68.765625 75.867188 69.101562 75.953125 69.445312 C 76.042969 69.792969 76.097656 70.144531 76.117188 70.5 C 76.136719 70.855469 76.121094 71.210938 76.070312 71.566406 C 76.019531 71.917969 75.933594 72.265625 75.816406 72.601562 C 75.699219 72.9375 75.546875 73.257812 75.367188 73.566406 C 75.183594 73.875 74.972656 74.160156 74.734375 74.425781 C 74.496094 74.691406 74.234375 74.933594 73.949219 75.144531 C 73.664062 75.359375 73.359375 75.542969 73.039062 75.699219 C 72.714844 75.855469 72.382812 75.976562 72.035156 76.0625 C 71.691406 76.152344 71.339844 76.207031 70.984375 76.226562 C 70.625 76.246094 70.273438 76.230469 69.917969 76.179688 C 69.566406 76.128906 69.21875 76.042969 68.882812 75.925781 C 68.546875 75.808594 68.222656 75.65625 67.917969 75.476562 C 67.609375 75.292969 67.324219 75.082031 67.058594 74.84375 C 66.792969 74.605469 66.550781 74.34375 66.335938 74.058594 L 64.597656 71.773438 C 64.117188 71.109375 63.554688 70.519531 62.917969 70.003906 C 62.28125 69.488281 61.585938 69.0625 60.839844 68.730469 C 60.089844 68.394531 59.308594 68.164062 58.5 68.035156 C 57.691406 67.90625 56.875 67.882812 56.0625 67.96875 C 55.234375 68.042969 54.433594 68.226562 53.65625 68.511719 C 52.878906 68.796875 52.152344 69.179688 51.472656 69.65625 C 50.796875 70.132812 50.191406 70.6875 49.660156 71.324219 C 49.128906 71.960938 48.6875 72.65625 48.339844 73.40625 C 48.09375 73.828125 47.800781 74.210938 47.453125 74.554688 C 47.105469 74.898438 46.71875 75.191406 46.292969 75.429688 C 45.867188 75.667969 45.417969 75.847656 44.941406 75.964844 C 44.46875 76.082031 43.988281 76.136719 43.5 76.125 Z M 43.5 76.125 " fill-opacity="1" fill-rule="nonzero"/><path fill="#000000" d="M 130.5 76.125 C 129.996094 76.125 129.503906 76.054688 129.023438 75.914062 C 128.539062 75.777344 128.085938 75.578125 127.65625 75.3125 C 127.230469 75.050781 126.847656 74.730469 126.507812 74.363281 C 126.167969 73.992188 125.886719 73.582031 125.660156 73.132812 C 125.3125 72.382812 124.871094 71.6875 124.339844 71.054688 C 123.808594 70.417969 123.203125 69.859375 122.527344 69.382812 C 121.847656 68.90625 121.121094 68.523438 120.34375 68.238281 C 119.566406 67.953125 118.765625 67.773438 117.9375 67.695312 C 117.125 67.613281 116.308594 67.632812 115.5 67.761719 C 114.691406 67.890625 113.910156 68.121094 113.160156 68.457031 C 112.414062 68.792969 111.71875 69.214844 111.082031 69.734375 C 110.445312 70.25 109.882812 70.839844 109.402344 71.503906 L 107.664062 73.785156 C 107.449219 74.074219 107.207031 74.335938 106.941406 74.574219 C 106.675781 74.8125 106.390625 75.019531 106.082031 75.203125 C 105.777344 75.386719 105.453125 75.535156 105.117188 75.652344 C 104.78125 75.773438 104.433594 75.855469 104.082031 75.90625 C 103.726562 75.957031 103.375 75.972656 103.015625 75.953125 C 102.660156 75.933594 102.308594 75.878906 101.964844 75.792969 C 101.617188 75.703125 101.285156 75.582031 100.960938 75.425781 C 100.640625 75.273438 100.335938 75.089844 100.050781 74.875 C 99.765625 74.660156 99.503906 74.421875 99.265625 74.152344 C 99.027344 73.886719 98.816406 73.601562 98.632812 73.292969 C 98.453125 72.988281 98.300781 72.664062 98.183594 72.328125 C 98.066406 71.992188 97.980469 71.648438 97.929688 71.292969 C 97.878906 70.941406 97.863281 70.585938 97.882812 70.226562 C 97.902344 69.871094 97.957031 69.519531 98.046875 69.175781 C 98.132812 68.828125 98.253906 68.496094 98.410156 68.171875 C 98.5625 67.851562 98.75 67.546875 98.960938 67.261719 L 100.703125 64.976562 C 100.960938 64.632812 101.234375 64.292969 101.515625 63.964844 C 101.796875 63.632812 102.085938 63.3125 102.390625 63.003906 C 102.691406 62.691406 103 62.390625 103.324219 62.101562 C 103.644531 61.808594 103.972656 61.527344 104.3125 61.257812 C 104.652344 60.988281 104.996094 60.730469 105.351562 60.480469 C 105.707031 60.230469 106.070312 59.996094 106.441406 59.769531 C 106.8125 59.546875 107.1875 59.332031 107.570312 59.132812 C 107.957031 58.929688 108.34375 58.742188 108.742188 58.566406 C 109.136719 58.390625 109.539062 58.226562 109.945312 58.074219 C 110.351562 57.921875 110.761719 57.785156 111.175781 57.660156 C 111.589844 57.535156 112.007812 57.425781 112.429688 57.328125 C 112.851562 57.226562 113.277344 57.144531 113.703125 57.074219 C 114.132812 57 114.5625 56.945312 114.992188 56.898438 C 115.421875 56.855469 115.855469 56.824219 116.289062 56.808594 C 116.722656 56.792969 117.15625 56.789062 117.585938 56.800781 C 118.019531 56.8125 118.453125 56.835938 118.882812 56.875 C 119.316406 56.914062 119.746094 56.96875 120.175781 57.03125 C 120.601562 57.097656 121.027344 57.179688 121.453125 57.273438 C 121.875 57.363281 122.292969 57.472656 122.710938 57.589844 C 123.128906 57.710938 123.539062 57.84375 123.945312 57.988281 C 124.355469 58.136719 124.757812 58.292969 125.15625 58.464844 C 125.554688 58.636719 125.945312 58.820312 126.332031 59.015625 C 126.71875 59.214844 127.097656 59.421875 127.46875 59.644531 C 127.84375 59.863281 128.210938 60.09375 128.566406 60.339844 C 128.925781 60.582031 129.277344 60.835938 129.617188 61.105469 C 129.960938 61.371094 130.292969 61.648438 130.617188 61.933594 C 130.941406 62.222656 131.257812 62.519531 131.5625 62.824219 C 131.867188 63.132812 132.164062 63.449219 132.449219 63.777344 C 132.734375 64.101562 133.007812 64.4375 133.273438 64.78125 C 133.535156 65.125 133.789062 65.476562 134.03125 65.835938 C 134.273438 66.195312 134.503906 66.5625 134.71875 66.933594 C 134.9375 67.308594 135.144531 67.691406 135.339844 68.078125 C 135.5 68.394531 135.625 68.726562 135.722656 69.070312 C 135.816406 69.410156 135.875 69.761719 135.902344 70.117188 C 135.929688 70.46875 135.921875 70.824219 135.878906 71.175781 C 135.835938 71.53125 135.757812 71.875 135.644531 72.214844 C 135.535156 72.550781 135.394531 72.875 135.21875 73.1875 C 135.042969 73.496094 134.839844 73.785156 134.609375 74.054688 C 134.378906 74.328125 134.121094 74.570312 133.84375 74.792969 C 133.5625 75.011719 133.265625 75.203125 132.945312 75.363281 C 132.199219 75.832031 131.382812 76.085938 130.5 76.125 Z M 130.5 76.125 " fill-opacity="1" fill-rule="nonzero"/><path fill="#000000" d="M 87 130.171875 C 85.378906 130.1875 83.761719 130.089844 82.152344 129.886719 C 80.542969 129.679688 78.953125 129.367188 77.386719 128.945312 C 75.820312 128.527344 74.289062 128.003906 72.792969 127.378906 C 71.296875 126.75 69.847656 126.027344 68.449219 125.203125 C 67.050781 124.382812 65.714844 123.46875 64.4375 122.46875 C 63.160156 121.464844 61.960938 120.378906 60.832031 119.214844 C 59.699219 118.050781 58.65625 116.816406 57.691406 115.507812 C 56.730469 114.203125 55.859375 112.839844 55.082031 111.414062 C 54.902344 111.105469 54.757812 110.777344 54.640625 110.4375 C 54.527344 110.101562 54.449219 109.753906 54.402344 109.398438 C 54.355469 109.042969 54.34375 108.683594 54.367188 108.328125 C 54.394531 107.96875 54.453125 107.617188 54.546875 107.273438 C 54.636719 106.925781 54.765625 106.59375 54.921875 106.273438 C 55.082031 105.953125 55.273438 105.648438 55.492188 105.367188 C 55.710938 105.082031 55.953125 104.820312 56.222656 104.585938 C 56.492188 104.351562 56.78125 104.144531 57.09375 103.964844 C 57.40625 103.785156 57.730469 103.640625 58.070312 103.527344 C 58.410156 103.410156 58.753906 103.332031 59.109375 103.285156 C 59.464844 103.238281 59.824219 103.226562 60.179688 103.25 C 60.539062 103.277344 60.890625 103.335938 61.234375 103.429688 C 61.582031 103.523438 61.914062 103.648438 62.234375 103.808594 C 62.554688 103.964844 62.859375 104.15625 63.144531 104.375 C 63.425781 104.59375 63.6875 104.835938 63.921875 105.105469 C 64.15625 105.375 64.363281 105.667969 64.542969 105.976562 C 65.09375 106.976562 65.710938 107.933594 66.390625 108.847656 C 67.070312 109.765625 67.808594 110.632812 68.605469 111.449219 C 69.402344 112.269531 70.246094 113.027344 71.144531 113.734375 C 72.042969 114.4375 72.984375 115.082031 73.964844 115.660156 C 74.949219 116.238281 75.964844 116.75 77.015625 117.195312 C 78.066406 117.640625 79.144531 118.011719 80.246094 118.3125 C 81.34375 118.613281 82.460938 118.839844 83.59375 118.988281 C 84.722656 119.140625 85.859375 119.21875 87 119.21875 C 88.140625 119.21875 89.277344 119.140625 90.40625 118.988281 C 91.539062 118.839844 92.65625 118.613281 93.753906 118.3125 C 94.855469 118.011719 95.933594 117.640625 96.984375 117.195312 C 98.035156 116.75 99.050781 116.238281 100.035156 115.660156 C 101.019531 115.082031 101.957031 114.4375 102.855469 113.734375 C 103.753906 113.027344 104.597656 112.269531 105.394531 111.449219 C 106.191406 110.632812 106.929688 109.765625 107.609375 108.847656 C 108.289062 107.933594 108.90625 106.976562 109.457031 105.976562 C 109.636719 105.667969 109.84375 105.375 110.078125 105.105469 C 110.3125 104.835938 110.574219 104.59375 110.855469 104.375 C 111.140625 104.15625 111.445312 103.964844 111.765625 103.808594 C 112.085938 103.648438 112.417969 103.523438 112.765625 103.429688 C 113.109375 103.335938 113.460938 103.277344 113.820312 103.25 C 114.175781 103.226562 114.535156 103.238281 114.890625 103.285156 C 115.246094 103.332031 115.589844 103.410156 115.929688 103.527344 C 116.269531 103.640625 116.59375 103.785156 116.90625 103.964844 C 117.21875 104.144531 117.507812 104.351562 117.777344 104.585938 C 118.046875 104.820312 118.289062 105.082031 118.507812 105.367188 C 118.726562 105.648438 118.917969 105.953125 119.078125 106.273438 C 119.234375 106.59375 119.363281 106.925781 119.453125 107.273438 C 119.546875 107.617188 119.605469 107.96875 119.632812 108.328125 C 119.65625 108.683594 119.644531 109.042969 119.597656 109.398438 C 119.550781 109.753906 119.472656 110.101562 119.359375 110.4375 C 119.242188 110.777344 119.097656 111.105469 118.917969 111.414062 C 118.140625 112.839844 117.269531 114.203125 116.308594 115.507812 C 115.34375 116.816406 114.300781 118.050781 113.167969 119.214844 C 112.039062 120.378906 110.839844 121.464844 109.5625 122.46875 C 108.285156 123.46875 106.949219 124.382812 105.550781 125.203125 C 104.152344 126.027344 102.703125 126.75 101.207031 127.378906 C 99.710938 128.003906 98.179688 128.527344 96.613281 128.945312 C 95.046875 129.367188 93.457031 129.679688 91.847656 129.886719 C 90.238281 130.089844 88.621094 130.1875 87 130.171875 Z M 87 130.171875 " fill-opacity="1" fill-rule="nonzero"/></svg>