<svg xmlns="http://www.w3.org/2000/svg" xmlns:xlink="http://www.w3.org/1999/xlink" width="290" zoomAndPan="magnify" viewBox="0 0 217.92 181.92" height="232" preserveAspectRatio="xMidYMid meet" version="1.0"><defs><clipPath id="8efbaa8009"><path d="M 50.0625 92 L 102 92 L 102 173.921875 L 50.0625 173.921875 Z M 50.0625 92 " clip-rule="nonzero"/></clipPath><clipPath id="28007ac206"><path d="M 115 92 L 167.011719 92 L 167.011719 173.921875 L 115 173.921875 Z M 115 92 " clip-rule="nonzero"/></clipPath></defs><g clip-path="url(#8efbaa8009)"><path fill="#00ff0a" d="M 98.707031 99.972656 C 98.292969 99.972656 97.675781 100.070312 97.078125 100.53125 L 93.566406 103.226562 C 92.453125 104.078125 91.132812 104.527344 89.742188 104.527344 C 86.585938 104.527344 83.894531 102.171875 83.480469 99.046875 L 82.902344 94.65625 C 82.726562 93.328125 81.585938 92.324219 80.25 92.324219 C 80.019531 92.324219 79.785156 92.355469 79.546875 92.417969 L 76.710938 93.179688 L 50.085938 152.261719 L 72.0625 137.378906 L 83.941406 173.929688 L 101.75 102.554688 L 101.035156 101.316406 C 100.550781 100.476562 99.679688 99.972656 98.707031 99.972656 " fill-opacity="1" fill-rule="nonzero"/></g><path fill="#00ff0a" d="M 112.371094 92.976562 C 111.164062 93.082031 109.941406 93.136719 108.707031 93.136719 C 107.472656 93.136719 106.253906 93.082031 105.042969 92.976562 C 96.003906 92.167969 87.816406 88.410156 81.449219 82.667969 C 73.179688 75.210938 67.980469 64.417969 67.980469 52.40625 C 67.980469 29.914062 86.214844 11.675781 108.707031 11.675781 C 131.203125 11.675781 149.4375 29.914062 149.4375 52.40625 C 149.4375 64.417969 144.238281 75.210938 135.96875 82.667969 C 129.601562 88.410156 121.410156 92.167969 112.371094 92.976562 Z M 122.464844 97.761719 L 125.972656 100.453125 C 126.496094 100.859375 127.089844 101.039062 127.675781 101.039062 C 129.007812 101.039062 130.28125 100.082031 130.476562 98.589844 L 131.054688 94.203125 C 131.46875 91.0625 134.15625 88.835938 137.167969 88.835938 C 137.691406 88.835938 138.230469 88.902344 138.769531 89.046875 L 138.855469 89.070312 L 143.042969 90.191406 C 143.292969 90.257812 143.542969 90.289062 143.785156 90.289062 C 145.5625 90.289062 146.988281 88.585938 146.492188 86.742188 L 145.347656 82.472656 C 144.382812 78.867188 146.808594 75.238281 150.507812 74.753906 L 154.890625 74.175781 C 157.039062 73.890625 158.074219 71.390625 156.757812 69.667969 L 154.066406 66.164062 C 151.792969 63.199219 152.644531 58.921875 155.875 57.058594 L 159.703125 54.847656 C 161.582031 53.761719 161.582031 51.054688 159.703125 49.96875 L 155.875 47.757812 C 152.644531 45.894531 151.792969 41.613281 154.066406 38.652344 L 156.757812 35.144531 C 158.074219 33.425781 157.039062 30.925781 154.890625 30.640625 L 150.507812 30.0625 C 146.808594 29.578125 144.382812 25.949219 145.347656 22.34375 L 146.492188 18.074219 C 146.988281 16.230469 145.5625 14.523438 143.785156 14.523438 C 143.542969 14.523438 143.292969 14.558594 143.042969 14.625 L 138.769531 15.769531 C 138.230469 15.914062 137.695312 15.980469 137.167969 15.980469 C 134.15625 15.980469 131.46875 13.753906 131.054688 10.613281 L 130.476562 6.226562 C 130.28125 4.730469 129.011719 3.777344 127.675781 3.777344 C 127.089844 3.777344 126.496094 3.957031 125.972656 4.359375 L 122.464844 7.054688 C 121.332031 7.917969 120.015625 8.332031 118.710938 8.332031 C 116.589844 8.332031 114.511719 7.242188 113.359375 5.242188 L 111.148438 1.410156 C 110.605469 0.472656 109.65625 0.00390625 108.707031 0.00390625 C 107.761719 0.00390625 106.8125 0.472656 106.269531 1.410156 L 104.058594 5.242188 C 102.90625 7.242188 100.824219 8.332031 98.707031 8.332031 C 97.402344 8.332031 96.082031 7.917969 94.953125 7.054688 L 91.445312 4.359375 C 90.921875 3.957031 90.324219 3.777344 89.742188 3.777344 C 88.40625 3.777344 87.136719 4.730469 86.9375 6.226562 L 86.363281 10.613281 C 85.949219 13.753906 83.261719 15.980469 80.25 15.980469 C 79.722656 15.980469 79.183594 15.914062 78.644531 15.769531 L 74.371094 14.625 C 74.125 14.558594 73.875 14.523438 73.632812 14.523438 C 71.855469 14.523438 70.429688 16.230469 70.921875 18.074219 L 72.070312 22.34375 C 73.035156 25.949219 70.609375 29.578125 66.910156 30.0625 L 62.527344 30.640625 C 60.378906 30.925781 59.34375 33.425781 60.660156 35.144531 L 63.351562 38.652344 C 65.621094 41.613281 64.773438 45.894531 61.542969 47.757812 L 57.714844 49.96875 C 55.835938 51.054688 55.835938 53.761719 57.714844 54.847656 L 61.542969 57.058594 C 64.773438 58.921875 65.621094 63.199219 63.351562 66.164062 L 60.660156 69.667969 C 59.34375 71.390625 60.378906 73.890625 62.527344 74.175781 L 66.910156 74.753906 C 70.609375 75.238281 73.035156 78.867188 72.070312 82.472656 L 70.921875 86.742188 C 70.429688 88.585938 71.855469 90.289062 73.632812 90.289062 C 73.875 90.289062 74.125 90.257812 74.371094 90.191406 L 78.5625 89.070312 L 78.644531 89.046875 C 79.183594 88.902344 79.722656 88.835938 80.25 88.835938 C 83.261719 88.835938 85.949219 91.0625 86.363281 94.203125 L 86.9375 98.589844 C 87.136719 100.082031 88.410156 101.039062 89.742188 101.039062 C 90.324219 101.039062 90.921875 100.859375 91.445312 100.453125 L 94.953125 97.761719 C 96.082031 96.898438 97.402344 96.484375 98.707031 96.484375 C 100.363281 96.484375 101.996094 97.152344 103.179688 98.394531 C 103.507812 98.742188 103.804688 99.136719 104.058594 99.570312 L 106.269531 103.402344 C 106.8125 104.339844 107.761719 104.8125 108.707031 104.8125 C 109.65625 104.8125 110.605469 104.339844 111.148438 103.402344 L 113.359375 99.570312 C 113.613281 99.136719 113.90625 98.742188 114.238281 98.394531 C 115.421875 97.152344 117.054688 96.484375 118.710938 96.484375 C 120.015625 96.484375 121.332031 96.898438 122.464844 97.761719 " fill-opacity="1" fill-rule="nonzero"/><path fill="#00ff0a" d="M 108.707031 86.019531 C 90.175781 86.019531 75.097656 70.9375 75.097656 52.40625 C 75.097656 33.875 90.175781 18.796875 108.707031 18.796875 C 127.242188 18.796875 142.320312 33.875 142.320312 52.40625 C 142.320312 70.9375 127.242188 86.019531 108.707031 86.019531 Z M 108.707031 15.304688 C 88.25 15.304688 71.609375 31.949219 71.609375 52.40625 C 71.609375 72.863281 88.25 89.507812 108.707031 89.507812 C 129.164062 89.507812 145.808594 72.863281 145.808594 52.40625 C 145.808594 31.949219 129.164062 15.304688 108.707031 15.304688 " fill-opacity="1" fill-rule="nonzero"/><path fill="#00ff0a" d="M 121.304688 56.503906 C 121.035156 56.761719 120.921875 57.148438 120.976562 57.511719 L 123.355469 71.382812 C 123.515625 72.324219 122.542969 73.039062 121.691406 72.597656 L 109.234375 66.046875 C 108.90625 65.863281 108.511719 65.863281 108.171875 66.046875 L 95.714844 72.597656 C 94.875 73.039062 93.902344 72.324219 94.0625 71.382812 L 96.441406 57.511719 C 96.496094 57.148438 96.371094 56.761719 96.113281 56.503906 L 86.035156 46.675781 C 85.355469 46.019531 85.730469 44.863281 86.671875 44.726562 L 100.589844 42.710938 C 100.960938 42.652344 101.292969 42.414062 101.449219 42.074219 L 107.683594 29.460938 C 108.101562 28.609375 109.316406 28.609375 109.734375 29.460938 L 115.96875 42.074219 C 116.125 42.414062 116.457031 42.652344 116.828125 42.710938 L 130.746094 44.726562 C 131.6875 44.863281 132.0625 46.019531 131.382812 46.675781 L 121.304688 56.503906 " fill-opacity="1" fill-rule="nonzero"/><g clip-path="url(#28007ac206)"><path fill="#00ff0a" d="M 140.707031 93.179688 L 137.871094 92.417969 C 137.632812 92.355469 137.398438 92.324219 137.167969 92.324219 C 135.828125 92.324219 134.6875 93.328125 134.515625 94.65625 L 133.9375 99.046875 C 133.519531 102.171875 130.828125 104.527344 127.675781 104.527344 C 126.285156 104.527344 124.964844 104.078125 123.847656 103.226562 L 120.335938 100.53125 C 119.738281 100.070312 119.121094 99.972656 118.710938 99.972656 C 117.738281 99.972656 116.863281 100.476562 116.382812 101.316406 L 115.667969 102.554688 L 133.476562 173.929688 L 145.355469 137.378906 L 167.332031 152.261719 L 140.707031 93.179688 " fill-opacity="1" fill-rule="nonzero"/></g></svg>
