<svg xmlns="http://www.w3.org/2000/svg" xmlns:xlink="http://www.w3.org/1999/xlink" width="232" zoomAndPan="magnify" viewBox="0 0 174 181.92" height="232" preserveAspectRatio="xMidYMid meet" version="1.0"><defs><clipPath id="d6dd6ebe16"><path d="M 21 10.953125 L 151 10.953125 L 151 157 L 21 157 Z M 21 10.953125 " clip-rule="nonzero"/></clipPath><clipPath id="fa3ee80317"><path d="M 28 17 L 151 17 L 151 156.992188 L 28 156.992188 Z M 28 17 " clip-rule="nonzero"/></clipPath><clipPath id="50021915f6"><path d="M 89.273438 11.039062 L 114.257812 10.949219 C 113.800781 28.210938 147.65625 60.65625 150.371094 64.359375 C 136.433594 66.078125 123.398438 67.164062 114.257812 59.570312 L 114.164062 111.625 C 113.984375 125.726562 107.917969 136.207031 100.585938 143.167969 C 99.953125 143.800781 99.320312 144.429688 98.59375 144.972656 C 89.179688 152.925781 79.949219 156.632812 67.277344 156.539062 C 54.785156 156.359375 45.371094 151.660156 37.40625 144.792969 C 31.433594 139.644531 26.632812 132.953125 23.917969 123.734375 C 18.035156 103.492188 25.636719 83.789062 42.476562 72.316406 C 42.746094 72.042969 43.105469 71.773438 43.46875 71.589844 C 51.164062 66.257812 63.113281 63.097656 74.246094 64.902344 L 74.246094 90.390625 C 66.550781 88.398438 59.671875 90.117188 54.605469 94.363281 C 54.511719 94.363281 54.511719 94.457031 54.421875 94.546875 C 49.535156 98.703125 46.726562 104.847656 47.089844 111.808594 C 47.996094 124.277344 58.316406 132.050781 69.539062 131.507812 C 69.539062 131.507812 69.628906 131.507812 69.628906 131.507812 C 80.492188 130.425781 89.453125 121.570312 89.179688 109.636719 Z M 89.273438 11.039062 " clip-rule="evenodd"/></clipPath></defs><path fill="#00ec6a" d="M 94.875 17.367188 L 119.863281 17.277344 C 119.410156 34.539062 153.261719 66.984375 155.976562 70.6875 C 142.039062 72.40625 129.003906 73.488281 119.863281 65.898438 L 119.769531 117.953125 C 119.589844 132.050781 113.523438 142.535156 106.191406 149.492188 C 105.558594 150.125 104.925781 150.757812 104.199219 151.300781 C 94.789062 159.253906 85.554688 162.957031 72.882812 162.867188 C 60.390625 162.6875 50.976562 157.988281 43.011719 151.121094 C 37.039062 145.96875 32.238281 139.28125 29.523438 130.0625 C 23.640625 109.820312 31.242188 90.117188 48.078125 78.640625 C 48.351562 78.371094 48.710938 78.097656 49.074219 77.917969 C 56.769531 72.585938 68.71875 69.421875 79.851562 71.230469 L 79.851562 96.714844 C 72.15625 94.726562 65.277344 96.445312 60.210938 100.691406 C 60.121094 100.691406 60.121094 100.785156 60.027344 100.871094 C 55.140625 105.03125 52.332031 111.175781 52.695312 118.132812 C 53.601562 130.605469 63.921875 138.378906 75.144531 137.835938 C 75.144531 137.835938 75.234375 137.835938 75.234375 137.835938 C 86.097656 136.75 95.058594 127.894531 94.789062 115.964844 Z M 94.875 17.367188 " fill-opacity="1" fill-rule="evenodd"/><g clip-path="url(#d6dd6ebe16)"><path fill="#00ff0a" d="M 89.269531 11.039062 L 114.253906 10.949219 C 113.804688 28.210938 147.65625 60.65625 150.371094 64.359375 C 136.433594 66.078125 123.398438 67.164062 114.253906 59.570312 L 114.164062 111.625 C 113.984375 125.722656 107.917969 136.207031 100.585938 143.164062 C 99.953125 143.796875 99.320312 144.429688 98.59375 144.972656 C 89.179688 152.925781 79.949219 156.632812 67.277344 156.542969 C 54.785156 156.363281 45.371094 151.660156 37.40625 144.792969 C 31.433594 139.640625 26.632812 132.953125 23.917969 123.734375 C 18.035156 103.492188 25.636719 83.792969 42.472656 72.316406 C 42.746094 72.042969 43.105469 71.769531 43.46875 71.589844 C 51.164062 66.257812 63.113281 63.097656 74.246094 64.902344 L 74.246094 90.390625 C 66.550781 88.398438 59.671875 90.117188 54.605469 94.363281 C 54.515625 94.363281 54.515625 94.457031 54.421875 94.546875 C 49.535156 98.703125 46.726562 104.847656 47.089844 111.808594 C 47.996094 124.277344 58.316406 132.050781 69.539062 131.507812 C 69.539062 131.507812 69.628906 131.507812 69.628906 131.507812 C 80.492188 130.421875 89.453125 121.566406 89.179688 109.636719 Z M 89.269531 11.039062 " fill-opacity="1" fill-rule="evenodd"/></g><g clip-path="url(#fa3ee80317)"><g clip-path="url(#50021915f6)"><path fill="#14c962" d="M 95.820312 17.371094 L 120.804688 17.28125 C 120.351562 34.539062 154.203125 66.984375 156.917969 70.691406 C 142.980469 72.40625 129.945312 73.492188 120.804688 65.898438 L 120.710938 117.957031 C 120.53125 132.054688 114.46875 142.535156 107.132812 149.496094 C 106.5 150.128906 105.867188 150.761719 105.144531 151.300781 C 95.730469 159.253906 86.496094 162.960938 73.824219 162.871094 C 61.332031 162.691406 51.917969 157.988281 43.953125 151.121094 C 37.980469 145.972656 33.183594 139.28125 30.464844 130.0625 C 24.582031 109.820312 32.1875 90.121094 49.023438 78.644531 C 49.296875 78.371094 49.65625 78.097656 50.019531 77.917969 C 57.710938 72.585938 69.660156 69.425781 80.792969 71.230469 L 80.792969 96.71875 C 73.101562 94.730469 66.222656 96.445312 61.152344 100.691406 C 61.0625 100.691406 61.0625 100.785156 60.96875 100.875 C 56.085938 105.03125 53.277344 111.179688 53.640625 118.136719 C 54.542969 130.609375 64.863281 138.378906 76.085938 137.835938 C 76.085938 137.835938 76.179688 137.835938 76.179688 137.835938 C 87.039062 136.753906 96 127.898438 95.730469 115.964844 Z M 95.820312 17.371094 " fill-opacity="1" fill-rule="evenodd"/></g></g></svg>