<svg xmlns="http://www.w3.org/2000/svg" xmlns:xlink="http://www.w3.org/1999/xlink" width="290" zoomAndPan="magnify" viewBox="0 0 217.5 173.999997" height="232" preserveAspectRatio="xMidYMid meet" version="1.0"><defs><clipPath id="5d38513b81"><path d="M 4.824219 142 L 212.097656 142 L 212.097656 159 L 4.824219 159 Z M 4.824219 142 " clip-rule="nonzero"/></clipPath></defs><path fill="#14c962" d="M 30.472656 15.511719 C 25.140625 15.511719 20.800781 19.851562 20.800781 25.1875 L 20.800781 134.980469 L 196.1875 134.980469 L 196.1875 25.1875 C 196.1875 19.851562 191.851562 15.511719 186.515625 15.511719 Z M 162.839844 123.335938 L 65.9375 123.335938 C 65.464844 123.335938 64.996094 123.234375 64.550781 123.054688 C 64.34375 122.96875 64.175781 122.824219 63.988281 122.703125 C 63.796875 122.582031 63.589844 122.503906 63.417969 122.34375 C 63.402344 122.328125 63.394531 122.304688 63.378906 122.289062 C 63.15625 122.074219 63.003906 121.804688 62.839844 121.539062 C 62.75 121.390625 62.617188 121.265625 62.550781 121.109375 C 62.472656 120.933594 62.46875 120.730469 62.417969 120.542969 C 62.347656 120.261719 62.253906 119.988281 62.25 119.699219 C 62.246094 119.675781 62.234375 119.65625 62.234375 119.632812 L 62.234375 36.460938 C 62.234375 34.417969 63.890625 32.757812 65.9375 32.757812 C 67.984375 32.757812 69.640625 34.417969 69.640625 36.460938 L 69.640625 110.210938 L 94.21875 83.765625 C 95.472656 82.414062 97.523438 82.199219 99.027344 83.234375 L 102.542969 85.648438 L 121.5625 63.105469 C 122.273438 62.265625 123.285156 61.929688 124.429688 61.789062 C 125.535156 61.800781 126.578125 62.304688 127.273438 63.164062 L 131.078125 67.867188 L 147.8125 47.453125 C 148.800781 46.242188 150.4375 45.78125 151.925781 46.316406 C 153.394531 46.839844 154.378906 48.238281 154.378906 49.800781 L 154.378906 115.929688 L 162.839844 115.929688 C 164.886719 115.929688 166.542969 117.585938 166.542969 119.632812 C 166.542969 121.675781 164.886719 123.335938 162.839844 123.335938 Z M 162.839844 123.335938 " fill-opacity="1" fill-rule="nonzero"/><path fill="#14c962" d="M 131.0625 77.433594 C 131.058594 77.433594 131.054688 77.433594 131.050781 77.433594 C 129.9375 77.429688 128.882812 76.925781 128.183594 76.058594 L 124.335938 71.304688 L 106.039062 92.988281 C 104.808594 94.4375 102.679688 94.730469 101.113281 93.652344 L 97.46875 91.148438 L 74.433594 115.929688 L 146.972656 115.929688 L 146.972656 60.15625 L 133.925781 76.078125 C 133.21875 76.9375 132.171875 77.433594 131.0625 77.433594 Z M 131.0625 77.433594 " fill-opacity="1" fill-rule="nonzero"/><g clip-path="url(#5d38513b81)"><path fill="#14c962" d="M 17.097656 142.386719 L 4.824219 142.386719 L 4.824219 153.582031 C 4.824219 156.28125 7.019531 158.476562 9.71875 158.476562 L 207.269531 158.476562 C 209.972656 158.476562 212.167969 156.28125 212.167969 153.582031 L 212.167969 142.386719 Z M 17.097656 142.386719 " fill-opacity="1" fill-rule="nonzero"/></g></svg>