<svg xmlns="http://www.w3.org/2000/svg" xmlns:xlink="http://www.w3.org/1999/xlink" width="290" zoomAndPan="magnify" viewBox="0 0 217.5 173.999997" height="232" preserveAspectRatio="xMidYMid meet" version="1.0"><defs><clipPath id="3716b3dffa"><path d="M 23.011719 9.125 L 193.617188 9.125 L 193.617188 164.769531 L 23.011719 164.769531 Z M 23.011719 9.125 " clip-rule="nonzero"/></clipPath></defs><g clip-path="url(#3716b3dffa)"><path fill="#ffffff" d="M 157.988281 74.730469 L 193.980469 164.714844 L 176.351562 164.714844 L 166.527344 140.171875 L 133.070312 140.171875 L 123.261719 164.714844 L 105.640625 164.714844 L 141.625 74.730469 Z M 88.453125 9.285156 L 88.453125 25.648438 L 137.535156 25.648438 L 137.535156 42.007812 L 121.4375 42.007812 C 118.28125 51.503906 114.210938 60.59375 109.226562 69.269531 C 104.242188 77.949219 98.441406 86.042969 91.824219 93.550781 C 97.738281 98.828125 104.109375 103.484375 110.933594 107.515625 L 104.789062 122.878906 C 95.972656 117.878906 87.800781 111.988281 80.273438 105.203125 C 72.964844 111.8125 65.035156 117.566406 56.480469 122.460938 C 47.929688 127.355469 38.949219 131.277344 29.546875 134.226562 L 25.160156 118.445312 C 33.21875 115.875 40.917969 112.496094 48.261719 108.300781 C 55.605469 104.109375 62.433594 99.195312 68.738281 93.5625 C 59.355469 82.9375 51.65625 71.207031 45.644531 58.367188 L 63.96875 58.367188 C 68.542969 66.808594 73.976562 74.65625 80.273438 81.902344 C 85.386719 76.011719 89.941406 69.714844 93.941406 63.011719 C 97.9375 56.3125 101.320312 49.3125 104.078125 42.015625 L 23.011719 42.007812 L 23.011719 25.648438 L 72.09375 25.648438 L 72.09375 9.285156 Z M 149.804688 98.328125 L 139.605469 123.8125 L 159.992188 123.8125 Z M 149.804688 98.328125 " fill-opacity="1" fill-rule="nonzero"/></g></svg>