<svg xmlns="http://www.w3.org/2000/svg" xmlns:xlink="http://www.w3.org/1999/xlink" width="290" zoomAndPan="magnify" viewBox="0 0 217.5 173.999997" height="232" preserveAspectRatio="xMidYMid meet" version="1.0"><defs><clipPath id="e42009c6db"><path d="M 23.097656 1.597656 L 193.707031 1.597656 L 193.707031 172.207031 L 23.097656 172.207031 Z M 23.097656 1.597656 " clip-rule="nonzero"/></clipPath></defs><g clip-path="url(#e42009c6db)"><path fill="#01cb49" d="M 168.878906 26.609375 C 152.75 10.480469 131.308594 1.597656 108.496094 1.597656 C 85.683594 1.597656 64.238281 10.480469 48.109375 26.609375 C 31.980469 42.738281 23.097656 64.183594 23.097656 86.996094 C 23.097656 109.804688 31.980469 131.25 48.109375 147.378906 C 64.238281 163.507812 85.683594 172.390625 108.496094 172.390625 C 131.308594 172.390625 152.75 163.507812 168.878906 147.378906 C 185.011719 131.25 193.894531 109.804688 193.894531 86.996094 C 193.894531 64.183594 185.011719 42.738281 168.878906 26.609375 Z M 168.878906 26.609375 " fill-opacity="1" fill-rule="nonzero"/></g><path fill="#ffffff" d="M 128.890625 46.433594 C 129.558594 47.101562 130.191406 47.800781 130.792969 48.53125 C 131.390625 49.261719 131.953125 50.019531 132.476562 50.804688 C 133 51.589844 133.488281 52.398438 133.933594 53.230469 C 134.378906 54.066406 134.78125 54.917969 135.140625 55.789062 C 135.503906 56.664062 135.820312 57.550781 136.097656 58.457031 C 136.371094 59.359375 136.597656 60.273438 136.785156 61.203125 C 136.96875 62.128906 137.105469 63.0625 137.199219 64 C 137.292969 64.941406 137.335938 65.882812 137.335938 66.828125 C 137.335938 67.773438 137.292969 68.714844 137.199219 69.65625 C 137.105469 70.59375 136.96875 71.527344 136.785156 72.453125 C 136.597656 73.382812 136.371094 74.296875 136.097656 75.199219 C 135.820312 76.105469 135.503906 76.992188 135.140625 77.867188 C 134.78125 78.738281 134.378906 79.589844 133.933594 80.425781 C 133.488281 81.257812 133 82.066406 132.476562 82.851562 C 131.953125 83.636719 131.390625 84.394531 130.792969 85.125 C 130.191406 85.855469 129.558594 86.554688 128.890625 87.222656 C 128.222656 87.890625 127.523438 88.523438 126.792969 89.125 C 126.0625 89.722656 125.304688 90.285156 124.519531 90.808594 C 123.734375 91.335938 122.925781 91.820312 122.09375 92.265625 C 121.257812 92.710938 120.40625 93.113281 119.535156 93.472656 C 118.660156 93.835938 117.773438 94.152344 116.867188 94.429688 C 115.964844 94.703125 115.050781 94.929688 114.121094 95.117188 C 113.195312 95.300781 112.261719 95.4375 111.324219 95.53125 C 110.382812 95.625 109.441406 95.671875 108.496094 95.671875 C 107.550781 95.671875 106.609375 95.625 105.667969 95.53125 C 104.730469 95.4375 103.796875 95.300781 102.871094 95.117188 C 101.941406 94.929688 101.027344 94.703125 100.125 94.429688 C 99.21875 94.152344 98.332031 93.835938 97.457031 93.472656 C 96.585938 93.113281 95.734375 92.710938 94.898438 92.265625 C 94.066406 91.820312 93.257812 91.335938 92.472656 90.808594 C 91.6875 90.285156 90.929688 89.722656 90.199219 89.125 C 89.46875 88.523438 88.769531 87.890625 88.101562 87.222656 C 87.433594 86.554688 86.800781 85.855469 86.199219 85.125 C 85.601562 84.394531 85.039062 83.636719 84.515625 82.851562 C 83.992188 82.066406 83.503906 81.257812 83.058594 80.425781 C 82.613281 79.589844 82.210938 78.738281 81.851562 77.867188 C 81.488281 76.992188 81.171875 76.105469 80.894531 75.199219 C 80.621094 74.296875 80.394531 73.382812 80.207031 72.453125 C 80.023438 71.527344 79.886719 70.59375 79.792969 69.65625 C 79.699219 68.714844 79.65625 67.773438 79.65625 66.828125 C 79.65625 65.882812 79.699219 64.941406 79.792969 64 C 79.886719 63.0625 80.023438 62.128906 80.207031 61.203125 C 80.394531 60.273438 80.621094 59.359375 80.894531 58.457031 C 81.171875 57.550781 81.488281 56.664062 81.851562 55.789062 C 82.210938 54.917969 82.613281 54.066406 83.058594 53.230469 C 83.503906 52.398438 83.992188 51.589844 84.515625 50.804688 C 85.039062 50.019531 85.601562 49.261719 86.199219 48.53125 C 86.800781 47.800781 87.433594 47.101562 88.101562 46.433594 C 88.769531 45.765625 89.46875 45.132812 90.199219 44.535156 C 90.929688 43.933594 91.6875 43.371094 92.472656 42.847656 C 93.257812 42.324219 94.066406 41.835938 94.898438 41.390625 C 95.734375 40.945312 96.585938 40.542969 97.457031 40.183594 C 98.332031 39.820312 99.21875 39.503906 100.125 39.226562 C 101.027344 38.953125 101.941406 38.726562 102.871094 38.539062 C 103.796875 38.355469 104.730469 38.21875 105.667969 38.125 C 106.609375 38.03125 107.550781 37.988281 108.496094 37.988281 C 109.441406 37.988281 110.382812 38.03125 111.324219 38.125 C 112.261719 38.21875 113.195312 38.355469 114.121094 38.539062 C 115.050781 38.726562 115.964844 38.953125 116.867188 39.226562 C 117.773438 39.503906 118.660156 39.820312 119.535156 40.183594 C 120.40625 40.542969 121.257812 40.945312 122.09375 41.390625 C 122.925781 41.835938 123.734375 42.324219 124.519531 42.847656 C 125.304688 43.371094 126.0625 43.933594 126.792969 44.535156 C 127.523438 45.132812 128.222656 45.765625 128.890625 46.433594 Z M 128.890625 46.433594 " fill-opacity="1" fill-rule="nonzero"/><path fill="#ffffff" d="M 109.328125 108.484375 L 107.664062 108.484375 C 84.097656 108.484375 64.25 124.394531 58.269531 146.0625 C 71.8125 157.59375 89.355469 164.566406 108.496094 164.566406 C 127.636719 164.566406 145.175781 157.59375 158.71875 146.0625 C 152.738281 124.398438 132.894531 108.484375 109.328125 108.484375 Z M 109.328125 108.484375 " fill-opacity="1" fill-rule="nonzero"/></svg>