<svg xmlns="http://www.w3.org/2000/svg" xmlns:xlink="http://www.w3.org/1999/xlink" width="290" zoomAndPan="magnify" viewBox="0 0 217.92 181.92" height="232" preserveAspectRatio="xMidYMid meet" version="1.0"><defs><clipPath id="63c3d9babf"><path d="M 46.824219 5.875 L 107.125 5.875 L 107.125 157.542969 L 46.824219 157.542969 Z M 46.824219 5.875 " clip-rule="nonzero"/></clipPath><clipPath id="c451cd611e"><path d="M 110.296875 119.625 L 170.59375 119.625 L 170.59375 157.542969 L 110.296875 157.542969 Z M 110.296875 119.625 " clip-rule="nonzero"/></clipPath></defs><g clip-path="url(#63c3d9babf)"><path fill="#14c962" d="M 49.238281 5.875 L 104.710938 5.875 C 105.03125 5.875 105.339844 5.933594 105.632812 6.050781 C 105.929688 6.167969 106.191406 6.335938 106.417969 6.550781 C 106.644531 6.765625 106.816406 7.015625 106.941406 7.296875 C 107.0625 7.578125 107.125 7.871094 107.125 8.179688 L 107.125 157.542969 C 107.125 157.847656 107.0625 158.140625 106.941406 158.421875 C 106.816406 158.707031 106.644531 158.953125 106.417969 159.171875 C 106.191406 159.386719 105.929688 159.550781 105.632812 159.667969 C 105.339844 159.785156 105.03125 159.84375 104.710938 159.84375 L 49.238281 159.84375 C 48.917969 159.84375 48.609375 159.785156 48.3125 159.667969 C 48.019531 159.550781 47.757812 159.386719 47.53125 159.171875 C 47.304688 158.953125 47.128906 158.707031 47.007812 158.421875 C 46.886719 158.140625 46.824219 157.847656 46.824219 157.542969 L 46.824219 8.179688 C 46.824219 7.871094 46.886719 7.578125 47.007812 7.296875 C 47.128906 7.015625 47.304688 6.765625 47.53125 6.550781 C 47.757812 6.335938 48.019531 6.167969 48.3125 6.050781 C 48.609375 5.933594 48.917969 5.875 49.238281 5.875 Z M 49.238281 5.875 " fill-opacity="1" fill-rule="nonzero"/></g><g clip-path="url(#c451cd611e)"><path fill="#ed1c24" d="M 112.707031 119.625 L 168.183594 119.625 C 168.503906 119.625 168.8125 119.683594 169.105469 119.800781 C 169.402344 119.917969 169.664062 120.085938 169.890625 120.300781 C 170.117188 120.515625 170.289062 120.765625 170.410156 121.046875 C 170.535156 121.328125 170.59375 121.621094 170.59375 121.929688 L 170.59375 157.542969 C 170.59375 157.847656 170.535156 158.140625 170.410156 158.421875 C 170.289062 158.707031 170.117188 158.953125 169.890625 159.171875 C 169.664062 159.386719 169.402344 159.550781 169.105469 159.667969 C 168.8125 159.785156 168.503906 159.84375 168.183594 159.84375 L 112.707031 159.84375 C 112.390625 159.84375 112.082031 159.785156 111.785156 159.667969 C 111.492188 159.550781 111.230469 159.386719 111.003906 159.171875 C 110.777344 158.953125 110.601562 158.707031 110.480469 158.421875 C 110.359375 158.140625 110.296875 157.847656 110.296875 157.542969 L 110.296875 121.929688 C 110.296875 121.621094 110.359375 121.328125 110.480469 121.046875 C 110.601562 120.765625 110.777344 120.515625 111.003906 120.300781 C 111.230469 120.085938 111.492188 119.917969 111.785156 119.800781 C 112.082031 119.683594 112.390625 119.625 112.707031 119.625 Z M 112.707031 119.625 " fill-opacity="1" fill-rule="nonzero"/></g><path stroke-linecap="round" transform="matrix(0.74967, -0.000000000000000093, 0.000000000000000093, 0.74967, 41.119464, 155.293382)" fill="none" stroke-linejoin="miter" d="M 4.999162 5.001648 L 173.531583 5.001648 " stroke="#000000" stroke-width="10" stroke-opacity="1" stroke-miterlimit="4"/></svg>