<svg xmlns="http://www.w3.org/2000/svg" xmlns:xlink="http://www.w3.org/1999/xlink" width="232" zoomAndPan="magnify" viewBox="0 0 174 181.92" height="232" preserveAspectRatio="xMidYMid meet" version="1.0"><defs><clipPath id="ebe484bf5d"><path d="M 9.546875 29.808594 L 164.730469 29.808594 L 164.730469 143.757812 L 9.546875 143.757812 Z M 9.546875 29.808594 " clip-rule="nonzero"/></clipPath></defs><g clip-path="url(#ebe484bf5d)"><path fill="#03b751" d="M 35.378906 29.808594 C 21.175781 29.808594 9.566406 41.414062 9.566406 55.617188 L 9.566406 118.300781 C 9.566406 132.503906 21.175781 144.109375 35.378906 144.109375 L 138.617188 144.109375 C 152.820312 144.109375 164.429688 132.503906 164.429688 118.300781 L 164.429688 55.617188 C 164.429688 41.414062 152.820312 29.808594 138.617188 29.808594 Z M 35.378906 40.871094 L 138.617188 40.871094 C 146.882812 40.871094 153.367188 47.351562 153.367188 55.617188 L 153.367188 118.300781 C 153.367188 126.566406 146.882812 133.046875 138.617188 133.046875 L 35.378906 133.046875 C 27.113281 133.046875 20.628906 126.566406 20.628906 118.300781 L 20.628906 55.617188 C 20.628906 47.351562 27.113281 40.871094 35.378906 40.871094 Z M 74.265625 57.460938 C 73.894531 57.449219 73.527344 57.476562 73.164062 57.539062 C 72.796875 57.601562 72.441406 57.699219 72.097656 57.832031 C 71.75 57.96875 71.421875 58.132812 71.109375 58.332031 C 70.796875 58.535156 70.507812 58.761719 70.242188 59.019531 C 69.976562 59.277344 69.738281 59.558594 69.53125 59.867188 C 69.320312 60.171875 69.144531 60.496094 69 60.835938 C 68.855469 61.175781 68.746094 61.53125 68.671875 61.894531 C 68.597656 62.253906 68.5625 62.621094 68.5625 62.992188 L 68.5625 110.925781 C 68.558594 111.265625 68.589844 111.601562 68.648438 111.9375 C 68.710938 112.273438 68.800781 112.597656 68.921875 112.917969 C 69.042969 113.234375 69.191406 113.539062 69.367188 113.828125 C 69.542969 114.121094 69.746094 114.394531 69.972656 114.644531 C 70.199219 114.898438 70.449219 115.128906 70.71875 115.335938 C 70.988281 115.546875 71.273438 115.726562 71.578125 115.882812 C 71.878906 116.035156 72.195312 116.160156 72.519531 116.257812 C 72.847656 116.355469 73.179688 116.421875 73.515625 116.457031 C 74.65625 116.582031 75.734375 116.367188 76.742188 115.824219 L 120.988281 91.855469 C 121.429688 91.621094 121.828125 91.328125 122.1875 90.984375 C 122.546875 90.636719 122.855469 90.25 123.113281 89.824219 C 123.367188 89.394531 123.5625 88.941406 123.695312 88.457031 C 123.828125 87.976562 123.894531 87.488281 123.894531 86.988281 C 123.894531 86.488281 123.828125 86 123.695312 85.519531 C 123.5625 85.035156 123.367188 84.582031 123.113281 84.152344 C 122.855469 83.726562 122.546875 83.339844 122.1875 82.992188 C 121.828125 82.648438 121.429688 82.355469 120.988281 82.121094 L 76.742188 58.152344 C 75.972656 57.726562 75.148438 57.496094 74.265625 57.460938 Z M 79.625 72.324219 L 106.699219 86.960938 L 79.625 101.652344 Z M 79.625 72.324219 " fill-opacity="1" fill-rule="nonzero"/></g></svg>